<svg width="75" height="38" viewBox="0 0 75 38" fill="none" xmlns="http://www.w3.org/2000/svg">
<path d="M5.2882 36.6818C4.85824 37.0387 4.28085 37.2113 3.56835 37.2113H0.484985V29.7858H3.47009C4.1703 29.7858 4.73539 29.9585 5.16535 30.3154C5.5953 30.6722 5.80412 31.1558 5.80412 31.7659C5.80412 32.1458 5.69358 32.4912 5.47246 32.779C5.25134 33.0668 4.96881 33.2741 4.63713 33.3892C5.03023 33.5158 5.34961 33.7461 5.58301 34.0454C5.81642 34.3562 5.93927 34.7246 5.93927 35.1506C5.93927 35.8068 5.73041 36.3249 5.30046 36.6703M4.53883 30.7989C4.25629 30.5801 3.87549 30.4765 3.40868 30.4765H1.33261V33.0553H3.40868C3.87549 33.0553 4.25629 32.9402 4.53883 32.7215C4.82137 32.5027 4.96879 32.1804 4.96879 31.7544C4.96879 31.3285 4.82137 31.0061 4.53883 30.7989ZM4.66168 34.126C4.37914 33.8842 3.98602 33.7576 3.49465 33.7576H1.33261V36.4745H3.49465C3.98602 36.4745 4.36686 36.3479 4.66168 36.1061C4.94422 35.8644 5.09164 35.5305 5.09164 35.1046C5.09164 34.6786 4.94422 34.3562 4.66168 34.1145M12.1674 34.5865C12.1674 34.8398 12.1306 35.0815 12.0815 35.3118C12.0323 35.542 11.9586 35.7493 11.8603 35.9335C11.7621 36.1177 11.6147 36.3019 11.4304 36.4745C10.8776 36.9926 10.2019 37.2459 9.40345 37.2459C8.60496 37.2459 7.92933 36.9926 7.37653 36.4745C7.19226 36.3019 7.04484 36.1177 6.94657 35.9335C6.84829 35.7493 6.77459 35.542 6.72546 35.3118C6.67632 35.0815 6.65174 34.8398 6.63946 34.5865C6.63946 34.3332 6.6272 33.9533 6.6272 33.4698C6.6272 32.9863 6.62717 32.6063 6.63946 32.3531C6.63946 32.0883 6.67632 31.8465 6.72546 31.6163C6.77459 31.386 6.84829 31.1788 6.94657 31.0061C7.04484 30.8219 7.19226 30.6377 7.37653 30.465C7.92933 29.947 8.60496 29.6937 9.40345 29.6937C10.2019 29.6937 10.8776 29.947 11.4304 30.465C11.6147 30.6377 11.7621 30.8219 11.8603 31.0061C11.9586 31.1903 12.0323 31.3975 12.0815 31.6278C12.1306 31.858 12.1552 32.0998 12.1674 32.3531C12.1674 32.6063 12.1797 32.9863 12.1797 33.4698C12.1797 33.9533 12.1797 34.3332 12.1674 34.5865ZM11.3199 32.4452C11.3199 32.1919 11.283 31.9732 11.2461 31.789C11.2093 31.6048 11.1479 31.4551 11.0742 31.3169C11.0004 31.1903 10.9022 31.0522 10.7793 30.9255C10.6074 30.7528 10.3985 30.6262 10.1651 30.5341C9.91943 30.442 9.67372 30.3959 9.41575 30.3959C9.15778 30.3959 8.9121 30.442 8.66642 30.5341C8.43301 30.6262 8.22416 30.7528 8.0399 30.9255C7.91705 31.0406 7.81879 31.1673 7.74508 31.3054C7.67138 31.4436 7.60994 31.5932 7.57308 31.7774C7.53623 31.9501 7.51167 32.1689 7.49938 32.4337C7.49938 32.6869 7.48708 33.0323 7.48708 33.4698C7.48708 33.9073 7.4871 34.2411 7.49938 34.4944C7.49938 34.7477 7.53623 34.9664 7.57308 35.1506C7.60994 35.3348 7.65909 35.4845 7.74508 35.6226C7.81879 35.7493 7.91705 35.8874 8.0399 36.014C8.22416 36.1752 8.42073 36.3134 8.66642 36.4055C8.89982 36.4976 9.15778 36.5436 9.41575 36.5436C9.67372 36.5436 9.91943 36.4976 10.1651 36.4055C10.4108 36.3134 10.6074 36.1867 10.7793 36.014C10.9022 35.8989 11.0004 35.7723 11.0742 35.6341C11.1479 35.496 11.2093 35.3463 11.2461 35.1621C11.283 34.9894 11.3076 34.7592 11.3199 34.5059C11.3199 34.2411 11.3321 33.8957 11.3321 33.4813C11.3321 33.0668 11.3321 32.71 11.3199 32.4567M19.0467 37.1998V29.7743H18.1991V35.7147L16.5039 33.3201L13.9856 29.7743H13.1871V37.1998H14.0347V31.2364L15.6808 33.5734L18.236 37.1883H19.0345L19.0467 37.1998ZM22.6461 37.1998H23.4937V29.7743H22.6461V37.1998ZM30.6432 37.1998V29.7743H29.7956V35.7147L28.1003 33.3201L25.5821 29.7743H24.7836V37.1998H25.6312V31.2364L27.2773 33.5734L29.8325 37.1883H30.631L30.6432 37.1998ZM36.638 30.4765V29.7628H31.2083V30.4765H33.5055V37.1998H34.3532V30.4765H36.6503H36.638ZM42.1169 37.1998V36.4861H38.0385V33.8036H41.515V33.0899H38.0385V30.465H42.1169V29.7512H37.1908V37.1768H42.1169V37.1998ZM48.8119 37.1998V29.7743H47.9643V35.7147L46.269 33.3201L43.7507 29.7743H42.9522V37.1998H43.7998V31.2364L45.446 33.5734L48.0011 37.1883H48.7996L48.8119 37.1998ZM54.217 36.6933C54.7084 36.3134 54.9664 35.7953 54.9664 35.1506C54.9664 34.5059 54.7453 34.0339 54.303 33.677C54.1311 33.5389 53.9345 33.4237 53.7257 33.3431C53.5046 33.2626 53.222 33.1935 52.8535 33.1474L52.4358 33.0784L51.9936 33.0208C51.7847 32.9863 51.5882 32.9287 51.3916 32.8596C51.1951 32.7905 51.0477 32.71 50.9248 32.6063C50.6914 32.4106 50.5686 32.1228 50.5686 31.7544C50.5686 31.34 50.716 31.0061 51.0108 30.7528C51.3057 30.4996 51.711 30.3729 52.2393 30.3729C52.6447 30.3729 52.9886 30.419 53.2834 30.5341C53.5782 30.6492 53.8362 30.7989 54.0942 31.0176L54.6347 30.5111C54.2907 30.2233 53.9345 30.016 53.5783 29.8894C53.222 29.7628 52.7798 29.7052 52.2761 29.7052C51.4899 29.7052 50.8757 29.8894 50.4212 30.2693C49.9666 30.6492 49.7332 31.1558 49.7332 31.8005C49.7332 32.3876 49.9298 32.8596 50.3352 33.1935C50.6791 33.4698 51.1582 33.654 51.797 33.7576L52.2515 33.8267L52.7183 33.8957C53.0132 33.9418 53.2343 33.9763 53.3694 34.0224C53.5045 34.0684 53.6274 34.1375 53.7625 34.2411C54.0205 34.4483 54.1433 34.7592 54.1433 35.1736C54.1433 35.6111 53.9714 35.945 53.6397 36.1867C53.308 36.4285 52.8535 36.5551 52.2761 36.5551C51.8216 36.5551 51.4285 36.4976 51.0968 36.3709C50.7651 36.2443 50.4334 36.0371 50.1141 35.7377L49.5367 36.2788C49.9052 36.6242 50.2983 36.8775 50.7283 37.0271C51.1459 37.1768 51.6619 37.2574 52.2515 37.2574C53.0869 37.2574 53.7502 37.0617 54.2416 36.6933M61.2929 37.1998V29.7743H60.4453V33.1014H56.6862V29.7743H55.8386V37.1998H56.6862V33.8036H60.4453V37.1998H61.2929ZM67.8896 34.598C67.8896 34.8513 67.8528 35.093 67.8036 35.3233C67.7545 35.5535 67.6808 35.7608 67.5825 35.945C67.4842 36.1292 67.3368 36.3134 67.1525 36.4861C66.5997 37.0041 65.9241 37.2574 65.1256 37.2574C64.3271 37.2574 63.6515 37.0041 63.0987 36.4861C62.9144 36.3134 62.767 36.1292 62.6687 35.945C62.5705 35.7608 62.4968 35.5535 62.4476 35.3233C62.3985 35.093 62.3739 34.8513 62.3616 34.598C62.3616 34.3447 62.3493 33.9648 62.3493 33.4813C62.3493 32.9978 62.3493 32.6179 62.3616 32.3646C62.3616 32.0998 62.3985 31.858 62.4476 31.6278C62.4968 31.3975 62.5705 31.1903 62.6687 31.0176C62.767 30.8334 62.9144 30.6492 63.0987 30.4765C63.6515 29.9585 64.3271 29.7052 65.1256 29.7052C65.9241 29.7052 66.5997 29.9585 67.1525 30.4765C67.3368 30.6492 67.4842 30.8334 67.5825 31.0176C67.6808 31.2018 67.7545 31.409 67.8036 31.6393C67.8528 31.8695 67.8773 32.1113 67.8896 32.3646C67.8896 32.6179 67.9019 32.9978 67.9019 33.4813C67.9019 33.9648 67.9019 34.3447 67.8896 34.598ZM67.042 32.4567C67.042 32.2034 67.0051 31.9847 66.9683 31.8005C66.9314 31.6163 66.8823 31.4666 66.7963 31.3285C66.7226 31.2018 66.6243 31.0637 66.5015 30.937C66.3295 30.7643 66.1207 30.6377 65.8872 30.5456C65.6416 30.4535 65.3959 30.4075 65.1379 30.4075C64.8799 30.4075 64.6219 30.4535 64.3885 30.5456C64.1551 30.6377 63.9463 30.7643 63.762 30.937C63.6392 31.0522 63.5409 31.1788 63.4672 31.3169C63.3935 31.4551 63.3321 31.6048 63.2953 31.789C63.2584 31.9616 63.2338 32.1804 63.2215 32.4452C63.2215 32.6984 63.2093 33.0438 63.2093 33.4813C63.2093 33.9188 63.2093 34.2526 63.2215 34.5059C63.2215 34.7592 63.2584 34.9779 63.2953 35.1621C63.3321 35.3463 63.3812 35.496 63.4672 35.6341C63.5409 35.7608 63.6392 35.8989 63.762 36.0256C63.9463 36.1867 64.1429 36.3249 64.3885 36.417C64.6219 36.5091 64.8799 36.5551 65.1379 36.5551C65.3959 36.5551 65.6538 36.5091 65.8872 36.417C66.1329 36.3249 66.3295 36.1982 66.5015 36.0256C66.6243 35.9104 66.7226 35.7838 66.7963 35.6456C66.87 35.5075 66.9314 35.3578 66.9683 35.1736C67.0051 35.0009 67.0297 34.7707 67.042 34.5174C67.042 34.2526 67.0543 33.9073 67.0543 33.4928C67.0543 33.0784 67.0543 32.7215 67.042 32.4682M74.8303 37.2113V29.7858H73.9827V35.7262L72.2874 33.3316L69.7691 29.7858H68.9706V37.2113H69.8183V31.2479L71.4644 33.5849L74.0318 37.1998H74.8303V37.2113ZM7.51168 23.6266V23.2582H4.90739V27.184H5.34961V25.4571H7.17997V25.0772H5.34961V23.6381H7.49938L7.51168 23.6266ZM15.0666 26.4126C15.1403 26.2515 15.1771 26.0788 15.1771 25.8831V23.2582H14.7349V25.8485C14.7349 26.1478 14.6366 26.3896 14.4524 26.5623C14.2681 26.7465 14.0224 26.8271 13.7153 26.8271C13.4082 26.8271 13.1625 26.735 12.9782 26.5623C12.794 26.3781 12.6957 26.1478 12.6957 25.8485V23.2582H12.2534V25.8831C12.2534 26.0788 12.2903 26.2515 12.364 26.4126C12.4377 26.5738 12.536 26.712 12.6711 26.8386C12.8062 26.9537 12.9537 27.0458 13.1379 27.1149C13.3222 27.184 13.5065 27.207 13.7153 27.207C13.9241 27.207 14.1207 27.1725 14.2927 27.1149C14.4769 27.0458 14.6244 26.9537 14.7595 26.8386C14.8946 26.7235 14.9929 26.5738 15.0666 26.4126ZM23.4077 27.1725V23.2467H22.9655V26.3781L22.0687 25.1117L20.742 23.2352H20.312V27.1609H20.7543V24.018L21.6265 25.2499L22.9778 27.1609H23.4077V27.1725ZM31.4295 26.1824C31.3803 26.4357 31.2698 26.6429 31.0855 26.8156C30.8275 27.0573 30.4713 27.184 30.029 27.184H28.5918V23.2582H30.029C30.4713 23.2582 30.8275 23.3733 31.0855 23.6266C31.2698 23.7878 31.3803 23.995 31.4295 24.2253C31.4786 24.4555 31.5032 24.7779 31.5032 25.1808C31.5032 25.5837 31.4786 25.9406 31.4295 26.1939M31.0118 24.3864C30.9872 24.2022 30.9012 24.0411 30.7784 23.9259C30.6678 23.8223 30.545 23.7532 30.4098 23.7072C30.2747 23.6611 30.115 23.6381 29.9553 23.6381H29.0463V26.8156H29.9553C30.1273 26.8156 30.2747 26.7925 30.4098 26.7465C30.545 26.7004 30.6678 26.6314 30.7784 26.5278C30.9012 26.4126 30.9749 26.2399 30.9995 26.0327C31.0363 25.8255 31.0486 25.5377 31.0486 25.1808C31.0486 24.8239 31.0363 24.5706 30.9995 24.3864M38.9107 27.184L38.579 26.2975H36.7486L36.4169 27.184H35.9378L37.4734 23.2582H37.8542L39.3897 27.184H38.9107ZM37.6699 23.8569L36.8837 25.9291H38.4438L37.6699 23.8569ZM46.1708 26.9077C46.4287 26.712 46.5638 26.4357 46.5638 26.0903C46.5638 25.7449 46.441 25.5031 46.2076 25.3189C46.1216 25.2499 46.0111 25.1808 45.9005 25.1463C45.7899 25.1002 45.6303 25.0657 45.446 25.0426L45.2248 25.0081L44.9914 24.9736C44.8809 24.9505 44.7703 24.9275 44.6721 24.893C44.5738 24.8584 44.4878 24.8124 44.4264 24.7663C44.3035 24.6627 44.2421 24.5131 44.2421 24.3174C44.2421 24.0986 44.3158 23.9144 44.4755 23.7878C44.6352 23.6496 44.844 23.5921 45.1266 23.5921C45.3354 23.5921 45.5197 23.6151 45.6794 23.6727C45.8268 23.7302 45.9742 23.8108 46.1093 23.9259L46.3919 23.6611C46.2076 23.5115 46.0233 23.3964 45.8391 23.3273C45.6425 23.2582 45.4214 23.2237 45.1511 23.2237C44.7457 23.2237 44.4141 23.3273 44.1684 23.523C43.9227 23.7187 43.8121 23.995 43.8121 24.3289C43.8121 24.6397 43.9227 24.8815 44.1315 25.0657C44.3158 25.2153 44.5738 25.3074 44.9055 25.365L45.1511 25.3995L45.3968 25.4341C45.5565 25.4571 45.6671 25.4801 45.7408 25.5031C45.8145 25.5262 45.8759 25.5722 45.9496 25.6183C46.0847 25.7334 46.1462 25.8946 46.1462 26.1133C46.1462 26.332 46.0602 26.5162 45.8882 26.6429C45.7162 26.7695 45.4705 26.8386 45.1634 26.8386C44.9177 26.8386 44.7212 26.8041 44.5369 26.7465C44.3649 26.6774 44.193 26.5738 44.021 26.4126L43.7139 26.7004C43.9104 26.8846 44.1192 27.0113 44.3404 27.0919C44.5615 27.1725 44.8317 27.2185 45.1511 27.2185C45.5934 27.2185 45.9374 27.1149 46.2076 26.9192M54.4013 27.184V23.2582H53.9591V25.0196H51.969V23.2582H51.5268V27.184H51.969V25.388H53.9591V27.184H54.4013ZM62.3616 25.814C62.3616 25.9521 62.337 26.0788 62.3125 26.1939C62.2879 26.309 62.2511 26.4241 62.2019 26.5162C62.1528 26.6083 62.0791 26.712 61.9808 26.8041C61.686 27.0804 61.3297 27.207 60.9121 27.207C60.4944 27.207 60.1382 27.0688 59.8433 26.8041C59.7451 26.712 59.6713 26.6199 59.6222 26.5162C59.573 26.4241 59.5362 26.309 59.5116 26.1939C59.4871 26.0673 59.4748 25.9406 59.4625 25.814C59.4625 25.6758 59.4625 25.4801 59.4625 25.2268C59.4625 24.9736 59.4625 24.7779 59.4625 24.6397C59.4625 24.5016 59.4871 24.3749 59.5116 24.2598C59.5362 24.1447 59.573 24.0295 59.6222 23.9374C59.6713 23.8453 59.7573 23.7417 59.8433 23.6496C60.1382 23.3733 60.4944 23.2467 60.9121 23.2467C61.3297 23.2467 61.6983 23.3848 61.9808 23.6496C62.0791 23.7417 62.1528 23.8338 62.2019 23.9374C62.2511 24.0295 62.2879 24.1447 62.3125 24.2598C62.337 24.3864 62.3493 24.5131 62.3616 24.6397C62.3616 24.7779 62.3616 24.9736 62.3616 25.2268C62.3616 25.4801 62.3616 25.6758 62.3616 25.814ZM61.9194 24.6858C61.9194 24.5476 61.8948 24.4325 61.8825 24.3404C61.8702 24.2483 61.8334 24.1677 61.7966 24.0871C61.7597 24.018 61.6983 23.949 61.6368 23.8799C61.5509 23.7878 61.4403 23.7187 61.3051 23.6727C61.1823 23.6266 61.0472 23.6036 60.9121 23.6036C60.7769 23.6036 60.6418 23.6266 60.519 23.6727C60.3961 23.7187 60.2856 23.7878 60.1873 23.8799C60.1259 23.9374 60.0644 24.0065 60.0276 24.0756C59.9907 24.1447 59.9539 24.2253 59.9416 24.3174C59.917 24.4095 59.9047 24.5246 59.9047 24.6627C59.9047 24.8009 59.9047 24.9851 59.9047 25.2038C59.9047 25.4226 59.9047 25.6068 59.9047 25.7449C59.9047 25.8831 59.917 25.9982 59.9416 26.0903C59.9662 26.1824 59.9907 26.263 60.0276 26.3436C60.0644 26.4126 60.1136 26.4817 60.1873 26.5508C60.2856 26.6429 60.3961 26.712 60.519 26.758C60.6418 26.8041 60.7769 26.8271 60.9121 26.8271C61.0472 26.8271 61.1823 26.8041 61.3051 26.758C61.428 26.712 61.5386 26.6429 61.6368 26.5508C61.6983 26.4932 61.7597 26.4241 61.7966 26.3436C61.8334 26.2745 61.8702 26.1939 61.8825 26.1018C61.9071 26.0097 61.9194 25.8946 61.9194 25.7564C61.9194 25.6183 61.9194 25.4341 61.9194 25.2153C61.9194 24.9966 61.9194 24.8124 61.9194 24.6742M70.5062 27.1725V23.2467H70.0639V26.3781L69.1672 25.1117L67.8405 23.2352H67.4228V27.1609H67.8651V24.018L68.7372 25.2499L70.0885 27.1609H70.5062V27.1725ZM40.913 2.44363C40.913 1.58019 39.7337 0.87793 38.2719 0.87793C36.81 0.87793 35.6307 1.58019 35.6307 2.44363C35.6307 3.30706 36.81 4.00933 38.2719 4.00933C39.7337 4.00933 40.913 3.30706 40.913 2.44363ZM32.4613 4.05538C30.6555 4.05538 29.4148 4.70008 27.695 6.58812C27.2405 7.23282 26.6631 9.06331 26.7736 11.055C28.1495 7.45156 32.9773 4.05538 34.5374 5.12604C35.7536 5.96645 34.4269 10.0764 28.7883 16.0629C29.378 17.1681 31.1592 18.492 32.5842 19.0216C35.2008 16.7191 37.3505 13.2539 37.3505 10.4103C37.3505 6.1046 35.1516 4.05538 32.4613 4.05538ZM43.4436 4.43529C40.6796 4.43529 39.3038 6.36939 39.3038 10.5599C39.3038 13.3575 41.0113 16.5579 43.849 18.8144C45.0529 18.2848 46.5516 16.604 46.9569 15.4758C41.6746 9.8807 40.5936 6.44997 41.6132 5.62107C42.9276 4.56193 47.1044 7.12921 48.2837 10.6866C48.382 8.72945 47.8169 7.61274 47.4238 6.96804C45.9619 5.11453 45.0037 4.43529 43.4682 4.43529" fill="white"/>
</svg>
