<svg width="67" height="21" viewBox="0 0 67 21" fill="none" xmlns="http://www.w3.org/2000/svg">
<path d="M18.4889 4.25816C18.6482 4.149 18.8001 4.03606 18.9408 3.92311V3.91182C19.3113 3.55792 19.5483 2.99321 19.5483 2.34191C19.5483 1.63039 19.2483 1.00538 18.8297 0.674126C18.8001 0.647766 18.7705 0.632693 18.7593 0.628908C18.4889 0.42188 18.1481 0.252431 17.7703 0.139488C17.5406 0.067978 17.2998 0.0265455 17.0702 0.019043H11.1988C11.0506 0.019043 10.9283 0.139489 10.9283 0.286362V1.62282C10.9283 1.76963 11.0506 1.88635 11.1988 1.88635H11.3988C11.5396 1.88635 11.6581 2.01437 11.6581 2.15367V7.07795C11.6581 7.22854 11.5358 7.35284 11.3988 7.35284H11.1988C11.0506 7.35284 10.9283 7.48078 10.9283 7.62766V8.87753C10.9283 9.02062 11.0506 9.14107 11.1988 9.14107H16.8998C17.1702 9.14857 17.4184 9.14107 17.6591 9.11471V9.10342C17.9703 9.09592 18.2667 9.00555 18.5704 8.87375C18.9816 8.68551 19.3113 8.41826 19.5483 8.10201C19.8003 7.75189 19.967 7.22104 19.967 6.64125C19.967 5.98995 19.7669 5.41016 19.4557 5.06383C19.3261 4.93203 19.1853 4.8078 19.026 4.69864C18.8667 4.5932 18.6964 4.49533 18.5149 4.42382V4.41253C18.4148 4.38239 18.3963 4.30337 18.4852 4.24308V4.25065L18.4889 4.25816ZM14.6512 3.7951C14.4993 3.7951 14.3697 3.67837 14.3697 3.52778V2.16118C14.3697 2.01815 14.4993 1.89392 14.6512 1.89392H15.9292C16.1478 1.89392 16.3478 1.97672 16.4774 2.11603C16.6405 2.2779 16.7479 2.55272 16.7479 2.8464C16.7479 3.15887 16.6256 3.42991 16.4478 3.58807C16.4256 3.60686 16.3959 3.637 16.3663 3.64829C16.2144 3.75366 16.0551 3.81017 15.9255 3.7951H14.6475H14.6512ZM14.7623 5.08262H16.1404C16.3997 5.08262 16.6219 5.18428 16.7812 5.33865H16.7923C16.9516 5.53439 17.0739 5.87322 17.0739 6.22341C17.0739 6.59988 16.9331 6.91985 16.7441 7.10809C16.7145 7.13445 16.6849 7.16081 16.6479 7.19089C16.4774 7.3114 16.2959 7.36412 16.1441 7.36412H14.6549C14.503 7.36412 14.3734 7.23989 14.3734 7.0893V5.34994C14.3734 5.20313 14.503 5.08641 14.6549 5.08641H14.7661L14.7623 5.08262Z" fill="white"/>
<path d="M20.7375 0.019043C20.5893 0.019043 20.467 0.139489 20.467 0.286362V1.62282C20.467 1.76963 20.5893 1.88635 20.7375 1.88635H20.9375C21.0857 1.88635 21.2079 2.01437 21.2079 2.15367V7.07795C21.2079 7.22854 21.0857 7.35284 20.9375 7.35284H20.7375C20.5893 7.35284 20.467 7.48078 20.467 7.62766V8.87753C20.467 9.02062 20.5893 9.14107 20.7375 9.14107H24.3974C24.5381 9.14107 24.6678 9.02062 24.6678 8.87753V7.63895C24.6678 7.48835 24.5381 7.35655 24.3974 7.35655H24.1862C24.0454 7.35655 23.9269 7.23232 23.9269 7.09302V2.15746C23.9269 2.01437 24.0492 1.89014 24.1862 1.89014H24.3974C24.5381 1.89014 24.6678 1.77341 24.6678 1.62661V0.286362C24.6678 0.139489 24.5381 0.019043 24.3974 0.019043H20.7375Z" fill="white"/>
<path fill-rule="evenodd" clip-rule="evenodd" d="M35.8994 7.16081V7.14574C35.8994 6.99893 35.7809 6.86713 35.629 6.86713H34.8066C34.6585 6.87842 34.5362 7.00644 34.5362 7.14574V7.17589C34.5362 7.30383 34.4362 7.3942 34.3177 7.3942C34.1991 7.3942 34.0954 7.30383 34.0954 7.17589V7.18717C34.0954 7.18717 34.025 6.23091 34.0176 6.17819C33.988 5.72642 33.8768 5.33487 33.6657 5.06383C33.4767 4.82666 33.3249 4.73251 33.0434 4.65721C32.9026 4.61206 32.9026 4.54427 33.0434 4.5104C33.173 4.46525 33.3026 4.42003 33.4249 4.35231C33.636 4.24687 33.8139 4.10757 33.9843 3.9419C34.1436 3.76874 34.2769 3.56543 34.3769 3.32075H34.3843C34.5066 3.03836 34.577 2.71082 34.577 2.35698C34.577 1.63039 34.2843 1.01667 33.8583 0.674126H33.8472C33.8175 0.647766 33.799 0.632693 33.7768 0.628908C33.5175 0.42188 33.1767 0.252431 32.8063 0.139488C32.5766 0.067978 32.3358 0.0265455 32.0951 0.019043H25.8829C25.7532 0.019043 25.6235 0.139489 25.6235 0.286362V1.62282C25.6235 1.76963 25.7532 1.88635 25.8829 1.88635H26.094C26.2422 1.88635 26.3644 2.01437 26.3644 2.15367V7.07795C26.3644 7.22854 26.2459 7.35284 26.1051 7.35284H25.8865C25.7569 7.35284 25.6273 7.48078 25.6273 7.62766V8.86246C25.6273 9.01684 25.7569 9.14107 25.8865 9.14107H29.5502C29.6983 9.14107 29.8206 9.01305 29.8206 8.86246V7.62766C29.8206 7.48078 29.6983 7.35284 29.5502 7.35284H29.3501C29.202 7.35284 29.0797 7.22854 29.0797 7.07795V5.48546C29.0797 5.32736 29.1982 5.21442 29.3501 5.21442H30.2503C30.4503 5.21442 30.6207 5.22571 30.7504 5.25207C30.8726 5.28593 30.9726 5.35751 31.0504 5.44781C31.1208 5.54575 31.1615 5.71891 31.1912 5.89958C31.2319 6.08782 31.2393 6.30999 31.2393 6.5961L31.2579 7.13445C31.2579 7.43942 31.3097 7.71424 31.3986 7.98528C31.4987 8.25638 31.6468 8.49355 31.858 8.6968C32.0803 8.88882 32.3469 9.0432 32.6766 9.16364C32.9989 9.28415 33.399 9.33681 33.8583 9.33681H33.8768C34.1362 9.33681 34.3954 9.28415 34.6362 9.19379L34.6547 9.18622C34.9362 9.08835 35.166 8.95283 35.3549 8.77588C35.5364 8.61021 35.6845 8.41447 35.7734 8.16973C35.855 7.93634 35.892 7.68788 35.892 7.41678V7.14952L35.8994 7.16081ZM31.369 3.82524C31.3282 3.8516 31.3097 3.88168 31.269 3.89675C31.1171 4.0172 30.9282 4.0737 30.7763 4.0737H29.3464C29.2056 4.0737 29.076 3.94947 29.076 3.78759V2.15746C29.076 2.01437 29.2056 1.89014 29.3464 1.89014H30.7874C31.0356 1.89014 31.2467 1.99179 31.406 2.1386C31.5764 2.32684 31.6838 2.64688 31.6838 2.98192C31.6838 3.31697 31.5542 3.64829 31.3653 3.82524H31.369Z" fill="white"/>
<path fill-rule="evenodd" clip-rule="evenodd" d="M46.579 7.16081V7.14574C46.579 6.99893 46.4679 6.86713 46.3197 6.86713H45.4973C45.3491 6.87842 45.2269 7.00644 45.2269 7.14574V7.17589C45.2269 7.30383 45.1269 7.3942 45.0083 7.3942C44.8899 7.3942 44.7898 7.30383 44.7898 7.17589V7.18717C44.7898 7.18717 44.7194 6.23091 44.7083 6.17819C44.6787 5.72642 44.5713 5.33487 44.3675 5.06383C44.1749 4.82666 44.0193 4.73251 43.7489 4.65721H43.7378C43.597 4.61206 43.597 4.54427 43.7378 4.5104C43.8786 4.46525 43.9971 4.42003 44.1193 4.35231C44.3305 4.24687 44.5083 4.10757 44.6787 3.9419C44.838 3.76874 44.9714 3.56543 45.0676 3.32075C45.1862 3.03836 45.2677 2.71082 45.2677 2.35698C45.2677 1.63039 44.975 1.01667 44.5268 0.674126C44.5046 0.647766 44.4972 0.632693 44.4675 0.628908C44.1971 0.42188 43.8786 0.252431 43.5081 0.139488C43.2599 0.067978 43.0191 0.0265455 42.7895 0.019043H36.5809C36.4328 0.019043 36.3217 0.139489 36.3217 0.286362V1.62282C36.3217 1.76963 36.4328 1.88635 36.5809 1.88635H36.781C36.9329 1.88635 37.0625 2.01437 37.0625 2.15367V7.07795C37.0625 7.22854 36.944 7.35284 36.7921 7.35284H36.5809C36.4328 7.35284 36.3217 7.48078 36.3217 7.62766V8.86246C36.3217 9.01684 36.4328 9.14107 36.5809 9.14107H40.2409C40.3928 9.14107 40.5113 9.01305 40.5113 8.86246V7.62766C40.5113 7.48078 40.3928 7.35284 40.2409 7.35284H40.0408C39.8927 7.35284 39.7704 7.22854 39.7704 7.07795V5.48546C39.7704 5.32736 39.889 5.21442 40.0408 5.21442H40.9521C41.141 5.21442 41.3114 5.22571 41.4411 5.25207C41.5634 5.28593 41.6634 5.35751 41.7411 5.44781C41.8115 5.54575 41.8485 5.71891 41.8819 5.89958C41.9116 6.08782 41.9226 6.30999 41.9226 6.5961L41.9523 7.13445C41.9523 7.43942 42.0041 7.71424 42.0931 7.98528C42.1819 8.25638 42.3449 8.49355 42.5635 8.6968C42.7635 8.88882 43.0339 9.0432 43.3637 9.16364C43.6933 9.28415 44.0823 9.33681 44.5527 9.33681H44.575C44.8342 9.33681 45.1047 9.28415 45.3232 9.19379H45.3344C45.3344 9.19379 45.3455 9.19379 45.3565 9.18622C45.627 9.08835 45.8678 8.95283 46.0456 8.77588C46.2345 8.61021 46.3753 8.41447 46.4679 8.16973C46.5457 7.93634 46.5864 7.68788 46.5864 7.41678V7.14952L46.579 7.16081ZM42.0486 3.82524C42.03 3.8516 42.0004 3.88168 41.9708 3.89675C41.8115 4.0172 41.63 4.0737 41.4707 4.0737H40.052C39.8927 4.0737 39.7741 3.94947 39.7741 3.78759V2.15746C39.7741 2.01437 39.8927 1.89014 40.052 1.89014H41.4818C41.7226 1.89014 41.9412 1.99179 42.0931 2.1386C42.2746 2.32684 42.382 2.64688 42.382 2.98192C42.382 3.31697 42.2523 3.64829 42.0523 3.82524H42.0486Z" fill="white"/>
<path d="M55.9921 7.35655H55.8512C55.7104 7.35655 55.5508 7.24361 55.5027 7.10059L53.0915 0.278792C53.0427 0.131986 52.8799 0.019043 52.721 0.019043H50.55C50.4092 0.019043 50.2423 0.131986 50.1909 0.278792L50.0794 0.628908L50.0614 0.659053L47.779 7.10431C47.7309 7.2474 47.5794 7.36034 47.4165 7.36034H47.2754C47.1346 7.36034 47.005 7.48835 47.005 7.63516V8.87003C47.005 9.02434 47.1346 9.14857 47.2754 9.14857H50.3164C50.4759 9.14857 50.5981 9.02062 50.5981 8.87003V7.63516C50.5981 7.48835 50.4759 7.36034 50.3164 7.36034H50.046C49.8978 7.36034 49.8057 7.2474 49.8571 7.10431L50.0574 6.47937C50.0981 6.33256 50.2576 6.22341 50.4058 6.22341H52.0654C52.2136 6.22341 52.3765 6.33635 52.4132 6.47937L52.6135 7.10431C52.6649 7.2474 52.5835 7.36034 52.4353 7.36034H52.1576C52.0167 7.36034 51.8872 7.48835 51.8872 7.63516V8.87003C51.8872 9.02434 52.0167 9.14857 52.1576 9.14857H55.9881C56.1396 9.14857 56.2698 9.02062 56.2698 8.87003V7.63516C56.2698 7.48835 56.1396 7.36034 55.9881 7.36034L55.9921 7.35655ZM51.7617 5.09019H50.6909C50.55 5.09019 50.4719 4.97725 50.5207 4.83416L51.1615 2.71082C51.2129 2.5678 51.2837 2.5678 51.3204 2.71082L51.9613 4.83416C52.002 4.97725 51.9092 5.09019 51.7617 5.09019Z" fill="white"/>
<path d="M62.6932 10.8014C62.541 10.8014 62.4228 10.9332 62.4228 11.0762V12.409C62.4228 12.5521 62.541 12.6801 62.6932 12.6801H62.8928C63.041 12.6801 63.1525 12.808 63.1525 12.9511V17.8867C63.1525 18.0222 63.041 18.1578 62.8928 18.1578H62.6932C62.5336 18.1578 62.4228 18.2782 62.4228 18.4326V19.6712C62.4228 19.8256 62.5303 19.9461 62.6932 19.9461H66.3528C66.4823 19.9461 66.6045 19.8256 66.6045 19.6712V18.4326C66.6045 18.282 66.4823 18.1578 66.3528 18.1578H66.1418C66.001 18.1578 65.8715 18.0335 65.8715 17.8867V12.9511C65.8715 12.808 66.001 12.6801 66.1418 12.6801H66.3528C66.4823 12.6801 66.6045 12.5521 66.6045 12.409V11.0762C66.6045 10.9332 66.4823 10.8014 66.3528 10.8014H62.6932Z" fill="white"/>
<path d="M42.608 10.8014C42.4598 10.8014 42.3375 10.9332 42.3375 11.0762V14.6076C42.3375 14.7544 42.4561 14.8786 42.608 14.8786H44.1193C44.2564 14.8786 44.3787 14.7544 44.3787 14.6076V12.9473C44.3787 12.8043 44.5083 12.6763 44.6491 12.6763H45.4418C45.59 12.6801 45.7011 12.8043 45.7011 12.9473V17.8829C45.7011 18.0185 45.59 18.154 45.4418 18.154H45.2306C45.101 18.154 44.9824 18.2745 44.9824 18.4289V19.6675C44.9824 19.8218 45.1047 19.9423 45.2306 19.9423H48.9019C49.0427 19.9423 49.1722 19.8218 49.1722 19.6675V18.4289C49.1722 18.2783 49.0427 18.154 48.9019 18.154H48.6943C48.5421 18.154 48.4239 18.0185 48.4239 17.8829V12.9473C48.4239 12.8043 48.5421 12.6838 48.6943 12.6763H49.4833C49.6242 12.6763 49.7537 12.8043 49.7537 12.9473V14.6076C49.7537 14.7544 49.8759 14.8786 50.0241 14.8786H51.5241C51.6723 14.8786 51.7945 14.7544 51.7945 14.6076V11.0762C51.7945 10.9332 51.6723 10.8014 51.5241 10.8014H42.608Z" fill="white"/>
<path d="M59.4702 10.8014H52.6469C52.4987 10.8014 52.3766 10.9332 52.3766 11.0762V14.6076C52.3766 14.7544 52.4947 14.8786 52.6469 14.8786H54.1583C54.2992 14.8786 54.4173 14.7544 54.4173 14.6076V12.9473C54.4173 12.8043 54.5362 12.6763 54.677 12.6763H55.4694C55.6176 12.6801 55.7398 12.8043 55.7398 12.9473V17.8829C55.7398 18.0185 55.6176 18.154 55.4694 18.154H55.2772C55.129 18.154 55.0061 18.2745 55.0061 18.4289V19.6675C55.0061 19.8218 55.125 19.9423 55.2772 19.9423H58.9408C59.0883 19.9423 59.1998 19.8218 59.1998 19.6675V18.4289C59.1998 18.2783 59.0883 18.154 58.9408 18.154H58.7292C58.5703 18.154 58.4588 18.0185 58.4588 17.8829V12.9473C58.4588 12.8043 58.5703 12.6838 58.7292 12.6763H59.5182C59.6591 12.6763 59.7779 12.8043 59.7779 12.9473V14.6076C59.7779 14.7544 59.9074 14.8786 60.0443 14.8786H61.5557C61.6965 14.8786 61.8154 14.7544 61.8154 14.6076V11.0762C61.8154 10.9332 61.6925 10.8014 61.5557 10.8014H59.4662H59.4702Z" fill="white"/>
<path d="M17.0553 10.4927C14.3956 10.4927 12.2434 12.6838 12.2434 15.3982C12.2434 18.1126 14.3956 20.2961 17.0553 20.2961C19.7151 20.2961 21.8858 18.1088 21.8858 15.3982C21.8858 12.6876 19.7261 10.4927 17.0553 10.4927ZM17.0553 17.8077C15.7662 17.8077 14.6957 16.7234 14.6957 15.3982C14.6957 14.073 15.7662 13 17.0553 13C18.3444 13 19.4261 14.073 19.4261 15.3982C19.4261 16.7234 18.3778 17.8077 17.0553 17.8077Z" fill="white"/>
<path fill-rule="evenodd" clip-rule="evenodd" d="M32.358 17.9432V17.9281C32.358 17.7851 32.2395 17.6571 32.0877 17.6571H31.2579C31.1282 17.6571 30.9986 17.7851 30.9986 17.9281V17.9582C30.9986 18.09 30.8985 18.1803 30.7874 18.1803C30.6577 18.1803 30.5577 18.09 30.5577 17.9582V17.9771C30.5577 17.9771 30.48 17.0096 30.4688 16.9606C30.4392 16.5126 30.3466 16.121 30.128 15.85C29.9465 15.6053 29.7872 15.5262 29.5094 15.4434C29.3687 15.3982 29.3687 15.3342 29.5094 15.2928C29.6391 15.2551 29.7687 15.2025 29.8984 15.1422C30.0984 15.0406 30.2873 14.8975 30.4392 14.7243C30.5985 14.5625 30.7392 14.3479 30.8392 14.1144C30.969 13.8283 31.0393 13.497 31.0393 13.1431C31.0393 12.4165 30.7467 11.8066 30.3095 11.4603C30.2873 11.4414 30.2577 11.4301 30.2503 11.4038C29.9799 11.2042 29.6391 11.0386 29.2687 10.9332C29.0279 10.8503 28.7871 10.8165 28.5574 10.8014H22.3563C22.2082 10.8014 22.097 10.9332 22.097 11.0762V12.409C22.097 12.5521 22.2082 12.6801 22.3563 12.6801H22.5564C22.7082 12.6801 22.8157 12.808 22.8157 12.9511L22.8267 17.8867C22.8267 18.0222 22.7082 18.1578 22.5564 18.1578H22.3563C22.2082 18.1578 22.097 18.2783 22.097 18.4326V19.6637C22.097 19.8256 22.2082 19.9498 22.3563 19.9498H26.0162C26.157 19.9498 26.2755 19.8293 26.2755 19.6637V18.4326C26.2755 18.282 26.157 18.1578 26.0162 18.1578H25.805C25.6643 18.1578 25.5347 18.0222 25.5347 17.8867V16.2792C25.5347 16.1286 25.6643 16.0119 25.805 16.0119H26.7163C26.9053 16.0119 27.0683 16.0269 27.1942 16.0608C27.3238 16.0871 27.435 16.1587 27.4942 16.249C27.5646 16.3432 27.6239 16.5201 27.6425 16.7046C27.672 16.8853 27.6943 17.1112 27.6943 17.3897L27.7165 17.947C27.7165 18.2444 27.7573 18.5267 27.8573 18.7903C27.9573 19.0613 28.1055 19.2985 28.3277 19.498C28.5389 19.6938 28.8093 19.8481 29.1279 19.9611C29.4576 20.0891 29.8576 20.1456 30.3169 20.1456H30.3355C30.5948 20.1456 30.8541 20.0891 31.0949 20.0025C31.0949 20.0025 31.106 19.9987 31.1134 19.9987C31.3838 19.8896 31.6246 19.754 31.8135 19.5922C32.0024 19.4152 32.1321 19.2157 32.2247 18.9822C32.3136 18.7451 32.3544 18.4891 32.3544 18.2256V17.9507L32.358 17.9432ZM27.8276 14.6151C27.7869 14.634 27.7573 14.6641 27.7387 14.6904C27.5684 14.8071 27.3905 14.8673 27.2386 14.8598H25.8088C25.668 14.8598 25.5495 14.7431 25.5495 14.585V12.9511C25.5495 12.808 25.668 12.6801 25.8088 12.6801H27.2386C27.4979 12.6801 27.7165 12.7779 27.8684 12.9285C28.0388 13.1168 28.1499 13.4367 28.1499 13.7718C28.1499 14.1333 28.0202 14.4419 27.8276 14.6151Z" fill="white"/>
<path d="M7.46479 11.0574C7.50551 10.9256 7.67594 10.8052 7.81673 10.8052H11.7878C11.9174 10.8052 12.0471 10.937 12.0471 11.08V12.4127C12.0471 12.5558 11.9174 12.6838 11.7878 12.6838H11.5804C11.4284 12.6838 11.321 12.8118 11.321 12.9549V17.8904C11.321 18.0373 11.4284 18.1616 11.5804 18.1616H11.7878C11.9174 18.1616 12.0471 18.282 12.0471 18.4364V19.675C12.0471 19.8293 11.9174 19.9498 11.7878 19.9498H8.11674C7.9871 19.9498 7.85745 19.8293 7.85745 19.675V18.4364C7.85745 18.2858 7.9871 18.1616 8.11674 18.1616H8.32789C8.47976 18.1616 8.59832 18.026 8.59832 17.8904V12.9549C8.59832 12.8118 8.56868 12.7967 8.51681 12.9436L6.33499 19.6712C6.27571 19.8256 6.12384 19.9347 5.96456 19.9347H5.81636C5.66816 19.9347 5.5052 19.8218 5.46441 19.6712L3.45296 12.9888C3.40109 12.8382 3.37152 12.8532 3.37152 13.0038L3.36037 17.8867C3.36037 18.0222 3.4826 18.1578 3.6308 18.1578H3.66044C3.80117 18.1578 3.93087 18.2782 3.93087 18.4326V19.6637C3.93087 19.8256 3.80117 19.9498 3.66044 19.9498H0.845099C0.704375 19.9498 0.585815 19.8293 0.585815 19.6637V18.4326C0.585815 18.282 0.704375 18.1578 0.845099 18.1578H1.08589C1.21553 18.1578 1.34518 18.0222 1.34518 17.8867V12.9511C1.34518 12.808 1.21553 12.6801 1.08589 12.6801H0.845099C0.704375 12.6801 0.585815 12.5521 0.585815 12.409V11.0762C0.585815 10.9332 0.704375 10.8014 0.845099 10.8014H3.93455C3.93455 10.8014 4.0457 10.8127 4.19383 10.8127H5.2829C5.43484 10.8127 5.59413 10.9332 5.63485 11.0687L6.46464 13.5007C6.51277 13.6325 6.58313 13.6325 6.635 13.5007L7.45371 11.0687L7.46479 11.0574Z" fill="white"/>
<path d="M32.847 18.6397V19.6637C32.847 19.8181 32.9692 19.9385 33.1174 19.9385H41.3781C41.5374 19.9385 41.6485 19.8181 41.6485 19.6637V16.1324C41.6485 15.9855 41.5374 15.8575 41.3781 15.8575H39.8668C39.737 15.8575 39.6074 15.9855 39.6074 16.1286V17.7851C39.6074 17.9432 39.4889 18.0599 39.3481 18.0599H36.5772C36.4291 18.0561 36.2995 17.9432 36.2995 17.7851V16.1286C36.2995 15.9855 36.4291 15.8575 36.5772 15.8575H38.348C38.4961 15.8575 38.6183 15.737 38.6183 15.5902V14.7958C38.6183 14.634 38.4998 14.5172 38.348 14.5172H36.5772C36.4291 14.5172 36.2995 14.3968 36.2995 14.25V12.9473C36.2995 12.8043 36.4291 12.6763 36.5772 12.6763H39.3481C39.4889 12.6763 39.6074 12.8043 39.6074 12.9473V14.0692C39.6074 14.2198 39.737 14.3441 39.8668 14.3441H41.3781C41.5374 14.3441 41.6485 14.2161 41.6485 14.0692V11.0762C41.6485 10.9332 41.5374 10.8014 41.3781 10.8014H33.1174C32.9655 10.8014 32.847 10.9332 32.847 11.0762V12.409C32.847 12.5521 32.9692 12.6801 33.1174 12.6801H33.3286C33.4693 12.6801 33.5989 12.808 33.5989 12.9511V17.7889C33.5989 17.947 33.4693 18.0637 33.3286 18.0637H33.1174C32.9655 18.0637 32.847 18.1841 32.847 18.3385V18.6434V18.6397Z" fill="white"/>
</svg>
