<svg width="94" height="26" viewBox="0 0 94 26" fill="none" xmlns="http://www.w3.org/2000/svg">
<path fill-rule="evenodd" clip-rule="evenodd" d="M7.87756 22.4201L4.35564 24.3376C3.97871 24.558 3.53111 24.6902 3.05995 24.6902C1.71715 24.6902 0.621704 23.6764 0.621704 22.4201C0.621704 21.5716 1.1282 20.8333 1.87027 20.4476L7.87756 17.1637L13.9908 20.3815L23.6614 15.147C24.0383 14.9266 24.4859 14.7944 24.9571 14.7944C26.2999 14.7944 27.3953 15.8082 27.3953 17.0645C27.3953 17.913 26.8888 18.6513 26.1467 19.037L13.9908 25.66L7.87756 22.4201ZM13.9908 19.0701L26.1467 12.4582C26.8888 12.0725 27.3953 11.3341 27.3953 10.4856C27.3953 9.24037 26.2999 8.22654 24.9571 8.22654C24.4859 8.22654 24.0383 8.35878 23.6614 8.57918L13.9908 13.8136L7.87756 10.5958L1.87027 13.8797C1.1282 14.2654 0.621704 15.0038 0.621704 15.8523C0.621704 17.0975 1.71715 18.1114 3.05995 18.1114C3.53111 18.1114 3.97871 17.9791 4.35564 17.7587L7.87756 15.8413L13.9908 19.0811V19.0701ZM14.0262 0.611816L1.87027 7.22374C1.1282 7.60943 0.621704 8.35878 0.621704 9.19629C0.621704 10.4415 1.71715 11.4664 3.05995 11.4664C3.53111 11.4664 3.97871 11.3452 4.36742 11.1137L14.038 5.87931L20.1512 9.09711L26.1585 5.81319C26.9006 5.41648 27.4071 4.68917 27.4071 3.84064C27.4071 2.59539 26.3116 1.57054 24.9688 1.57054C24.4977 1.57054 24.0501 1.70278 23.6732 1.92318L20.1512 3.85166L14.038 0.611816H14.0262ZM34.6394 11.4884H36.7007V9.03099H37.8668C39.6572 9.03099 40.6702 8.27062 40.6702 6.51846C40.6702 4.76631 39.4923 4.08307 37.7961 4.08307H34.6512V11.4884H34.6394ZM36.7007 5.63688H37.0423C37.8433 5.63688 38.5264 5.63687 38.5264 6.58458C38.5264 7.53229 37.7961 7.48821 37.0423 7.48821H36.7007V5.63688ZM47.5256 8.97589C47.5256 7.25679 46.0179 6.28705 44.2864 6.28705C42.5548 6.28705 41.0471 7.25679 41.0471 8.97589C41.0471 10.695 42.5666 11.6537 44.2864 11.6537C46.0061 11.6537 47.5256 10.684 47.5256 8.97589ZM43.0496 8.97589C43.0496 8.35878 43.4972 7.84085 44.2746 7.84085C45.052 7.84085 45.4996 8.35878 45.4996 8.97589C45.4996 9.59301 45.052 10.1109 44.2746 10.1109C43.4972 10.1109 43.0496 9.61505 43.0496 8.97589ZM50.3407 6.45235H48.4326V11.4884H50.3407V9.44975C50.3407 8.5902 50.5999 7.92901 51.66 7.92901C51.9545 7.92901 52.2018 7.96207 52.4727 8.09431V6.37521H52.1076C51.3655 6.37521 50.7295 6.6507 50.3643 7.26782H50.3407V6.44133V6.45235ZM55.7709 7.92901H56.8545V6.45235H55.7709V4.94262H53.8627V6.45235H53.2384V7.92901H53.8627V11.4994H55.7709V7.92901ZM67.0433 8.97589C67.0433 7.25679 65.5356 6.28705 63.8041 6.28705C62.0726 6.28705 60.5649 7.25679 60.5649 8.97589C60.5649 10.695 62.0844 11.6537 63.8041 11.6537C65.5238 11.6537 67.0433 10.684 67.0433 8.97589ZM62.5673 8.97589C62.5673 8.35878 63.0149 7.84085 63.7923 7.84085C64.5697 7.84085 65.0173 8.35878 65.0173 8.97589C65.0173 9.59301 64.5697 10.1109 63.7923 10.1109C63.0149 10.1109 62.5673 9.61505 62.5673 8.97589ZM70.3179 7.92901H71.6489V6.45235H70.3179V5.63688C70.3179 5.06384 70.4828 4.78835 70.9775 4.78835C71.2249 4.78835 71.4251 4.86548 71.6489 4.95364V3.41086C71.3898 3.28964 71.1189 3.23454 70.8244 3.23454C70.1059 3.23454 69.4227 3.52106 68.9515 4.03899C68.4215 4.60101 68.4097 5.10792 68.4097 5.80217V6.44133H67.7383V7.91799H68.4097V11.4884H70.3179V7.91799V7.92901ZM38.7267 18.2767C39.8457 18.0893 40.4582 17.2077 40.4582 16.1829C40.4582 14.607 39.2685 13.9018 37.7137 13.9018H34.6394V21.3071H36.7007V18.464H36.7243L38.6678 21.3071H41.2238L38.7385 18.2767H38.7267ZM36.6889 15.3784H36.8892C37.5606 15.3784 38.3144 15.4997 38.3144 16.3041C38.3144 17.1086 37.5606 17.2298 36.8892 17.2298H36.6889V15.3784ZM47.8672 18.7946C47.8672 17.0755 46.3595 16.1057 44.6279 16.1057C42.8964 16.1057 41.3769 17.0755 41.3769 18.7946C41.3769 20.5137 42.8964 21.4724 44.6279 21.4724C46.3595 21.4724 47.8672 20.5027 47.8672 18.7946ZM43.3911 18.7946C43.3911 18.1775 43.8388 17.6595 44.6162 17.6595C45.3936 17.6595 45.8412 18.1775 45.8412 18.7946C45.8412 19.4117 45.3936 19.9296 44.6162 19.9296C43.8388 19.9296 43.3911 19.4337 43.3911 18.7946ZM51.1299 17.7477H52.2136V16.271H51.1299V14.7613H49.2217V16.271H48.5975V17.7477H49.2217V21.3181H51.1299V17.7477ZM55.7473 17.7477H56.831V16.271H55.7473V14.7613H53.8391V16.271H53.2148V17.7477H53.8391V21.3181H55.7473V17.7477ZM63.2858 18.9048C63.2858 17.1857 62.2022 16.1057 60.3411 16.1057C58.586 16.1057 57.361 17.1196 57.361 18.7946C57.361 20.4696 58.692 21.4724 60.4824 21.4724C61.7075 21.4724 62.9207 20.9325 63.2269 19.7423H61.3894C61.1774 20.0729 60.8829 20.2051 60.4707 20.2051C59.6815 20.2051 59.2692 19.8084 59.2692 19.0811H63.2858V18.8938V18.9048ZM59.2928 18.0563C59.4106 17.5383 59.8699 17.2628 60.4235 17.2628C60.9418 17.2628 61.413 17.5824 61.5072 18.0563H59.2928ZM66.3837 16.271H64.4755V21.3071H66.3837V19.2684C66.3837 18.4089 66.6428 17.7477 67.703 17.7477C67.9974 17.7477 68.2448 17.7808 68.5157 17.913V16.1939H68.1505C67.4085 16.1939 66.7724 16.4694 66.4073 17.0865H66.3837V16.26V16.271ZM73.5924 21.3071H75.5006V13.1524H73.5924V16.7559C73.192 16.3151 72.5441 16.0947 71.9198 16.0947C70.3179 16.0947 69.2224 17.329 69.2224 18.7726C69.2224 20.2162 70.3414 21.4614 71.9434 21.4614C72.5794 21.4614 73.2391 21.23 73.5689 20.7341H73.5924V21.2961V21.3071ZM71.2013 18.7946C71.2013 18.1775 71.6489 17.6595 72.4263 17.6595C73.2037 17.6595 73.6513 18.1775 73.6513 18.7946C73.6513 19.4117 73.2037 19.9296 72.4263 19.9296C71.6489 19.9296 71.2013 19.4337 71.2013 18.7946ZM82.9096 16.271H81.0014V16.7559C80.6009 16.3151 79.9531 16.0947 79.3288 16.0947C77.7386 16.0947 76.6314 17.329 76.6314 18.7726C76.6314 20.2162 77.7504 21.4614 79.3524 21.4614C79.9884 21.4614 80.648 21.23 80.9778 20.7341H81.0014V21.2961H82.9096V16.26V16.271ZM78.6103 18.7946C78.6103 18.1775 79.0579 17.6595 79.8353 17.6595C80.6127 17.6595 81.0603 18.1775 81.0603 18.7946C81.0603 19.4117 80.6127 19.9296 79.8353 19.9296C79.0579 19.9296 78.6103 19.4337 78.6103 18.7946ZM86.1959 16.271H84.2878V21.3071H86.1959V18.9048C86.1959 18.3428 86.1959 17.4943 87.044 17.4943C87.8921 17.4943 87.8921 18.3428 87.8921 18.9048V21.3071H89.8003V18.9048C89.8003 18.3097 89.8356 17.5273 90.7073 17.5273C91.5083 17.5273 91.4965 18.3869 91.4965 18.9048V21.3071H93.4047V18.1003C93.4047 16.9433 92.9335 16.1057 91.5671 16.1057C90.8369 16.1057 90.1066 16.4363 89.7414 17.0645C89.3527 16.3923 88.6813 16.1057 87.9039 16.1057C87.2089 16.1057 86.6553 16.3372 86.1959 16.8992H86.1724V16.271H86.1959Z" fill="white"/>
</svg>
