<svg width="58" height="13" viewBox="0 0 58 13" fill="none" xmlns="http://www.w3.org/2000/svg">
<path d="M6.65059 0.773926C3.26421 0.773926 0.517456 3.28696 0.517456 6.39668C0.517456 9.50641 3.26421 12.0194 6.65059 12.0194C10.037 12.0194 12.7962 9.50641 12.7962 6.39668C12.7962 3.28696 10.0495 0.773926 6.65059 0.773926ZM6.65059 11.3768C3.64047 11.3768 1.2073 9.15069 1.2073 6.39668C1.2073 3.64268 3.64047 1.41653 6.65059 1.41653C9.66071 1.41653 12.0939 3.64268 12.0939 6.39668C12.0939 9.15069 9.66071 11.3768 6.65059 11.3768ZM11.1156 8.65726L10.2251 7.70483C10.2251 7.70483 10.2 7.68189 10.1875 7.68189C10.1373 7.65894 10.0871 7.65894 10.0495 7.68189C9.91154 7.73926 9.74848 7.73926 9.61052 7.67041C9.4851 7.60156 9.40986 7.49828 9.38477 7.37206C9.32206 7.06223 9.1214 6.78684 8.80784 6.61471L8.40648 6.40816L10.6766 5.21476L10.4007 4.76723L7.85463 6.10981L7.55363 5.94916V5.62786L10.0997 4.28529L9.82375 3.83776L7.55363 5.03115V4.60658C7.55363 4.27381 7.39058 3.97545 7.1272 3.7689C7.02686 3.68858 6.96414 3.57383 6.96414 3.43613C6.96414 3.28695 7.0394 3.16073 7.16482 3.08041C7.20245 3.05746 7.22752 3.01156 7.22752 2.96566C7.22752 2.95418 7.22752 2.93123 7.22752 2.91976L6.77602 1.73783C6.77602 1.73783 6.72584 1.68045 6.68821 1.68045C6.65059 1.68045 6.61295 1.70341 6.60041 1.73783L6.14891 2.91976C6.14891 2.91976 6.14891 2.95418 6.14891 2.96566C6.14891 3.01156 6.17398 3.05746 6.21161 3.08041C6.33703 3.16073 6.41229 3.28695 6.41229 3.43613C6.41229 3.57383 6.34957 3.68858 6.24923 3.7689C5.98585 3.97545 5.8228 4.27381 5.8228 4.60658V5.03115L3.55268 3.83776L3.27675 4.28529L5.8228 5.62786V5.94916L5.5218 6.10981L2.97575 4.76723L2.69982 5.21476L4.96995 6.40816L4.56859 6.61471C4.25503 6.78684 4.05437 7.06223 3.99166 7.37206C3.96657 7.48681 3.89133 7.60156 3.76591 7.67041C3.62794 7.73926 3.46489 7.75074 3.32693 7.68189C3.27676 7.65894 3.22657 7.65894 3.18894 7.68189C3.1764 7.68189 3.16386 7.69336 3.15132 7.70483L2.26083 8.65726C2.26083 8.65726 2.23575 8.72611 2.26083 8.76053C2.28592 8.79496 2.32353 8.80643 2.36115 8.80643L3.70318 8.57694C3.70318 8.57694 3.74081 8.57694 3.75335 8.56546C3.80352 8.54251 3.8286 8.49661 3.8286 8.45071C3.8286 8.31301 3.92894 8.18678 4.06691 8.10646C4.19233 8.03761 4.3303 8.03761 4.46827 8.07203C4.79436 8.17531 5.15807 8.15237 5.47162 7.98024L5.87298 7.77369V10.172H6.43736V7.47534L6.75091 7.31469L7.05195 7.47534V10.172H7.61632V7.77369L8.01768 7.98024C8.33123 8.15237 8.70748 8.17531 9.02104 8.07203C9.14646 8.02613 9.29697 8.03761 9.4224 8.10646C9.56036 8.17531 9.64816 8.31301 9.6607 8.45071C9.6607 8.49661 9.68578 8.54251 9.73595 8.56546C9.74849 8.56546 9.76105 8.57694 9.78613 8.57694L11.1281 8.80643C11.1281 8.80643 11.2034 8.80643 11.2285 8.76053C11.2536 8.72611 11.241 8.69169 11.2285 8.65726M5.89805 7.17698L5.14552 7.56714C4.99501 7.64746 4.80689 7.60156 4.73164 7.46386C4.64385 7.32616 4.69401 7.15403 4.84452 7.08518L5.59705 6.68356L5.89805 6.84421V7.16551V7.17698ZM6.46247 4.52626C6.46247 4.36561 6.60042 4.25086 6.76346 4.25086C6.92651 4.25086 7.06446 4.37708 7.06446 4.52626V5.31803L6.76346 5.47869L6.44991 5.31803V4.52626H6.46247ZM7.1272 6.58029L6.77602 6.76388L6.42484 6.58029V6.21309L6.77602 6.02948L7.1272 6.21309V6.58029ZM8.80784 7.47534C8.72005 7.61304 8.53189 7.65893 8.39393 7.57861L7.64143 7.17698V6.85569L7.94243 6.69504L8.69497 7.09666C8.84547 7.17699 8.89564 7.34911 8.80784 7.47534ZM47.6509 1.50833H49.5573V11.285H47.6509V6.99339H45.6065V11.285H43.7378V1.50833H45.6065V5.26066H47.6509V1.50833ZM20.5849 1.50833L18.4277 7.31469V11.2965H16.3457V7.50976L14.2637 1.5198H16.1325L17.4117 5.32951L18.829 1.5198H20.5724L20.5849 1.50833ZM32.3244 1.50833H35.3721V11.285H33.403V3.81481L32.1363 10.3326H30.5685L29.1387 3.91809V11.285H27.458V1.50833H30.3804L31.4214 6.15571L32.3118 1.50833H32.3244ZM55.264 1.50833H52.3668L50.4102 11.285H52.141L52.5549 9.01299H54.7122L55.1135 11.285H57.0199L55.2515 1.50833H55.264ZM52.8559 7.38354L53.6586 3.01156L54.4362 7.38354H52.8685H52.8559ZM38.1816 1.50833L36.225 11.285H37.9558L38.3697 9.01299H40.527L40.9283 11.285H42.8347L41.0663 1.50833H38.169H38.1816ZM38.6707 7.38354L39.4734 3.01156L40.251 7.38354H38.6833H38.6707ZM21.9269 1.50833L19.9704 11.285H21.7012L22.1151 9.01299H24.2723L24.6737 11.285H26.5801L24.8116 1.50833H21.9144H21.9269ZM22.4161 7.38354L23.2188 3.01156L23.9964 7.38354H22.4286H22.4161Z" fill="white"/>
</svg>
