<svg width="63" height="34" viewBox="0 0 63 34" fill="none" xmlns="http://www.w3.org/2000/svg">
<path d="M50.2015 11.8958V21.8071H48.3612C47.8832 21.8071 47.3454 21.5135 47.1064 21.1964L42.8045 15.3248V21.8188H40.522V13.857C40.522 13.2111 40.3906 12.9292 40.1277 12.8705L39.6019 12.7531L39.7573 11.9076H42.3623C42.8523 11.9076 43.4498 12.2247 43.7485 12.6474L47.919 18.3428V11.9193H50.2015V11.8958ZM60.1677 11.8958V18.3194L55.9971 12.6239C55.6984 12.2012 55.1009 11.8841 54.611 11.8841H52.0059L51.8505 12.7296L52.3763 12.847C52.6392 12.9058 52.7826 13.1876 52.7707 13.8335V21.7953H55.0531V15.3014L59.3551 21.1729C59.5821 21.49 60.1318 21.7836 60.6098 21.7836H62.4501V11.8724H60.1677V11.8958ZM0 19.6228C0 25.9524 6.56048 33.8555 16.3235 33.8555C26.0866 33.8555 33.3163 26.3752 33.3163 17.1568C33.3163 7.9384 25.7042 0.458008 16.3235 0.458008C11.0895 0.458008 6.41709 2.78315 3.29817 6.43528C2.68872 7.15161 2.59312 7.46867 3.35792 7.46867H23.7086C23.9954 7.46867 24.3658 7.66831 24.5212 7.90317L27.3055 12.1777C27.4608 12.4243 27.5445 12.847 27.4847 13.1289L24.8558 25.741C24.796 26.0229 24.5092 26.246 24.2224 26.246H19.6576C19.3708 26.246 19.0003 26.0463 18.845 25.8115L13.2644 17.5326L11.5675 25.7528C11.5077 26.0346 11.2209 26.2577 10.9341 26.2577H7.58817C7.30138 26.2577 7.11018 26.0229 7.15798 25.7528L9.58381 14.0096C9.64355 13.7278 9.93035 13.5047 10.2171 13.5047H14.782C15.0688 13.5047 15.4392 13.7043 15.5946 13.9392L21.1871 22.2298L23.3979 11.3791H8.93851C4.36171 11.3791 0 13.4107 0 19.6346" fill="white"/>
</svg>
