<svg width="36" height="12" viewBox="0 0 36 12" fill="none" xmlns="http://www.w3.org/2000/svg">
<path d="M26.2342 2.79438C24.9299 2.79438 23.7729 3.46275 23.0998 4.48121C23.1734 4.06746 22.9946 3.6431 22.616 3.42031L21.743 2.90047C21.2591 2.62464 20.6491 2.78377 20.3651 3.27178C20.0811 3.74919 20.2494 4.37512 20.7332 4.66156L21.6167 5.17079C21.7745 5.25566 21.9428 5.30871 22.1216 5.30871C22.374 5.30871 22.616 5.21322 22.8053 5.04348C22.5949 5.52088 22.4792 6.04073 22.4792 6.603V11.2285H24.4882V6.58178C24.4882 5.60575 25.277 4.78887 26.2552 4.78887C27.2334 4.78887 28.0117 5.60575 28.0117 6.58178V6.91066H30.0312V6.603C30.0312 4.50242 28.3378 2.80499 26.2552 2.79438M33.6284 7.8973C32.6923 7.8973 31.9455 8.66114 31.9455 9.59473C31.9455 10.5283 32.7028 11.2922 33.6284 11.2922C34.554 11.2922 35.3113 10.5283 35.3113 9.59473C35.3113 8.66114 34.5645 7.8973 33.6284 7.8973ZM18.1878 7.67451C18.1878 8.66114 17.399 9.55229 16.4208 9.55229C15.4531 9.55229 14.6643 8.66114 14.6643 7.67451V4.38572C14.78 4.81008 15.1692 5.11774 15.6319 5.11774H17.2728C17.8302 5.11774 18.2825 4.66156 18.2825 4.09928C18.2825 3.53701 17.8302 3.08082 17.2728 3.08082H15.6319C15.1692 3.08082 14.78 3.39909 14.6643 3.81284V0.18457L12.6448 1.23486V7.62146C12.6448 9.72204 14.3382 11.4301 16.4208 11.4301C18.5034 11.4301 20.1968 9.73265 20.1968 7.62146V7.17589H18.1878V7.67451ZM33.6284 6.15743C34.5645 6.15743 35.3113 5.39357 35.3113 4.45998C35.3113 3.52639 34.5645 2.76255 33.6284 2.76255C32.6923 2.76255 31.9455 3.52639 31.9455 4.45998C31.9455 5.39357 32.7028 6.15743 33.6284 6.15743ZM6.81779 2.79438C5.51355 2.79438 4.35655 3.46275 3.68339 4.48121C3.75702 4.06746 3.57822 3.6431 3.19956 3.42031L2.32656 2.90047C1.84273 2.62464 1.23268 2.78377 0.948693 3.27178C0.675223 3.74919 0.832992 4.37512 1.31682 4.66156L2.18983 5.17079C2.3476 5.25566 2.52641 5.30871 2.6947 5.30871C2.94713 5.30871 3.18904 5.21322 3.37837 5.04348C3.16801 5.52088 3.04179 6.04073 3.04179 6.603V11.2285H5.06127V6.58178C5.06127 5.60575 5.85012 4.78887 6.81779 4.78887C7.78545 4.78887 8.57431 5.60575 8.57431 6.58178V11.2285H10.5938V6.603C10.5938 4.50242 8.90037 2.80499 6.81779 2.79438Z" fill="white"/>
</svg>
