<svg width="40" height="16" viewBox="0 0 40 16" fill="none" xmlns="http://www.w3.org/2000/svg">
<path d="M12.5776 2.85311H10.1973L10.0355 3.61552H10.4899C10.5837 3.61552 10.6177 3.67732 10.6177 3.7546C10.6177 3.80096 10.6007 3.85507 10.5922 3.90918L10.1207 5.91819C10.1036 5.99541 10.0951 6.06495 10.0951 6.13707C10.0951 6.76815 10.7825 7.06432 11.2966 7.06432C11.8107 7.06432 12.3958 7.05664 12.9725 6.51828C13.1514 6.8763 13.6257 7.04889 14.3387 7.04889C15.4549 7.04889 15.8071 6.38695 15.9775 5.68633L16.1054 5.14803H15.3158L15.1425 5.87183C15.117 5.97998 15.0743 6.09846 14.8414 6.09846C14.7221 6.09846 14.671 6.03667 14.671 5.94395C14.671 5.92077 14.671 5.89759 14.6795 5.87441L15.3754 2.91497H13.6229L13.0207 5.47771C12.8843 6.05468 12.5123 6.15515 12.2226 6.15515C12.0692 6.15515 11.8874 6.02892 11.8874 5.80481C11.8874 5.7662 11.8959 5.72759 11.9045 5.68891L12.5748 2.85311H12.5776Z" fill="white"/>
<path d="M16.1168 6.92517H17.8579L18.4515 4.35468C18.5453 3.95029 18.9345 3.69267 19.2497 3.69267C19.3945 3.69267 19.5678 3.80863 19.5678 4.04301C19.5678 4.08162 19.5678 4.12023 19.5593 4.15891L19.156 5.864C19.1304 5.97215 19.1219 6.06746 19.1219 6.16017C19.1219 6.76033 19.6388 7.04881 20.5478 7.04881C21.664 7.04881 22.0162 6.38687 22.1867 5.68625L22.3145 5.14795H21.5249L21.3545 5.87169C21.3261 5.9799 21.2834 6.09838 21.0534 6.09838C20.934 6.09838 20.8829 6.03653 20.8829 5.94381C20.8829 5.92063 20.8829 5.89745 20.8914 5.87427L21.3629 3.84983C21.38 3.77254 21.3885 3.69525 21.3885 3.62313C21.3885 3.02304 20.7012 2.78092 20.1785 2.78092C19.6275 2.78092 18.9997 2.96893 18.5538 3.53558L18.7668 2.85045H16.398L16.2332 3.60511H16.6962C16.7814 3.60511 16.8411 3.63604 16.8411 3.72876C16.8411 3.75194 16.8411 3.77512 16.8325 3.7983L16.1111 6.92258L16.1168 6.92517Z" fill="white"/>
<path d="M22.3826 6.92517H24.1352L24.4448 5.53943L25.1152 5.15054C25.2003 5.35141 25.2856 5.50856 25.348 5.63214C25.8281 6.59801 26.0695 7.04875 27.1176 7.04875C28.2339 7.04875 28.586 6.38681 28.7565 5.68625L28.8843 5.14795H28.0947L27.9214 5.87169C27.8959 5.97991 27.8504 6.09838 27.6203 6.09838C27.3902 6.09838 27.1716 5.53684 26.8989 4.92384L26.5978 4.2619L28.4355 3.19557L28.5122 2.83754H25.7656L25.5951 3.62313H26.007C26.0666 3.63088 26.1007 3.64631 26.1007 3.69267C26.1007 3.86526 25.8082 3.98891 24.6578 4.6431L25.51 0.998535L23.0445 1.1402L22.8911 1.81757H23.3285C23.4734 1.81757 23.5273 1.88711 23.5273 1.97215C23.5273 2.00307 23.5189 2.04168 23.5103 2.07261L22.3855 6.92517H22.3826Z" fill="white"/>
<path d="M29.637 3.78797C30.4266 7.0977 30.5033 7.37843 30.5033 7.40936C30.1681 7.99402 29.7989 8.2825 29.3785 8.2825C29.2762 8.2825 29.2081 8.25933 29.174 8.22071C29.4751 8.09707 29.654 7.92448 29.654 7.5897C29.654 7.28571 29.4041 7.13895 29.0518 7.13895C28.4668 7.13895 27.9441 7.48923 27.9441 8.14343C27.9441 8.67914 28.5008 8.92127 29.1144 8.92127C29.8188 8.92127 30.5487 8.6251 30.9862 8.0172L34.3975 3.23418L34.3551 2.84529H32.5768L32.4291 3.5922H32.9347C33.0824 3.5922 33.1222 3.62313 33.1222 3.67724C33.1222 3.73903 33.0882 3.80857 31.9462 5.42095L31.7758 5.77897V5.4132L31.1651 2.84271H29.1456L29.0007 3.58962L29.2167 3.58194C29.4126 3.57419 29.5773 3.62055 29.637 3.78539V3.78797Z" fill="white"/>
<path d="M4.34901 8.99861C4.85458 8.99861 5.33745 8.64826 5.33745 8.09453C5.33745 7.46352 4.47113 7.36305 3.86046 7.36305C3.07083 7.36305 2.02274 7.57167 1.66199 8.39845C1.54268 8.67151 1.46318 8.98311 1.41488 9.24067H0.699072L0.537205 9.93354H1.25014L0.0117188 15.2034H1.76427L2.99982 9.93096H3.97978L4.14165 9.23815H3.16176C3.17024 9.20722 3.17024 9.16861 3.17024 9.13768C3.17024 9.08358 3.16176 9.02179 3.16176 8.94192C3.16176 8.69211 3.22989 7.97605 3.85759 7.97605C3.90021 7.97605 3.90876 7.97605 3.9258 7.99149C3.7809 8.13056 3.7014 8.31858 3.7014 8.49892C3.7014 8.81059 3.96842 8.99861 4.3462 8.99861H4.34901Z" fill="white"/>
<path d="M6.94798 12.1977C6.92239 12.3059 6.87697 12.4218 6.64689 12.4218C6.52758 12.4218 6.4736 12.3599 6.4736 12.2672C6.4736 12.244 6.4736 12.2209 6.48215 12.1977L8.50165 3.60784H9.48161L9.64348 2.91497H8.66639C8.67494 2.88411 8.67494 2.84543 8.67494 2.81199C8.67494 2.75788 8.66639 2.69609 8.66639 2.6188C8.66639 2.36892 8.7346 1.65294 9.3623 1.65294C9.40492 1.65294 9.41347 1.65294 9.4305 1.66837C9.28561 1.80745 9.20611 1.99547 9.20611 2.17322C9.20611 2.48482 9.47306 2.67291 9.84803 2.67291C10.3565 2.67291 10.8365 2.32257 10.8365 1.76884C10.8365 1.13776 9.97015 1.03735 9.35949 1.03735C8.56986 1.03735 7.52176 1.24597 7.16102 2.07275C7.04171 2.34574 6.96501 2.65741 6.91391 2.91497H6.20097L6.03904 3.60784H6.75197L4.73528 12.1899C4.70976 12.2904 4.70121 12.3831 4.70121 12.4784C4.70121 13.0863 5.23237 13.3747 6.14412 13.3747C7.26042 13.3747 7.61262 12.7128 7.78304 12.0122L7.9137 11.474H7.12407L6.95366 12.2003L6.94798 12.1977Z" fill="white"/>
<path d="M13.1655 12.1976C13.14 12.3058 13.0974 12.4217 12.8645 12.4217C12.7423 12.4217 12.6912 12.3598 12.6912 12.2671C12.6912 12.244 12.6912 12.2208 12.6998 12.1976L13.4127 9.15318H12.4157L11.9329 9.86148C11.6573 9.33087 11.4528 9.09132 10.6433 9.09132C9.13222 9.09132 8.13523 10.4693 8.13523 11.9349C8.13523 12.7436 8.52155 13.3824 9.50144 13.3824C10.1036 13.3824 10.4558 13.2511 10.987 12.6818C11.0381 13.1171 11.5692 13.3747 12.2651 13.3747C13.3815 13.3747 13.8274 12.7127 13.9921 12.0122L14.1199 11.4739H13.3303L13.1571 12.2002L13.1655 12.1976ZM11.2171 11.2627C11.0807 11.8473 10.8393 12.6097 10.3053 12.6097C10.1179 12.6097 9.97015 12.4706 9.97015 12.0637C9.97015 11.8679 10.0042 11.6129 10.0809 11.2781C10.3195 10.2581 10.578 9.83572 10.9927 9.83572C11.2568 9.83572 11.362 10.0006 11.362 10.3122C11.362 10.5466 11.3023 10.866 11.2171 11.2627Z" fill="white"/>
<path d="M17.2842 9.16864L17.1222 9.92331H17.6989C17.7756 9.92331 17.7926 9.95417 17.7926 10.0006C17.7926 10.0778 17.733 10.204 16.6082 12.1513L16.5059 12.3856V12.0817L16.2218 9.16864H14.1171L13.9552 9.92331H14.2307C14.3955 9.92331 14.5574 9.95417 14.5829 10.1268L14.9948 13.2485H16.7388L19.0139 9.56528L18.9884 9.16864H17.2842Z" fill="white"/>
<path d="M21.6868 9.09132C20.2865 9.09132 19.0679 9.79194 18.7328 11.2343C18.6788 11.4352 18.6618 11.6232 18.6618 11.7958C18.6618 12.8853 19.5565 13.3696 20.5847 13.3696C21.9254 13.3696 23.2064 12.6535 23.5388 11.2369C23.5813 11.0334 23.6069 10.8479 23.6069 10.6754C23.6069 9.63995 22.8173 9.0939 21.6839 9.0939L21.6868 9.09132ZM21.6612 11.2395C21.4738 12.0663 21.2323 12.6329 20.8119 12.6329C20.562 12.6329 20.4597 12.4397 20.4597 12.1023C20.4597 11.8757 20.5108 11.5743 20.5875 11.2369C20.7864 10.4204 21.0449 9.82029 21.4823 9.82029C21.7152 9.82029 21.8004 10.0083 21.8004 10.3199C21.8004 10.562 21.7493 10.8737 21.6641 11.2395H21.6612Z" fill="white"/>
<path d="M29.0434 12.1976C29.0178 12.3058 28.9752 12.4217 28.7423 12.4217C28.623 12.4217 28.5719 12.3599 28.5719 12.2672C28.5719 12.244 28.5719 12.2208 28.5804 12.1976L29.2763 9.23818H27.5238L26.9216 11.8009C26.7853 12.3779 26.416 12.4784 26.1234 12.4784C25.97 12.4784 25.7883 12.3547 25.7883 12.1281C25.7883 12.0894 25.7968 12.0508 25.8053 12.0121L26.4757 9.17633H24.0982L23.9364 9.93874H24.3908C24.4846 9.93874 24.5215 10.0005 24.5215 10.0778C24.5215 10.1242 24.5044 10.1783 24.4959 10.235L24.0244 12.244C24.0074 12.3212 23.9988 12.3933 23.9988 12.4629C23.9988 13.094 24.6862 13.3901 25.2032 13.3901C25.6917 13.3901 26.3024 13.3824 26.879 12.8441C27.058 13.2021 27.5323 13.3721 28.2452 13.3721C29.3615 13.3721 29.7137 12.7102 29.887 12.0096L30.0148 11.4712H29.2224L29.0519 12.1976H29.0434Z" fill="white"/>
<path d="M33.8806 9.10685C33.6731 9.10685 33.1079 9.19182 32.5484 9.85376L32.7899 9.16864H30.4096L30.2449 9.93105H30.5119C30.6937 9.93105 30.8215 9.93105 30.8215 10.1011C30.8215 10.1319 30.813 10.1783 30.8044 10.2246L30.1085 13.2459H31.8696L32.4122 10.8789C32.54 10.3251 33.1849 9.85118 33.3043 9.85118C33.1679 9.97741 33.0543 10.1165 33.0543 10.3663C33.0543 10.6703 33.2782 10.8583 33.645 10.8583C34.2553 10.8583 34.7527 10.3972 34.7527 9.79966C34.7527 9.33348 34.3493 9.10685 33.878 9.10685H33.8806Z" fill="white"/>
<path d="M38.4991 10.6342C38.8255 10.6342 39.2661 10.423 39.2661 9.90271C39.2661 9.27944 38.3033 9.05274 37.4711 9.05274C35.9256 9.05274 34.8604 9.67608 34.8604 10.7656C34.8604 11.4739 35.5653 11.6387 36.2356 11.7701C37.1272 11.9478 37.2662 12.0663 37.2662 12.1822C37.2662 12.3599 37.0247 12.687 36.3831 12.687C35.9713 12.687 35.6612 12.6252 35.5594 12.5325C35.7298 12.4011 35.7976 12.2595 35.7976 12.1436C35.7976 11.9246 35.5477 11.7932 35.2755 11.7932C34.9485 11.7932 34.5086 12.0045 34.5086 12.5248C34.5086 13.1481 35.4713 13.3722 36.3035 13.3722C37.9705 13.3722 38.9221 12.5557 38.9221 11.6439C38.9221 11.036 38.3627 10.8351 38.0984 10.7784C37.1272 10.575 36.5195 10.4513 36.5195 10.2015C36.5195 10.0083 36.8119 9.73528 37.3941 9.73528C37.883 9.73528 38.1154 9.80482 38.2178 9.89244C38.0475 10.0238 37.9763 10.1654 37.9763 10.2813C37.9763 10.5003 38.2178 10.6317 38.4991 10.6317V10.6342Z" fill="white"/>
<path d="M3.05949 5.73527C3.02542 5.87435 2.94018 6.04694 2.7073 6.04694H2.22724L2.05395 6.81703H5.20679L5.37153 6.06237C5.33746 6.05462 5.29484 6.05462 4.88299 6.05462C4.79781 6.05462 4.64156 6.04694 4.64156 5.91554C4.64156 5.90011 4.65011 5.88462 4.65011 5.86918L4.76942 5.37983H5.65278L5.826 4.63285H4.93984L5.69533 1.42876H4.2269L0.687731 4.63027L0.514506 5.37725H3.14467L3.05949 5.73527ZM1.79836 4.63027L3.43159 3.10293L3.85193 2.62125L3.69855 3.08749L3.33787 4.63027H1.79548H1.79836Z" fill="white"/>
</svg>
