<svg width="46" height="26" viewBox="0 0 46 26" fill="none" xmlns="http://www.w3.org/2000/svg">
<path d="M37.2632 16.6167H45.1704V9.34666H37.2632V16.6167ZM40.4203 10.5536H43.9134V11.7463H42.8757V15.3956H41.458V11.7463H40.4203V10.5536ZM38.5202 10.5536H39.9379V15.3956H38.5202V10.5536ZM24.1822 12.3285L24.6937 13.8052H23.6706L24.1822 12.3285ZM14.9158 16.6167H36.0063V9.34666H14.9158V16.6167ZM21.2882 15.4098H19.8851V13.3225L18.9936 15.4098H18.3797L17.5759 13.4645V15.4098H16.1727V10.5536H17.7805L18.7013 12.9107L19.6805 10.5536H21.2882V15.4098ZM25.293 15.4098L25.103 14.9128H23.2468L23.0421 15.4098H21.5367L23.4514 10.5678H24.9276V10.6246L26.7984 15.4098H25.2783H25.293ZM29.9261 15.4098L28.4207 13.5213V15.4098H27.003V10.5536H28.4207V12.3427L29.8238 10.5536H31.6069L29.6192 12.8539L31.7823 15.4098H29.9408H29.9261ZM34.7639 11.7606H33.2731V12.3853H34.6909V13.5781H33.2731V14.217H34.7639V15.4098H31.8554V10.5536H34.7639V11.7463V11.7606ZM33.7701 3.83733L34.2816 5.31405H33.2585L33.7701 3.83733ZM3.28168 3.11316C3.85169 3.11316 4.11474 3.28355 4.11474 3.66693C4.11474 4.05031 3.85169 4.22071 3.28168 4.22071H3.19399V3.12736H3.28168M8.66026 3.26935C9.33258 3.26935 9.93182 3.80893 9.93182 4.4195C9.93182 5.15787 9.37643 5.72584 8.66026 5.72584C7.94408 5.72584 7.38869 5.14367 7.38869 4.4195C7.38869 3.80893 7.98793 3.26935 8.66026 3.26935ZM28.6838 3.26935C29.473 3.26935 29.97 3.73793 29.97 4.4905C29.97 5.24306 29.4877 5.71164 28.6692 5.71164H28.4792V3.25516H28.6838M0.577759 8.12552H45.1849V0.855469H0.577759V8.12552ZM4.30475 6.90438L3.23783 5.28566V6.90438H1.8201V2.06241H3.77861C4.87479 2.06241 5.53247 2.63039 5.53247 3.58174C5.53247 4.26331 5.15247 4.78868 4.53861 4.95907L6.07329 6.90438H4.30475ZM8.66026 7.06057C7.06714 7.06057 5.91249 5.93882 5.91249 4.4053C5.91249 3.02796 7.14022 1.92042 8.66026 1.92042C10.1803 1.92042 11.408 3.02796 11.408 4.4053C11.408 5.93882 10.2534 7.06057 8.66026 7.06057ZM14.9304 3.25516H13.8927V6.90438H12.4749V3.25516H11.4372V2.06241H14.9304V3.25516ZM18.7743 3.25516H17.7366V6.90438H16.3189V3.25516H15.2812V2.06241H18.7743V3.25516ZM22.1067 3.25516H20.6159V3.87993H22.019V5.07267H20.6159V5.71164H22.1067V6.90438H19.1982V2.06241H22.1067V3.25516ZM25.103 6.90438L24.036 5.28566V6.90438H22.6183V2.06241H24.5768C25.6729 2.06241 26.3307 2.63039 26.3307 3.58174C26.3307 4.26331 25.9507 4.78868 25.3368 4.95907L26.8714 6.90438H25.103ZM28.903 6.90438H27.0468V2.06241H28.903C30.2915 2.06241 31.4315 3.14156 31.4315 4.47629C31.4315 5.81103 30.2915 6.89018 28.903 6.89018M34.8809 6.89018L34.6909 6.3932H32.8347L32.63 6.89018H31.1246L33.0393 2.04821H34.5155V2.10501L36.3863 6.89018H34.8662H34.8809ZM41.7357 6.89018H40.3325V4.80288L39.441 6.89018H38.8271L38.0232 4.94487V6.89018H36.6202V2.04821H38.2133L39.1341 4.4053L40.1133 2.04821H41.721V6.89018H41.7357ZM43.0803 6.73399C42.6272 6.73399 42.2472 6.3648 42.2472 5.92462C42.2472 5.48445 42.6272 5.11526 43.0803 5.11526C43.5334 5.11526 43.9134 5.48445 43.9134 5.92462C43.9134 6.3648 43.5334 6.73399 43.0803 6.73399ZM24.0652 3.09896C24.6353 3.09896 24.8983 3.26935 24.8983 3.65274C24.8983 4.03612 24.6353 4.20651 24.0652 4.20651H23.9776V3.11316H24.0652M22.8814 22.3106H21.8583L22.3698 20.8339L22.8814 22.3106ZM30.8177 21.2173V20.2091V20.1665H30.9931C31.4608 20.1665 31.8554 20.1665 31.8554 20.7345C31.8554 21.3025 31.4316 21.2741 30.9931 21.2741H30.8177V21.2173ZM26.5937 21.2173V20.2091V20.1665H26.7691C27.2368 20.1665 27.6315 20.1665 27.6315 20.7345C27.6315 21.3025 27.2076 21.2741 26.7691 21.2741H26.5937V21.2173ZM13.805 25.1221H45.1557V17.852H13.805V25.1221ZM43.0657 22.41C43.5188 22.41 43.8988 22.765 43.8988 23.2194C43.8988 23.6738 43.5188 24.0288 43.0657 24.0288C42.6126 24.0288 42.2326 23.6596 42.2326 23.2194C42.2326 22.7792 42.6126 22.41 43.0657 22.41ZM37.1171 19.059H38.5055L40.2302 21.7285V19.059H41.648V23.901H40.2595L38.5348 21.2173V23.901H37.1171V19.059ZM33.6093 19.059H36.5178V20.2517H35.027V20.8765H36.4448V22.0692H35.027V22.7082H36.5178V23.901H33.6093V19.059ZM29.3853 19.059H31.3877C32.5716 19.059 33.2293 19.627 33.2293 20.6777C33.2293 21.7853 32.63 22.3532 31.4462 22.3532H30.8177V23.901H29.4V19.059H29.3853ZM25.1614 19.059H27.1638C28.3476 19.059 29.0053 19.627 29.0053 20.6777C29.0053 21.7853 28.4061 22.3532 27.2222 22.3532H26.5937V23.901H25.176V19.059H25.1614ZM21.6244 19.059H23.1006V19.1158L24.9714 23.901H23.4514L23.2614 23.404H21.4052L21.2005 23.901H19.6951L21.6098 19.059H21.6244ZM15.0473 19.059H16.465V20.8623H18.102V19.059H19.5197V23.901H18.102V21.9841H16.465V23.901H15.0473V19.059Z" fill="white"/>
</svg>
