<svg width="58" height="30" viewBox="0 0 58 30" fill="none" xmlns="http://www.w3.org/2000/svg">
<path d="M50.105 0.855076C47.1384 0.855076 44.7276 3.27912 44.7276 6.26177C44.7276 9.24441 47.1384 11.6684 50.105 11.6684C53.0709 11.6684 55.4818 9.24441 55.4818 6.26177C55.4818 3.27912 53.0709 0.855076 50.105 0.855076ZM54.297 3.24219C54.0219 3.43143 53.7324 3.59764 53.4342 3.74545C53.2546 3.38993 53.0438 3.04824 52.791 2.73429C53.0113 2.60038 53.2228 2.44801 53.4159 2.2818C53.7507 2.56345 54.0449 2.88667 54.297 3.23755V3.24219ZM52.0333 1.45068C52.4603 1.62616 52.8642 1.85704 53.2363 2.14789C53.0526 2.30026 52.8507 2.44337 52.6439 2.56808C52.3823 2.26333 52.0841 1.98631 51.7581 1.74623C51.8543 1.65389 51.9458 1.55692 52.0285 1.45531L52.0333 1.45068ZM52.4515 2.67889C52.162 2.83583 51.8591 2.9651 51.5466 3.05744C51.4179 2.75732 51.2667 2.46184 51.0966 2.17562C51.2708 2.09712 51.4362 2.00478 51.588 1.88471C51.9045 2.11559 52.1939 2.37877 52.4515 2.67425V2.67889ZM51.8177 1.36761C51.7439 1.45531 51.6659 1.53845 51.5785 1.61232C51.2938 1.41838 50.9909 1.24753 50.6784 1.10906C51.0688 1.15056 51.4504 1.23833 51.8177 1.36761ZM51.3948 1.75543C51.2667 1.84777 51.1284 1.92628 50.9821 1.98631C50.8255 1.73696 50.6513 1.49688 50.4629 1.26144C50.7889 1.39528 51.1013 1.56149 51.3948 1.75543ZM50.2148 1.29837C50.412 1.53845 50.6005 1.79237 50.7706 2.06482C50.5917 2.12022 50.4032 2.15252 50.2148 2.16172V1.29837ZM50.2148 2.38334C50.4446 2.37414 50.6743 2.33257 50.8899 2.25869C51.0552 2.53571 51.2023 2.822 51.3311 3.11748C50.9638 3.20982 50.5917 3.26522 50.2148 3.27449V2.38334ZM49.9898 1.30757V2.16172C49.8061 2.15252 49.6224 2.12022 49.4435 2.06482C49.6089 1.8062 49.7926 1.55229 49.9898 1.3122V1.30757ZM49.232 1.98631C49.085 1.92164 48.9474 1.84777 48.8186 1.75543C49.108 1.56149 49.4205 1.39991 49.7465 1.26144C49.5628 1.49225 49.3886 1.73696 49.232 1.98631ZM49.5445 1.10906C49.2273 1.24753 48.9243 1.41374 48.6349 1.61232C48.5482 1.53382 48.4702 1.45068 48.3964 1.36761C48.7685 1.23833 49.1494 1.15056 49.5445 1.10906ZM53.2275 10.3895C52.5111 9.99239 52.4969 9.44756 52.5341 9.24442C52.5707 9.04127 52.7131 9.12897 52.8005 9.12897C53.2688 9.12897 53.7643 8.9905 54.3756 8.36253C55.0643 7.65612 55.2798 6.09093 54.2238 5.07056C53.0852 3.97163 51.8774 4.16094 51.0966 5.15364C50.936 5.35678 50.5456 5.50452 50.2101 5.49532C49.7099 5.47685 50.0264 5.87395 50.0264 5.95238C50.0264 6.03089 49.9485 6.09556 49.9071 6.08173C49.7377 6.03089 49.8061 6.28487 49.8061 6.36331C49.8061 6.44181 49.7377 6.47875 49.7004 6.47875C49.4896 6.47875 49.5492 6.66806 49.5533 6.72346C49.5581 6.77423 49.5398 6.862 49.4713 6.89894C49.4022 6.93588 49.3242 7.10209 49.3242 7.23136C49.3242 7.46224 49.535 7.61918 49.8841 7.88237C50.2331 8.14555 50.2745 8.3949 50.2839 8.57031C50.2887 8.75042 50.307 9.03664 50.3849 9.22595C50.4764 9.45683 50.4676 9.87695 49.9851 9.89542C49.3974 9.91852 48.3503 10.3941 48.2588 10.4264C47.928 10.5465 47.4875 10.588 47.1425 10.5003C46.9588 10.371 46.7799 10.2233 46.6145 10.0709C46.546 9.83082 46.6653 9.57683 46.7846 9.40606C46.9818 9.60457 47.2713 9.59074 47.4366 9.5953C47.602 9.60457 48.4058 9.4753 48.5204 9.43836C48.6349 9.40142 48.6858 9.41062 48.7549 9.43836C49.0626 9.54917 49.4849 9.5861 49.655 8.9905C49.8244 8.3949 49.4205 8.56111 49.3696 8.58877C49.3195 8.61651 49.2503 8.60724 49.2734 8.55647C49.3473 8.4041 49.2368 8.42257 49.1724 8.41337C49.007 8.3949 48.7915 8.57494 48.7224 8.63498C48.6539 8.69958 48.5848 8.69038 48.557 8.68111C48.3367 8.57031 47.6847 8.73195 47.4827 8.37643C47.501 8.27946 47.3173 6.8389 47.2252 6.58956C47.2069 6.53415 47.1886 6.45108 47.2482 6.35411C47.4136 6.10476 47.8684 6.37258 48.1164 6.36794C48.4147 6.35874 48.4607 6.23403 48.5434 6.13713C48.6214 6.04016 48.6763 6.09556 48.7224 6.06782C48.7773 6.03089 48.7224 5.96165 48.7454 5.92472C48.7637 5.88778 48.7868 5.90625 48.8376 5.86004C48.8877 5.81391 48.8281 5.72157 48.8559 5.68C48.9291 5.56919 49.1263 5.6569 49.007 5.36605C48.9426 5.2044 49.0348 5.03363 49.1222 4.91819C49.2646 4.73351 49.8197 3.9486 48.8417 3.13131C47.9097 2.35567 46.9635 2.4157 46.3529 3.08054C45.7469 3.74545 46.0499 4.71504 46.1143 4.96896C46.1787 5.22287 45.995 5.45375 45.7836 5.55536C45.6182 5.6338 45.2373 5.88778 44.9479 6.14169C44.9939 4.0594 46.2519 2.22639 48.1761 1.45068C48.2588 1.55229 48.3503 1.64926 48.4472 1.7416C48.231 1.89854 47.7626 2.31873 47.7626 2.31873C47.7626 2.31873 47.827 2.32793 47.8867 2.34183C47.928 2.35103 48.0154 2.37877 48.0154 2.37877C48.0154 2.37877 48.4289 2.02788 48.6214 1.88471C48.7732 2.00015 48.9386 2.09712 49.1128 2.17099C49.0213 2.33257 48.782 2.77579 48.782 2.77579C48.782 2.77579 48.8376 2.80816 48.883 2.84046C48.9338 2.87276 48.9609 2.9005 48.9609 2.9005C48.9609 2.9005 49.2185 2.4157 49.3147 2.25406C49.5309 2.32793 49.756 2.3695 49.981 2.37877V3.26986C49.857 3.26986 49.5309 3.25139 49.3974 3.23755L49.3147 3.22829L49.3608 3.29759C49.3974 3.34836 49.4252 3.39913 49.4483 3.44533L49.4571 3.4638H49.4801C49.5764 3.473 49.8705 3.48227 49.981 3.48683V5.1075H50.206V4.73808C50.532 4.72424 50.8072 4.70114 51.1379 4.66884H51.1515L51.4409 4.41029L51.285 4.42412C50.936 4.47033 50.633 4.49343 50.3524 4.50726L50.2101 4.51646V3.48683C50.6147 3.47763 51.0187 3.42223 51.4179 3.31606C51.5283 3.58381 51.7303 4.23025 51.7303 4.23025L51.9418 4.16558C51.9418 4.16558 51.7398 3.52377 51.6293 3.25602C51.9648 3.14978 52.2908 3.01131 52.5938 2.8451C52.8419 3.14978 53.0526 3.48227 53.2323 3.83779C53.0709 3.91166 52.7822 4.0132 52.7863 4.0132C53.016 4.04094 53.195 4.09634 53.195 4.09634C53.195 4.09634 53.2777 4.0594 53.3285 4.0363C53.3468 4.08251 53.3881 4.17484 53.3881 4.17484L53.6775 4.30412L53.645 4.22098C53.645 4.22098 53.5488 3.9901 53.5257 3.93933C53.8334 3.78695 54.1316 3.61154 54.4211 3.4176C54.968 4.26255 55.2615 5.24134 55.2615 6.2525C55.2615 7.93314 54.4624 9.42909 53.2228 10.3802L53.2275 10.3895Z" fill="white"/>
<path d="M44.2403 2.29107L44.1583 2.36494C43.8411 2.64652 43.1202 3.3853 43.235 4.19788L43.2442 4.25328L43.2809 4.41493L43.3819 4.32259C43.8228 3.9163 44.1535 3.22829 44.2911 2.43418L44.3277 2.21256L44.245 2.28643L44.2403 2.29107Z" fill="white"/>
<path d="M42.7803 3.6947L42.7435 3.79167C42.6931 3.92558 42.6012 4.21179 42.5553 4.59042C42.4864 5.12598 42.5048 5.88786 42.9686 6.45116L43.0191 6.5204L43.0742 6.58964L43.1431 6.24338C43.2212 5.63388 43.1201 4.35954 42.8951 3.78703L42.817 3.59309L42.7803 3.69006V3.6947Z" fill="white"/>
<path d="M42.2431 5.89249V5.9941C42.1971 6.53887 42.2247 7.88708 43.313 8.60276L43.4416 8.6859V8.53352C43.4186 8.02099 42.8216 6.49273 42.3762 5.9479L42.2522 5.79089V5.89249H42.2431Z" fill="white"/>
<path d="M42.4497 8.39485C42.6105 9.17056 43.3406 10.4264 44.4653 10.7865L44.6219 10.8373L44.567 10.685C44.3555 10.1078 43.2671 8.755 42.5691 8.31178L42.413 8.21017L42.4497 8.39485Z" fill="white"/>
<path d="M44.6998 3.45923L44.6123 3.51463C43.7719 4.03173 43.3773 4.65506 43.4094 5.42614L43.4186 5.60155L43.5426 5.50002C43.9969 5.12139 44.5669 4.15644 44.7316 3.60697L44.7919 3.40846L44.7045 3.46386L44.6998 3.45923Z" fill="white"/>
<path d="M44.1393 5.20435C43.9238 5.41213 43.2303 6.15547 43.29 7.07429C43.2993 7.21747 43.3314 7.36978 43.3865 7.52679L43.437 7.67453L43.5288 7.54989C43.8594 7.07893 44.3006 5.83695 44.2775 5.25975L44.2681 5.08434L44.1393 5.20435Z" fill="white"/>
<path d="M44.2402 6.74192L44.1948 6.81116C43.8458 7.33289 43.6668 7.87309 43.6757 8.36715C43.6851 8.73188 43.7997 9.08276 44.02 9.41062L44.0938 9.52142L44.1535 9.40598C44.3046 9.1197 44.4246 8.19168 44.4056 7.45297C44.4015 7.19435 44.3738 6.97737 44.3277 6.82963L44.2816 6.66805L44.2362 6.73729L44.2402 6.74192Z" fill="white"/>
<path d="M44.6489 8.45037L44.6266 8.52425C44.5208 8.86593 44.47 9.19835 44.4795 9.51237C44.4978 10.228 44.8143 10.7866 45.4162 11.1745L45.5172 11.2391L45.5402 11.1007L45.549 10.9898C45.5307 10.4081 45.1037 8.94444 44.7642 8.50121L44.672 8.3765L44.6489 8.45037Z" fill="white"/>
<path d="M43.4646 10.7172L43.5105 10.7911C43.9651 11.5529 44.7317 12.5364 46.1645 12.2824L46.2844 12.2593L46.2153 12.1577C45.9489 11.756 44.2037 10.768 43.5885 10.6664L43.4186 10.6387L43.4646 10.7126V10.7172Z" fill="white"/>
<path d="M45.5864 12.6564L45.3613 12.7165L45.5769 12.8043C46.4905 13.1782 47.6339 13.289 48.3001 13.0674C48.5482 12.9797 48.6994 12.8458 48.8878 12.6611C50.0542 12.7811 51.1515 13.7599 51.7852 14.5588L51.8218 14.6003L51.8727 14.5864C51.9459 14.5633 52.0564 14.4756 52.1024 14.4248L52.1485 14.3741L52.1072 14.3187C51.4409 13.446 50.3985 12.9012 50.3524 12.8781C49.4158 12.421 47.7579 12.0608 45.5904 12.6519L45.5864 12.6564Z" fill="white"/>
<path d="M45.6501 10.2925C45.7883 11.1558 46.1374 12.2916 47.5885 12.167L47.68 12.1578L47.6569 12.0654C47.5607 11.673 46.2289 10.5279 45.7605 10.2093L45.6229 10.1354L45.6501 10.2925Z" fill="white"/>
<path d="M55.9047 2.21718L55.9413 2.43879C56.0741 3.23297 56.4096 3.92091 56.8502 4.32721L56.9512 4.41954L56.9884 4.25797L56.9972 4.20257C57.1077 3.38992 56.3866 2.64657 56.0741 2.36955L55.9087 2.22181L55.9047 2.21718Z" fill="white"/>
<path d="M57.4202 3.59754L57.3416 3.79149C57.1165 4.35942 57.0156 5.63833 57.0935 6.24784L57.1626 6.59409L57.2175 6.52485L57.2684 6.45555C57.732 5.88768 57.7462 5.13043 57.6771 4.59487C57.6262 4.21625 57.5395 3.93003 57.4886 3.79612L57.4154 3.60217L57.4202 3.59754Z" fill="white"/>
<path d="M57.98 5.79085L57.8512 5.94786C57.4059 6.49732 56.8135 8.02095 56.7952 8.53348V8.68585L56.9145 8.60272C58.003 7.88704 58.0308 6.53883 57.9895 5.99406L57.98 5.89245V5.79085Z" fill="white"/>
<path d="M57.8194 8.21025L57.6635 8.31186C56.9654 8.75509 55.8769 10.1079 55.6654 10.6851L55.6105 10.8374L55.7664 10.7867C56.8963 10.4219 57.6262 9.16601 57.7828 8.395L57.8194 8.21025Z" fill="white"/>
<path d="M55.4865 3.37614L55.5462 3.57928C55.7027 4.13332 56.2538 5.10754 56.6991 5.49537L56.8184 5.60161L56.8278 5.42613C56.8733 4.65505 56.4923 4.02251 55.6614 3.49158L55.4865 3.38077V3.37614Z" fill="white"/>
<path d="M55.9643 5.08447V5.25994C55.9366 5.83708 56.373 7.07905 56.7079 7.55001L56.8 7.67472L56.8502 7.52698C56.9058 7.36997 56.9376 7.21759 56.9471 7.07449C57.0068 6.15566 56.3134 5.40769 56.0972 5.20454L56.0328 5.1445L55.9691 5.08447H55.9643Z" fill="white"/>
<path d="M55.946 6.67267L55.8999 6.83424C55.8586 6.98199 55.8308 7.1944 55.8267 7.45758C55.8078 8.19173 55.9277 9.12438 56.0789 9.4106L56.1432 9.52604L56.2164 9.41523C56.4374 9.08745 56.5519 8.74113 56.5614 8.37177C56.575 7.87771 56.3961 7.33751 56.0423 6.81578L55.9501 6.6773L55.946 6.67267Z" fill="white"/>
<path d="M55.5604 8.3812L55.4682 8.50584C55.1327 8.9537 54.7016 10.4174 54.6827 10.9945C54.6827 10.9945 54.6922 11.1007 54.6922 11.1053L54.7152 11.2438L54.8162 11.1792C55.418 10.7913 55.7346 10.2327 55.7529 9.517C55.7624 9.20305 55.7115 8.87063 55.6058 8.52895L55.5828 8.45508L55.5604 8.3812Z" fill="white"/>
<path d="M56.8136 10.6434L56.6482 10.6711C56.0328 10.7727 54.2882 11.7607 54.0218 12.1624L53.9527 12.264L54.072 12.2871C55.5095 12.541 56.2761 11.5576 56.7261 10.7957L56.8088 10.648L56.8136 10.6434Z" fill="white"/>
<path d="M49.884 12.883C49.8386 12.9061 48.7962 13.4463 48.13 14.3236L48.0886 14.379L48.1347 14.4298C48.1808 14.4805 48.2906 14.5637 48.3645 14.5913L48.4146 14.6052L48.4472 14.5637C49.085 13.7649 50.1782 12.7907 51.3446 12.666C51.5283 12.8461 51.6795 12.9846 51.9323 13.0723C52.5938 13.2985 53.7419 13.1877 54.6556 12.8092L54.8711 12.7214L54.6461 12.6614C52.4745 12.0704 50.8214 12.4259 49.884 12.8876V12.883Z" fill="white"/>
<path d="M54.6094 10.1356L54.4718 10.2094C54.0082 10.5327 52.6764 11.6731 52.5754 12.0656L52.5524 12.1579L52.6439 12.1672C54.095 12.2918 54.4488 11.156 54.5816 10.2926L54.5959 10.2141L54.6094 10.1356Z" fill="white"/>
<path d="M17.4504 1.23378H19.2872V2.91905H17.4504V1.23378ZM17.5973 13.0305V4.8305H19.1402V13.0305H17.5973Z" fill="white"/>
<path d="M7.48553 4.83973V13.0398H5.97478V11.8301H5.94258C5.32269 12.8597 4.28489 13.2845 3.14603 13.2845C1.43778 13.2845 0.464228 11.9778 0.464228 10.3295V4.83973H2.00717V9.69232C2.00717 11.1144 2.33325 12.1579 3.81187 12.1579C4.44559 12.1579 5.30893 11.8301 5.63033 10.9805C5.92421 10.2141 5.93804 9.24909 5.93804 9.05058V4.83973H7.48553Z" fill="white"/>
<path d="M10.5668 6.04493H10.5989C11.1178 5.0153 12.2567 4.59054 13.0695 4.59054C13.6389 4.59054 16.1554 4.73829 16.1554 7.37004V13.0399H14.6124V7.87794C14.6124 6.52046 14.043 5.78638 12.7435 5.78638C12.7435 5.78638 11.8985 5.73554 11.2465 6.39118C11.0215 6.61743 10.5989 6.97759 10.5989 8.57972V13.0399H9.056V4.83982H10.5668V6.04956V6.04493Z" fill="white"/>
<path d="M25.6013 7.46702C25.5187 6.44202 25.0365 5.73098 23.939 5.73098C22.4695 5.73098 21.9047 7.00989 21.9047 8.92604C21.9047 10.8421 22.4695 12.1257 23.939 12.1257C24.9538 12.1257 25.583 11.4608 25.6656 10.2927H27.1994C27.0663 12.1257 25.7115 13.2476 23.9207 13.2476C21.3215 13.2476 20.2883 11.3962 20.2883 8.99527C20.2883 6.59433 21.4822 4.60901 24.0492 4.60901C25.7621 4.60901 27.0524 5.69861 27.1305 7.46702H25.5968H25.6013Z" fill="white"/>
<path d="M29.5046 9.22138C29.3898 10.6481 29.973 12.1302 31.539 12.1302C32.7329 12.1302 33.3298 11.6593 33.509 10.4726H35.1254C34.882 12.3241 33.463 13.2521 31.5251 13.2521C28.926 13.2521 27.8882 11.4006 27.8882 8.99976C27.8882 6.59882 29.0868 4.6135 31.6537 4.6135C34.0738 4.66427 35.2218 6.20636 35.2218 8.4642V9.22601H29.5092L29.5046 9.22138ZM33.6054 8.15018C33.6375 6.78813 33.0222 5.73083 31.539 5.73083C30.2623 5.73083 29.5046 6.81587 29.5046 8.15018H33.6054Z" fill="white"/>
<path d="M36.9575 13.0028V5.92478H35.5615V4.84895H36.9575V3.09908C37.008 1.3122 38.3443 0.841309 39.4924 0.841309C39.8644 0.841309 40.218 0.938214 40.5945 1.00288V2.28643C40.3327 2.27259 40.0756 2.23566 39.8184 2.23566C38.9505 2.23566 38.4454 2.46654 38.4959 3.35763V4.84895H40.3694V5.92478H38.4959V13.0028H36.9575Z" fill="white"/>
<path d="M0.308105 18.6357V18.9496H57.3003V18.6357H0.308105Z" fill="white"/>
<path d="M0.891328 24.8782L2.41591 28.595L3.88992 24.8782H4.47314L2.71894 29.3337H2.11742L0.308105 24.8782H0.891328Z" fill="white"/>
<path d="M8.93664 27.1084C8.93664 28.2811 8.28456 29.4678 6.87025 29.4678C5.45588 29.4678 4.8038 28.2765 4.8038 27.1084C4.8038 25.9403 5.45588 24.749 6.87025 24.749C8.28456 24.749 8.93664 25.9403 8.93664 27.1084ZM6.87025 25.2384C5.80025 25.2384 5.3778 26.2865 5.3778 27.1084C5.3778 27.9302 5.80025 28.983 6.87025 28.983C7.94018 28.983 8.36264 27.9349 8.36264 27.1084C8.36264 26.2819 7.94018 25.2384 6.87025 25.2384Z" fill="white"/>
<path d="M13.8456 27.1084C13.8456 28.2811 13.1935 29.4678 11.7792 29.4678C10.3648 29.4678 9.71276 28.2765 9.71276 27.1084C9.71276 25.9403 10.3648 24.749 11.7792 24.749C13.1935 24.749 13.8456 25.9403 13.8456 27.1084ZM11.7792 25.2384C10.7092 25.2384 10.2868 26.2865 10.2868 27.1084C10.2868 27.9302 10.7092 28.983 11.7792 28.983C12.8491 28.983 13.2716 27.9349 13.2716 27.1084C13.2716 26.2819 12.8491 25.2384 11.7792 25.2384Z" fill="white"/>
<path d="M15.4667 29.3337H14.9386V25.88C14.9478 25.5337 14.911 25.1782 14.8927 24.8781H15.4392L15.4667 25.5337H15.485C15.6457 25.0812 16.0407 24.7626 16.4815 24.7442C16.656 24.735 16.8351 24.7442 17.0096 24.7534V25.266C16.904 25.2567 16.7892 25.229 16.6836 25.229C15.8983 25.229 15.485 25.7969 15.4667 26.6465V29.3337Z" fill="white"/>
<path d="M20.9129 23.5946H20.2929V22.9297H20.9129V23.5946ZM20.8669 24.8828V29.3383H20.3389V24.8828H20.8669Z" fill="white"/>
<path d="M22.5982 27.233C22.6165 28.1842 23.0482 28.983 24.132 28.983C24.7565 28.983 25.28 28.5305 25.4132 27.9164H25.9688C25.6933 28.983 25.032 29.4678 23.9667 29.4678C22.6441 29.4678 22.0242 28.3227 22.0242 27.1084C22.0242 25.8941 22.6855 24.749 23.9988 24.749C25.482 24.749 26.0193 25.8387 26.0193 27.233H22.5936H22.5982ZM25.4499 26.7437C25.3902 25.8848 24.931 25.2338 24.0125 25.2338C23.1493 25.2338 22.69 25.9633 22.6165 26.7437H25.4499Z" fill="white"/>
<path d="M30.2486 28.6781L30.2302 28.6412C29.8674 29.1721 29.3302 29.4676 28.7102 29.4676C27.3969 29.4676 26.8917 28.2071 26.8917 27.0898C26.8917 25.9725 27.3969 24.7489 28.7102 24.7489C29.3026 24.7489 29.9179 25.0305 30.2302 25.5569L30.2486 25.5384V22.9297H30.7767V28.3318C30.7767 28.6781 30.8043 29.0336 30.8226 29.3337H30.2761L30.2486 28.6781ZM28.802 25.2337C27.7964 25.2337 27.4704 26.1756 27.4704 27.0251C27.4704 27.8747 27.7091 28.9782 28.724 28.9782C29.8812 28.9782 30.2348 28.0132 30.2348 26.9975C30.2348 26.0925 29.8399 25.2337 28.8067 25.2337H28.802Z" fill="white"/>
<path d="M32.4069 27.233C32.4253 28.1842 32.8569 28.983 33.9406 28.983C34.5652 28.983 35.0887 28.5305 35.2218 27.9164H35.7775C35.5019 28.983 34.8407 29.4678 33.7753 29.4678C32.4528 29.4678 31.8329 28.3227 31.8329 27.1084C31.8329 25.8941 32.4941 24.749 33.8075 24.749C35.2907 24.749 35.828 25.8387 35.828 27.233H32.4023H32.4069ZM35.2585 26.7437C35.1989 25.8848 34.7396 25.2338 33.8213 25.2338C32.9579 25.2338 32.4987 25.9633 32.4253 26.7437H35.2585Z" fill="white"/>
<path d="M37.5363 29.3337H37.0082V25.88C37.0174 25.5337 36.9806 25.1782 36.9623 24.8781H37.5087L37.5363 25.5337H37.5546C37.7154 25.0812 38.1103 24.7626 38.5511 24.7442C38.7256 24.735 38.9047 24.7442 39.0792 24.7534V25.266C38.9736 25.2567 38.8588 25.229 38.7532 25.229C37.9679 25.229 37.5546 25.7969 37.5363 26.6465V29.3337Z" fill="white"/>
<path d="M42.9778 26.6973L45.1221 24.8782H45.8019L43.5611 26.8035L45.9808 29.3337H45.3105L42.9824 26.919V29.3337H42.4543V22.9297H42.9824V26.702L42.9778 26.6973Z" fill="white"/>
<path d="M47.3906 23.5946H46.7712V22.9297H47.3906V23.5946ZM47.3452 24.8828V29.3383H46.8166V24.8828H47.3452Z" fill="white"/>
<path d="M49.2965 29.3338H48.7685V25.8802C48.7685 25.534 48.7407 25.1784 48.7224 24.8783H49.2687L49.2965 25.5339L49.3148 25.5524C49.6225 25.003 50.1274 24.7444 50.7015 24.7444C52.1485 24.7444 52.2631 26.0326 52.2631 26.5451V29.3292H51.7351V26.4527C51.7351 25.6817 51.2938 25.2292 50.5686 25.2292C49.6963 25.2292 49.2965 25.9633 49.2965 26.7621V29.3338Z" fill="white"/>
<path d="M56.7269 28.6781L56.7079 28.6412C56.3453 29.1721 55.8078 29.4676 55.1884 29.4676C53.8748 29.4676 53.3699 28.2071 53.3699 27.0898C53.3699 25.9725 53.8748 24.7489 55.1884 24.7489C55.7807 24.7489 56.3961 25.0305 56.7079 25.5569L56.7269 25.5384V22.9297H57.2549V28.3318C57.2549 28.6781 57.282 29.0336 57.3003 29.3337H56.754L56.7269 28.6781ZM55.2799 25.2337C54.2747 25.2337 53.948 26.1756 53.948 27.0251C53.948 27.8747 54.1873 28.9782 55.2019 28.9782C56.3589 28.9782 56.7127 28.0132 56.7127 26.9975C56.7127 26.0925 56.3182 25.2337 55.2846 25.2337H55.2799Z" fill="white"/>
</svg>
