<svg width="83" height="11" viewBox="0 0 83 11" fill="none" xmlns="http://www.w3.org/2000/svg">
<path d="M8.61417 10.2411V9.90327H8.36753C7.70978 9.90327 7.61582 9.83337 7.61582 9.3791V0.95752H4.0217V1.29532H4.45629C5.11404 1.29532 5.21974 1.35355 5.21974 1.77288V6.40883C4.78516 6.11763 4.13916 5.93126 3.48142 5.93126C2.18942 5.93126 0.920898 6.78157 0.920898 8.15605C0.920898 9.53053 2.21291 10.3925 3.48142 10.3925C4.3036 10.3925 4.89086 10.1945 5.32544 9.84502V10.2411H8.61417ZM5.23148 8.65692C5.23148 9.21603 5.16101 9.46063 4.93784 9.63535C4.76166 9.77513 4.51502 9.86832 4.25662 9.86832C3.44618 9.86832 3.44618 9.23932 3.44618 8.58702V7.73672C3.44618 7.08442 3.44618 6.45543 4.25662 6.45543C4.51502 6.45543 4.76166 6.54861 4.93784 6.68839C5.16101 6.86311 5.23148 7.10772 5.23148 7.66683V8.66856V8.65692ZM14.9802 8.23759C14.945 6.74663 13.8644 5.91962 11.9264 5.91962C9.9884 5.91962 8.66117 6.78158 8.66117 8.1677C8.66117 9.55383 9.98839 10.3925 11.9734 10.3925C13.2419 10.3925 14.2637 9.96151 14.9097 9.15779L14.6866 8.92482C14.0641 9.60041 13.2536 9.99645 12.4197 9.99645C11.7267 9.99645 11.2687 9.74019 11.1395 9.32086C11.0807 9.14614 11.0572 8.85493 11.0572 8.4356V8.21428H14.9802V8.23759ZM12.6781 7.86485H11.0572V7.48046C11.0572 6.89805 11.0807 6.73498 11.1864 6.57191C11.3039 6.38554 11.5623 6.2807 11.8912 6.2807C12.2553 6.2807 12.5019 6.42048 12.5841 6.66509C12.6546 6.83982 12.6664 7.00288 12.6664 7.46881V7.86485H12.6781ZM19.7019 10.3226L15.591 2.00585C15.497 1.80783 15.4031 1.64475 15.3208 1.56322C15.1916 1.42344 15.0272 1.37685 14.5456 1.37685H14.205V1.03906H19.6079V1.37685H19.42C19.0206 1.37685 18.9502 1.37685 18.8092 1.40014C18.5743 1.43509 18.4451 1.56322 18.4451 1.76124C18.4451 1.92432 18.5273 2.13398 18.7505 2.6232L21.0409 7.41057L23.1785 2.92605C23.3312 2.61155 23.5779 2.09903 23.5779 1.81948C23.5779 1.48168 23.343 1.37685 22.4386 1.37685H22.3564V1.03906H25.4689V1.37685H25.3632C24.9991 1.37685 24.9051 1.37685 24.7759 1.41179C24.5645 1.47004 24.4705 1.58652 24.2709 2.00585L20.2187 10.3226H19.6901H19.7019ZM29.1335 8.1444C29.1335 6.80487 27.8062 5.91962 25.7743 5.91962C23.7423 5.91962 22.4151 6.79322 22.4151 8.1677C22.4151 9.54218 23.7188 10.4158 25.7743 10.4158C27.8297 10.4158 29.1335 9.54217 29.1335 8.1444ZM26.6435 8.68021C26.6435 9.29756 26.6434 9.47228 26.5612 9.63535C26.4555 9.89161 26.1619 10.0547 25.7743 10.0547C25.3867 10.0547 25.0931 9.89161 24.9873 9.63535C24.9169 9.47228 24.9051 9.29756 24.9051 8.68021V7.64353C24.9051 7.02618 24.9051 6.85146 24.9873 6.68839C25.0931 6.43213 25.3867 6.26905 25.7743 6.26905C26.1619 6.26905 26.4555 6.43213 26.5612 6.68839C26.6317 6.85146 26.6435 7.03783 26.6435 7.64353V8.68021ZM29.2627 9.90327H29.5093C30.1671 9.90327 30.2611 9.84502 30.2611 9.42569V1.77288C30.2611 1.35355 30.1671 1.29532 29.5093 1.29532H29.0748V0.95752H32.6571V9.42569C32.6571 9.85667 32.7628 9.91492 33.4206 9.91492H33.6672V10.2527H29.2509V9.91492L29.2627 9.90327ZM39.1054 10.2527L37.4258 8.21428V9.36745C37.4258 9.83338 37.5315 9.90327 38.1892 9.90327H38.3184V10.2411H34.0196V9.90327H34.2662C34.924 9.90327 35.0297 9.83337 35.0297 9.3791V1.77288C35.0297 1.35355 34.924 1.29532 34.2662 1.29532H33.8317V0.95752H37.4258V8.02792L38.4946 7.30573C38.6238 7.21255 38.8352 7.07278 38.9292 6.99124C39.0936 6.85146 39.1524 6.76993 39.1524 6.66509C39.1524 6.58356 39.0936 6.52532 39.0232 6.50202C38.9409 6.47872 38.894 6.46707 38.5416 6.46707H38.201V6.12928H41.6894V6.46707C40.5501 6.49037 39.8218 6.67674 39.305 7.02618L41.4897 9.57712C41.6424 9.76349 41.7598 9.85667 41.8538 9.87996C41.9595 9.90326 42.0535 9.91492 42.1592 9.91492C42.2414 9.91492 42.3119 9.91492 42.3119 9.91492V10.2527H39.0819H39.1054ZM45.5184 10.3692C44.7667 10.3692 44.1442 10.2527 43.3455 10.0081C43.2515 9.9848 43.2163 9.9615 43.1576 9.9615C43.0284 9.9615 42.9931 10.043 42.9814 10.2411H42.6408V8.65692H42.9814V8.69186C42.9814 9.02966 43.0401 9.22767 43.1928 9.3791C43.4747 9.68195 44.0267 9.91492 44.5553 9.91492C44.9546 9.91492 45.166 9.78679 45.166 9.57712C45.166 9.3791 45.0133 9.25097 44.614 9.08789L44.2616 8.93647C43.1576 8.48219 42.723 8.07451 42.723 7.44551C42.723 6.53696 43.6509 5.97785 45.1543 5.97785C45.7298 5.97785 46.2349 6.05939 46.8339 6.23411C47.0336 6.29235 47.0805 6.304 47.1628 6.304C47.3037 6.304 47.3507 6.24576 47.3859 6.12928H47.7148V7.50375H47.3859V7.39892C47.3859 7.07277 47.3389 6.95629 47.1628 6.81652C46.9161 6.60685 46.4345 6.46707 46.0117 6.46707C45.6241 6.46707 45.4127 6.5952 45.4127 6.81652C45.4127 7.03783 45.5536 7.14266 46.1409 7.35233L46.7399 7.56199C47.7031 7.91144 48.0437 8.24924 48.0437 8.86658C48.0437 9.81008 47.0805 10.3925 45.5066 10.3925M53.1412 10.276L51.4616 8.23759V9.39075C51.4616 9.85667 51.5673 9.92656 52.2251 9.92656H52.3543V10.2644H48.0554V9.92656H48.3021C48.9598 9.92656 49.0538 9.85667 49.0538 9.4024V1.79618C49.0538 1.37685 48.9598 1.31861 48.3021 1.31861H47.8675V0.980812H51.4498V8.05121L52.5187 7.32904C52.6479 7.23585 52.8593 7.09607 52.9533 7.01453C53.1177 6.87475 53.1764 6.79322 53.1764 6.68839C53.1764 6.60685 53.1177 6.54861 53.0472 6.52531C52.965 6.50202 52.918 6.49037 52.5657 6.49037H52.2251V6.15257H55.7135V6.49037C54.5741 6.51367 53.8459 6.70003 53.3291 7.04947L55.5138 9.60041C55.6782 9.78678 55.7839 9.87997 55.8779 9.90327C55.9836 9.92656 56.0776 9.93821 56.1833 9.93821C56.2655 9.93821 56.336 9.93821 56.336 9.93821V10.276H53.106H53.1412ZM60.811 9.92656H61.1046V10.2644H56.7353V9.92656H56.9232C57.581 9.92656 57.6749 9.86832 57.6749 9.44899V6.9563C57.6749 6.53696 57.581 6.47872 56.9232 6.47872H56.6178V6.12928H59.9536V7.21255C60.2942 6.42048 60.9167 5.95456 61.7036 5.95456C62.5963 5.95456 63.1131 6.47872 63.1131 7.27079C63.1131 8.06286 62.608 8.52879 61.8328 8.52879C61.0576 8.52879 60.5761 8.08616 60.5761 7.45717C60.5761 7.30574 60.5996 7.17761 60.6818 7.03783C60.717 6.96794 60.7053 6.95629 60.7053 6.93299C60.7053 6.9097 60.67 6.8864 60.6465 6.8864C60.5643 6.8864 60.4704 6.96794 60.3529 7.13101C60.2472 7.29408 60.1415 7.5154 60.0945 7.70177C60.0475 7.89979 60.0123 8.20264 60.0123 8.58702V9.43734C60.0123 9.85667 60.118 9.92656 60.7757 9.92656M70.0429 10.2644V9.91492H69.8432C69.3969 9.91492 69.3147 9.78678 69.3147 9.39075V7.99298C69.3147 7.45716 69.3147 7.29409 69.2442 7.09607C69.1972 6.93299 69.1033 6.75828 68.9741 6.60685C68.5982 6.16422 67.8935 5.94291 66.9304 5.94291C66.3666 5.94291 65.7323 6.05939 65.0511 6.23411C64.9689 6.24576 64.734 6.3273 64.6517 6.3273C64.5343 6.3273 64.4873 6.2807 64.4873 6.11763H64.1819V7.49211H64.5108V7.38727C64.5108 7.04948 64.5813 6.87476 64.7575 6.74663C65.0041 6.56026 65.5091 6.43213 65.979 6.43213C66.4488 6.43213 66.7542 6.56026 66.8599 6.80486C66.9069 6.92135 66.9186 7.04948 66.9186 7.32904V7.63188C66.5545 7.60858 66.2961 7.59694 65.932 7.59694C64.3699 7.59694 63.2893 7.98133 63.2893 8.99471C63.2893 9.91492 64.1349 10.3575 65.1568 10.3575C65.8263 10.3575 66.484 10.1945 67.0008 9.84502V10.2411H70.0429V10.2644ZM66.9186 8.7734C66.9186 8.87823 66.9186 9.02965 66.9186 9.18108C66.9186 9.3791 66.8834 9.47228 66.8012 9.56547C66.6955 9.68195 66.5075 9.76348 66.3078 9.76348C65.9202 9.76348 65.7793 9.55382 65.7793 8.98306V8.78505C65.7793 8.20264 66.0142 7.98133 66.625 7.98133C66.7542 7.98133 66.7424 7.98133 66.9304 7.98133V8.76175L66.9186 8.7734ZM74.4827 10.2644V9.9615H74.5414C74.7411 9.9615 74.8585 9.93821 74.929 9.86832C74.9995 9.79843 75.023 9.64701 75.023 9.23932V7.66683C75.023 7.16596 75.023 7.02618 74.9642 6.92134C74.8938 6.75827 74.7293 6.68839 74.4709 6.68839C74.2125 6.68839 73.9659 6.79322 73.8132 6.9563C73.6605 7.13102 73.637 7.25914 73.637 7.79495V9.23932C73.637 9.42569 73.637 9.60041 73.6605 9.6936C73.684 9.87997 73.8015 9.94986 74.1186 9.94986H74.2125V10.2527H70.3718V9.91492H70.5597C71.2175 9.91492 71.3114 9.85668 71.3114 9.41405V6.97959C71.3114 6.53696 71.2175 6.47872 70.5597 6.47872H70.2543V6.14092H73.5548V6.73498C74.0951 6.24576 74.7763 6.01279 75.5515 6.01279C76.2093 6.01279 76.7261 6.19917 77.0549 6.53696C77.2311 6.72333 77.3368 6.95629 77.3721 7.21255C77.3956 7.38727 77.4073 7.46881 77.4073 7.8299V9.41405C77.4073 9.85668 77.5013 9.91492 78.1708 9.91492H78.3352V10.2527H74.4827V10.2644ZM82.8689 9.65866C82.587 10.1712 81.9645 10.4274 81.0014 10.4274C80.2732 10.4274 79.7799 10.2876 79.4628 9.9615C79.2631 9.76348 79.1574 9.47228 79.1221 9.13449C79.0986 8.94812 79.0869 8.7967 79.0869 8.36572V6.50202H78.2647V6.19917L81.3303 4.41701L81.4595 4.51019V6.14092H82.9864V6.51366H81.4595V8.65692C81.4595 8.92483 81.436 9.22767 81.5065 9.42569C81.5652 9.60041 81.7179 9.71689 81.9645 9.71689C82.634 9.71689 82.6575 9.19273 82.6575 8.66856V8.56373H82.9981V8.70351C82.9981 9.21603 82.9746 9.44899 82.8454 9.65866" fill="white"/>
</svg>
