<svg width="23" height="22" viewBox="0 0 23 22" fill="none" xmlns="http://www.w3.org/2000/svg">
<path d="M11.5 0C5.425 0 0.5 4.9245 0.5 11C0.5 17.0755 5.425 22 11.5 22C17.575 22 22.5 17.0755 22.5 11C22.5 4.9245 17.575 0 11.5 0ZM16.8667 15.8572C16.69 16.17 16.365 16.346 16.03 16.346C15.8733 16.346 15.7117 16.3068 15.5633 16.2243C14.19 15.4543 12.6933 14.9827 11.1117 14.8225C9.52667 14.6637 7.96167 14.8245 6.45833 15.3045C5.95667 15.4647 5.41667 15.1875 5.25667 14.685C5.09501 14.1817 5.37333 13.6435 5.87667 13.4825C7.63 12.9223 9.45833 12.7318 11.305 12.9195C13.1483 13.1072 14.895 13.6572 16.4983 14.5558C16.96 14.8128 17.125 15.3958 16.8667 15.8572ZM18.1833 12.516C18.0133 12.8432 17.68 13.0308 17.335 13.0308C17.185 13.0308 17.035 12.9965 16.8933 12.9223C15.205 12.043 13.3817 11.4985 11.47 11.3045C9.54332 11.1073 7.635 11.2792 5.795 11.8098C5.28667 11.9542 4.75667 11.6635 4.61167 11.1553C4.46501 10.648 4.75833 10.118 5.26499 9.9715C7.34166 9.37267 9.495 9.18083 11.6633 9.40083C13.8167 9.62017 15.8733 10.2335 17.7783 11.2262C18.245 11.4703 18.4283 12.0477 18.1833 12.516ZM18.66 9.73633C18.5167 9.73633 18.3717 9.704 18.2333 9.636C16.23 8.637 14.075 8.01483 11.8267 7.78667C9.57499 7.55633 7.335 7.73433 5.16667 8.31333C4.65667 8.44867 4.13333 8.14617 3.99666 7.63533C3.86 7.12517 4.16334 6.60067 4.67501 6.4645C7.06668 5.82583 9.54 5.63133 12.0217 5.88367C14.5 6.1345 16.8767 6.82133 19.0867 7.9235C19.56 8.15917 19.7517 8.734 19.5167 9.20634C19.35 9.5425 19.0117 9.73633 18.66 9.73633Z" fill="white"/>
</svg>
