<svg width="25" height="18" viewBox="0 0 25 18" fill="none" xmlns="http://www.w3.org/2000/svg">
<path d="M8.05016 17.9372C17.1045 17.9372 22.0583 11.0592 22.0583 5.0964C22.0583 4.90304 22.0536 4.70538 22.0442 4.51203C23.0079 3.8732 23.8395 3.08193 24.5 2.17538C23.6025 2.54141 22.6496 2.78046 21.6739 2.88437C22.7013 2.31986 23.4705 1.43304 23.8391 0.388314C22.8726 0.913373 21.8156 1.28376 20.7134 1.48359C19.9708 0.760292 18.989 0.281385 17.9197 0.120908C16.8504 -0.0395683 15.7532 0.127324 14.7977 0.595783C13.8423 1.06424 13.0818 1.80818 12.6338 2.71256C12.1859 3.61695 12.0754 4.63143 12.3195 5.59914C10.3625 5.50911 8.44794 5.04309 6.69998 4.23129C4.95203 3.41948 3.40969 2.28001 2.17297 0.886752C1.5444 1.88017 1.35206 3.0557 1.63503 4.17445C1.918 5.29319 2.65506 6.27119 3.69641 6.90968C2.91463 6.88693 2.14998 6.69399 1.46563 6.34679V6.40265C1.46492 7.44517 1.8581 8.45573 2.57831 9.26257C3.29852 10.0694 4.30132 10.6227 5.41625 10.8284C4.69206 11.0101 3.93198 11.0365 3.19484 10.9058C3.50945 11.8023 4.12157 12.5865 4.94577 13.1488C5.76997 13.7112 6.76512 14.0236 7.79234 14.0425C6.04842 15.2982 3.89417 15.9793 1.67656 15.9761C1.28329 15.9755 0.890399 15.9534 0.5 15.9099C2.75286 17.2348 5.37353 17.9385 8.05016 17.9372Z" fill="white"/>
</svg>
