<svg width="24" height="16" viewBox="0 0 24 16" fill="none" xmlns="http://www.w3.org/2000/svg">
<path d="M23.2709 3.5999C23.2709 3.5999 23.0463 2.08311 22.3545 1.41709C21.4785 0.540527 20.4992 0.53623 20.05 0.484668C16.8336 0.26123 12.0045 0.26123 12.0045 0.26123H11.9955C11.9955 0.26123 7.16641 0.26123 3.95 0.484668C3.50078 0.53623 2.52148 0.540527 1.64551 1.41709C0.953711 2.08311 0.733594 3.5999 0.733594 3.5999C0.733594 3.5999 0.5 5.38311 0.5 7.16201V8.8292C0.5 10.6081 0.729102 12.3913 0.729102 12.3913C0.729102 12.3913 0.953711 13.9081 1.64102 14.5741C2.51699 15.4507 3.66699 15.4206 4.1791 15.5151C6.0209 15.6827 12 15.7343 12 15.7343C12 15.7343 16.8336 15.7257 20.05 15.5065C20.4992 15.455 21.4785 15.4507 22.3545 14.5741C23.0463 13.9081 23.2709 12.3913 23.2709 12.3913C23.2709 12.3913 23.5 10.6124 23.5 8.8292V7.16201C23.5 5.38311 23.2709 3.5999 23.2709 3.5999ZM9.62363 10.853V4.66982L15.8363 7.77217L9.62363 10.853Z" fill="white"/>
</svg>
