<?xml version="1.0" encoding="UTF-8"?>
<svg id="Layer_2" xmlns="http://www.w3.org/2000/svg" viewBox="0 0 2000 1178.1">
    <g id="Layer_1-2">
        <g>
            <path d="M1459.75,822.84c4.7-25.7,2.51-46.47-6.58-62.3-9.09-15.83-23.5-27.27-43.25-34.32-19.75-7.05-44.04-10.58-72.88-10.58-19.43,0-36.98,1.1-52.66,3.29-15.68,2.2-29.46,6.58-41.37,13.17-12.54,6.9-22.41,15.12-29.62,24.68-7.21,9.57-11.91,22.65-14.11,39.26l105.32,14.58c.94-11.59,3.6-20.05,7.99-25.39,4.39-5.32,11.59-7.99,21.63-7.99,4.7,0,8.7,.47,11.99,1.41,3.29,.94,6.03,2.52,8.23,4.7,2.19,2.51,3.44,5.33,3.76,8.46,.31,3.14,.15,6.75-.47,10.81l-.47,2.35-.94,6.11-71.93,11.28c-24.45,3.76-44.27,8.23-59.47,13.4-15.21,5.17-27.27,13.01-36.21,23.51-8.93,10.5-13.4,24.68-13.4,42.55,0,14.42,3.45,26.88,10.34,37.38,6.89,10.5,16.37,18.5,28.44,23.98,12.06,5.48,26.1,8.23,42.08,8.23s29.31-2.28,41.84-6.82c12.53-4.54,23.35-11.05,32.44-19.51,3.3-3.07,6.26-6.42,9.06-9.91-.04,1.04-.1,2.01-.13,3.09-.31,10.5-.16,18.89,.47,25.15h105.78l.47-1.88c-2.2-7.52-3.45-15.59-3.76-24.21-.31-8.62,.31-17.16,1.88-25.62l15.51-88.86Zm-130.7,79.22c-7.84,6.43-16.46,9.64-25.86,9.64-7.22,0-12.62-1.64-16.22-4.94-3.61-3.29-5.41-7.75-5.41-13.4,0-7.52,2.51-12.69,7.52-15.51,5.01-2.82,13-5.33,23.98-7.52l33.39-6.64-1.89,9.93c-2.51,12.54-7.68,22.02-15.51,28.44Z"/>
            <path d="M876.37,822.84c4.7-25.7,2.51-46.47-6.58-62.3-9.09-15.83-23.5-27.27-43.25-34.32-19.75-7.05-44.04-10.58-72.88-10.58-19.43,0-36.98,1.1-52.66,3.29-15.68,2.2-29.46,6.58-41.37,13.17-12.54,6.9-22.41,15.12-29.62,24.68-7.22,9.57-11.91,22.65-14.11,39.26l105.32,14.58c.94-11.59,3.6-20.05,7.99-25.39,4.39-5.32,11.59-7.99,21.63-7.99,4.7,0,8.7,.47,11.99,1.41,3.29,.94,6.03,2.52,8.23,4.7,2.19,2.51,3.44,5.33,3.76,8.46,.31,3.14,.15,6.75-.47,10.81l-.47,2.35-.94,6.11-71.93,11.28c-24.45,3.76-44.27,8.23-59.47,13.4-15.21,5.17-27.27,13.01-36.21,23.51-8.93,10.5-13.4,24.68-13.4,42.55,0,14.42,3.45,26.88,10.34,37.38,6.89,10.5,16.37,18.5,28.44,23.98,12.06,5.48,26.1,8.23,42.08,8.23s29.3-2.28,41.84-6.82c12.53-4.54,23.35-11.05,32.44-19.51,3.3-3.07,6.26-6.42,9.06-9.91-.04,1.04-.1,2.01-.13,3.09-.31,10.5-.16,18.89,.47,25.15h105.78l.47-1.88c-2.2-7.52-3.45-15.59-3.76-24.21-.31-8.62,.31-17.16,1.88-25.62l15.51-88.86Zm-130.7,79.22c-7.84,6.43-16.46,9.64-25.86,9.64-7.22,0-12.62-1.64-16.22-4.94-3.61-3.29-5.41-7.75-5.41-13.4,0-7.52,2.51-12.69,7.52-15.51,5.01-2.82,13-5.33,23.98-7.52l33.39-6.64-1.89,9.93c-2.51,12.54-7.68,22.02-15.51,28.44Z"/>
            <path d="M1618.66,876.91c4.07-2.82,7.83-5.48,11.28-7.99,3.45-2.51,6.42-4.85,8.93-7.05l86.04-66.76,12.7-71.47h-224.73l-12.7,72.88h66.76c6.26,0,13.87-.15,22.8-.47,5.49-.19,10.78-.46,15.97-.77-1.1,.75-2.16,1.41-3.27,2.18-3.61,2.52-7.29,5.02-11.05,7.52-5.02,3.14-9.95,6.35-14.81,9.64-4.86,3.29-9.33,6.51-13.4,9.64l-83.22,63.47-13.63,75.7h237.9l12.69-72.88h-117.64c.58-.39,1.18-.78,1.75-1.18,6.11-4.23,11.98-8.38,17.63-12.46Z"/>
            <path d="M1878.65,876.91c4.07-2.82,7.83-5.48,11.28-7.99,3.45-2.51,6.42-4.85,8.93-7.05l86.04-66.76,12.7-71.47h-224.73l-12.7,72.88h66.76c6.26,0,13.87-.15,22.8-.47,5.49-.19,10.78-.46,15.97-.77-1.1,.75-2.16,1.41-3.27,2.18-3.61,2.52-7.29,5.02-11.05,7.52-5.02,3.14-9.95,6.35-14.81,9.64-4.86,3.29-9.33,6.51-13.4,9.64l-83.22,63.47-13.63,75.7h237.9l12.69-72.88h-117.64c.58-.39,1.18-.78,1.75-1.18,6.11-4.23,11.98-8.38,17.63-12.46Z"/>
            <g>
                <path d="M134.93,774.31c4.39-2.97,10.34-4.46,17.86-4.46,10.34,0,17.87,2.75,22.57,8.23,4.7,5.49,7.06,13.87,7.06,25.15l98.73-11.76c-3.76-26.95-17.16-46.31-40.2-58.07-23.04-11.75-52.42-17.63-88.15-17.63-26.33,0-49.21,3.06-68.64,9.17-19.44,6.11-34.56,15.36-45.37,27.74-10.81,12.39-16.22,27.67-16.22,45.84,0,16.3,4.31,29.55,12.93,39.73,8.62,10.19,19.51,17.86,32.67,23.04,13.17,5.17,29.93,10.27,50.31,15.28,.62,.31,1.41,.47,2.35,.47s1.72,.16,2.35,.47c8.77,1.88,16.53,3.76,23.28,5.65,6.73,1.88,11.59,4,14.58,6.34,2.97,2.35,4.47,5.41,4.47,9.17,0,5.96-2.51,10.42-7.52,13.4-5.02,2.98-11.28,4.47-18.81,4.47-11.28,0-19.67-2.9-25.15-8.7-5.49-5.8-8.54-14.34-9.17-25.62L0,891.14c2.51,27.9,16.29,48.27,41.37,61.12,25.07,12.85,56.57,19.28,94.5,19.28,41.37,0,74.75-6.51,100.14-19.51,25.39-13,38.08-34.08,38.08-63.23,0-16.93-4.31-30.4-12.93-40.43-8.62-10.03-19.83-17.79-33.62-23.28-13.79-5.48-32.28-10.89-55.48-16.22-.94-.31-1.96-.54-3.06-.71-1.1-.15-2.11-.39-3.05-.7-.63-.31-1.26-.47-1.88-.47s-1.26-.15-1.88-.47c-9.4-2.19-16.38-4.07-20.92-5.64-4.55-1.56-7.84-3.36-9.88-5.41-2.04-2.03-3.05-4.77-3.05-8.23,0-5.64,2.19-9.95,6.58-12.93Z"/>
                <path d="M576.88,865.28c3.76-24.13,4.07-45.52,.94-64.18-3.13-18.64-10.18-34.39-21.15-47.25-10.34-12.53-24.06-22.02-41.14-28.45-17.09-6.42-37.07-9.64-59.95-9.64s-44.36,3.29-63.47,9.88c-19.12,6.58-35.57,16.3-49.37,29.15-14.42,13.16-25.55,28.92-33.38,47.25-7.84,18.34-11.75,38.95-11.75,61.82,0,15.99,2.66,30.41,7.99,43.26,5.32,12.86,13,23.97,23.04,33.38,10.65,10.03,24.05,17.71,40.2,23.04,16.14,5.33,34.71,7.99,55.71,7.99,37.61,0,69.18-7.06,94.74-21.16,25.54-14.11,43.02-34.63,52.42-61.59l-105.78-9.88c-3.14,10.04-7.52,17.56-13.17,22.57-5.64,5.02-12.86,7.52-21.63,7.52-11.6,0-19.59-3.68-23.98-11.05-4.39-7.36-5.49-18.26-3.29-32.68h173.02Zm-140.81-84.16c4.23-1.56,9.17-2.35,14.81-2.35s10.34,.79,14.11,2.35c3.76,1.57,6.58,3.92,8.46,7.05,2.19,3.76,3.36,8.55,3.53,14.34,.08,2.85,.02,6.07-.17,9.64h-63.78c2.61-10.86,6.43-18.88,11.52-23.98,3.44-3.13,7.29-5.48,11.52-7.05Z"/>
            </g>
            <g>
                <path d="M521.23,115.83v65.14l-41.48-57.65c-3.01-4.27-8.86-7.49-13.79-7.49h-25.98l-1.58,8.58,5.28,1.19c2.67,.61,4,3.41,3.97,9.97v80.71h22.69v-65.74l42.8,59.51c2.31,3.24,7.71,6.24,12.45,6.24h18.34V115.83h-22.69Z"/>
                <path d="M643.1,115.83v65.14l-41.48-57.65c-3.01-4.27-8.86-7.49-13.79-7.49h-25.98l-1.58,8.58,5.28,1.19c2.67,.61,4,3.41,3.97,9.97v80.71h22.69v-65.74l42.79,59.51c2.3,3.24,7.72,6.24,12.46,6.24h18.33V115.83h-22.69Z"/>
                <path d="M44.1,194.17c0-63.05,43.35-83.64,88.96-83.64h144.08l-22.07,109.97-55.65-84c-1.54-2.44-5.2-4.42-8.1-4.42h-45.44c-2.9,0-5.76,2.33-6.34,5.15l-24.17,118.94c-.56,2.84,1.34,5.17,4.23,5.17h33.36c2.89,0,5.75-2.33,6.33-5.15l16.89-83.32,55.6,83.92c1.55,2.45,5.22,4.42,8.12,4.42h45.49c2.87,0,5.72-2.31,6.33-5.16l26.14-127.79c.57-2.84-.25-7.15-1.82-9.6l-27.78-43.3c-1.55-2.43-5.22-4.44-8.12-4.44H77.46c-7.53,0-6.65-3.12-.54-10.41C107.95,23.51,154.52,0,206.58,0c93.44,0,169.17,75.74,169.17,169.16s-75.73,169.17-169.17,169.17S44.1,258.28,44.1,194.17"/>
            </g>
            <path d="M1074.05,686.43l-31.01,176.88c-2.94,16.57-13.5,24.06-30.57,24.06-14.08,0-33.47-3.75-47.56-9.83l-14.79,80.54c26.42,10.41,53.68,13.32,78.7,13.32,57.73,0,108.82-20.95,119.87-87.09l35-197.88h-109.65Z"/>
            <g>
                <path d="M328.3,433.09c-5.95-7.52-14.34-13.4-25.15-17.63-10.81-4.23-22.65-6.35-35.49-6.35-23.2,0-41.77,5.02-55.71,15.05-10.31,7.42-18.59,17.24-24.88,29.45l6.31-36.5H87.11l-42.32,239.78h109.55l23.04-129.76c2.19-13.17,5.88-22.8,11.05-28.92,5.17-6.11,11.83-9.17,19.98-9.17,3.45,0,6.42,.47,8.93,1.41,2.51,.94,4.54,2.35,6.11,4.24,1.88,2.82,2.97,6.27,3.29,10.34,.31,4.08-.16,9.25-1.41,15.52v.94l-23.5,135.4h109.55l25.39-145.75c3.13-17.55,4.07-32.75,2.82-45.6-1.26-12.85-5.02-23.66-11.29-32.44Z"/>
                <path d="M586.18,421.81c-18.97-8.46-41.14-12.7-66.53-12.7-31.97,0-60.1,6.04-84.39,18.1-24.29,12.07-43.1,29.38-56.42,51.95-13.33,22.57-19.98,49.06-19.98,79.45,0,22.26,5.17,41.37,15.51,57.36,10.34,15.99,24.99,28.14,43.96,36.44,18.96,8.3,41.14,12.46,66.53,12.46,30.72,0,58.37-6.19,82.98-18.57,24.6-12.38,43.8-29.77,57.59-52.19,13.79-22.4,20.69-48.19,20.69-77.34,0-22.25-5.25-41.53-15.75-57.83-10.5-16.29-25.23-28.68-44.19-37.14Zm-52.89,82.28c0,12.22-1.8,27.27-5.41,45.13-3.61,17.87-7.92,29.78-12.93,35.73-5.02,6.9-12.23,10.34-21.63,10.34-7.84,0-13.32-2.03-16.45-6.11-1.88-1.88-3.29-4.46-4.23-7.75-.94-3.29-1.41-7.13-1.41-11.52,0-11.29,1.88-26.1,5.64-44.43,3.76-18.34,7.68-30.33,11.75-35.97,3.13-3.76,6.5-6.5,10.11-8.23,3.6-1.72,7.91-2.59,12.93-2.59,3.44,0,6.42,.39,8.93,1.17,2.5,.79,4.7,1.96,6.58,3.53,2.19,1.88,3.76,4.46,4.7,7.76,.94,3.29,1.41,7.45,1.41,12.46v.47Z"/>
                <path d="M886.37,411.94h-6.11c-15.68,0-29.31,2.28-40.91,6.82-11.6,4.55-21.79,12.07-30.56,22.57-6.19,7.42-11.75,16.7-16.7,27.78l9.18-52h-105.78l-42.32,239.78h109.55l13.63-77.11c3.13-17.23,8.15-31.1,15.04-41.61,6.89-10.5,15.44-18.02,25.63-22.57,10.18-4.54,22.17-6.82,35.97-6.82,5.64,0,11.28,.32,16.92,.94l19.28-97.79h-2.82Z"/>
                <path d="M1034.62,487.63h46.08l12.69-70.52h-46.07l11.91-68.23h-106.26l-12.37,68.23h-33.06l-12.69,70.52h33.53l-14.11,82.28c-3.76,21.94-2.43,39.58,4,52.89,6.42,13.33,17.16,22.89,32.2,28.68,15.05,5.79,33.85,8.69,56.42,8.69,7.21,0,14.88-.39,23.04-1.17,8.15-.79,15.52-1.96,22.09-3.53l11.75-78.99c-8.77,1.88-16.14,2.82-22.09,2.82-7.53,0-13.01-1.33-16.46-4-3.45-2.66-4.54-7.76-3.29-15.28l12.69-72.4Z"/>
            </g>
            <path d="M1374.38,464.83c-1.26-13-5.02-23.58-11.29-31.74-5.96-7.52-14.34-13.4-25.16-17.63-10.81-4.23-22.65-6.35-35.49-6.35-22.89,0-41.22,5.02-55.01,15.05-10.18,7.4-18.35,17.13-24.6,29.14l21.89-123.5h-107.66l-57.47,327.09h109.54l23.04-129.76c2.51-13.78,6.43-23.58,11.76-29.38,5.32-5.79,11.75-8.7,19.27-8.7,3.45,0,6.42,.47,8.93,1.41,2.51,.94,4.54,2.35,6.11,4.23,1.88,2.51,2.89,5.8,3.06,9.87,.16,4.08-.24,9.56-1.18,16.45v.94l-23.5,134.93h109.54l25.86-146.69c2.82-17.23,3.6-32.36,2.35-45.37Z"/>
            <g>
                <path d="M1967.68,408.99c-13.67,2.19-14.55,22.5-35.11,42.05-27.87,26.59-53.59,41.11-124.63,47.8l-305.13,28.99c-43.69,4.13-62.57,.83-62.79,.74l-1.1-.21-.95,.99c-9.39,9.97-9.93,19.72-1.51,30.27l.97,1.28,1.53-.79c5.81-2.82,52.34-7.88,94.08-11.63h-.02c-14.6,9.01-26.65,23.09-27.48,45.22-1.28,34.07,23.65,53.35,62.67,56.11,2.4,.17,4.83,.28,7.34,.33,2.04,.09,4.08,.18,6.19,.16l28.82-.29c.13,3.93,5.67,6.87,12.82,6.87s13.23-3.06,13.52-7.11l10.38-.12c-.06,3.97,6.02,7.24,13.57,7.24s14.02-3.31,14.1-7.52l11.02-.13c-.39,4.34,6.12,7.65,14.08,7.65s14.77-3.48,14.89-7.98c0,0,19.29-.17,30.65-.27,.91,0,1.76-.02,2.55-.02h14.03c62.28,0,93.21-35.74,93.25-71.33,.01-8.97-1.64-16.87-4.6-23.79-.4-.94-.78-1.89-1.23-2.79-1.69-3.37-3.78-6.43-6.15-9.27,45.15-2.82,59.32-1.38,71.29,4.92,14.66,7.69,26,31.26,29.54,38.38,6.04,12.16,9.47,20.3,18.92,19.93,16.85-.5,35.29-39.7,36.72-102.14,1.38-60.16-13.96-96.47-32.23-93.54Zm-318.18,142.58l-1.31,59.22c-3.55,.18-7.05,.35-10.43,.52l1.24-59.19,10.5-.55Zm-81.96,74.81c-3.24-.28-6.18-.81-8.99-1.45-13.15-2.98-21.56-9.62-25.42-18.35-1.77-3.99-2.64-8.38-2.54-13.07,.1-4.42,1.06-8.45,2.54-12.23,3.51-9.01,11.08-16.08,23.25-20.67,6.58-2.48,14.54-4.21,23.93-5.13,2.13-.21,4.08-.52,6.36-.64l25.95-1.35-1.2,59.14c-15.76,.79-26.17,1.32-27.24,1.38l-1.15,.04c-7.17,.28-12.92,5.69-14.06,12.36-.45-.03-.99,0-1.43-.03Zm119.25-17.52c-3.68,.18-7.36,.36-11.02,.55l1.29-59.27,10.98-.57-1.25,59.3Zm106.87,9.02c-1.27-4.48-4.12-8.26-8-10.66-3.06-1.89-6.69-2.96-10.59-2.77-7.48,.37-16.68,.83-26.91,1.34-9.99,.5-20.96,1.04-32.39,1.61l1.31-59.36h.14l-.14-.24-.32-.55,17.72-.97,33.08-1.82h0c4.94-.15,9.48-.05,13.68,.24,6.57,.46,12.08,1.56,16.96,3.06,16.14,4.98,23.57,15.43,24.18,30.81,.71,18.09-11.09,32.71-28.71,39.29Zm154.09-47.25c-4.64-10.05-11.62-24.36-20.1-32.92-3.88-3.93-11.63-7.27-17.82-8.48-8.1-1.61-29.4-2.19-71.62,.99,0,0-2.81,.21-7.16,.5-1.4-.87-2.86-1.68-4.37-2.45-5.8-2.96-12.41-5.16-19.67-6.65l2.21-.2,19.24-1.75s.03,0,.04,0c32.77-3.19,64.65-7.2,64.65-7.2,24.21-3.02,34.55-8.44,48.53-31.63,.32-.58,.8-.5,.72,.16-3.17,23.28-.6,64.05,6.47,89.44,.85,3.14,.5,3.68-1.11,.17Z"/>
                <path d="M1446.99,519.77c161.08-1.86,270.43-131.95,375.25-32.83,20.39-17.74,32.26-38.5,37.36-59.96,192.96-113.38,117.37-250.88-179.9-291.15,181.62,44.62,227.91,167.18,182.32,275.85,4.32-51.73-29.37-104.5-84.32-127.94,52.56-73.02-57.76-146.21-177.02-139.93-23.28,1.24-49.29,4.09-71.9,7.03,32.95-14.6,71.7-43.78,105.48-10.25,4.18-62.27-56.28-88.37-155.97-55.21,43.54,15.67,56.61,37.67,38.75,66.95-26.59,3.6-46.07,6.9-46.07,6.9,54.91,44.87,66.7,73.48,23.65,136.91l-34.64,1.78c65.28,77.24,62.24,153.74-13,221.85Zm322.61-237.52l-224.74,11.37c85.97-24.97,176.36-80.47,224.74-11.37Z"/>
            </g>
        </g>
        <g>
            <path d="M2.83,1119.52c0-54.1,27.05-94.57,78.17-94.57,38.98,0,58.15,23.86,58.15,59.85,0,51.97-28.12,93.29-77.96,93.29-37.06,0-58.36-20.45-58.36-58.57Zm75.4,12.99c5.75-12.99,10.44-44.52,10.44-56.23s-4.69-15.55-11.93-15.55c-5.33,0-10.01,2.56-13.21,9.8-6.39,15.12-10.22,45.79-10.22,57.08,0,10.01,4.05,14.7,11.5,14.7,6.39,0,10.22-2.34,13.42-9.8Z"/>
            <path d="M160.23,1028.58h118l-7.03,40.26c-38.55,26.41-56.23,61.98-63.69,105.65h-52.82c6.6-41.96,27.26-79.45,60.92-104.79h-62.62l7.24-41.11Z"/>
            <path d="M284.41,1105.68c0-12.78,8.95-21.94,22.15-21.94s21.94,9.16,21.94,21.94-9.16,22.36-21.94,22.36-22.15-9.37-22.15-22.36Z"/>
            <path d="M356.19,1119.52c0-54.1,27.05-94.57,78.17-94.57,38.98,0,58.15,23.86,58.15,59.85,0,51.97-28.12,93.29-77.96,93.29-37.06,0-58.36-20.45-58.36-58.57Zm75.4,12.99c5.75-12.99,10.44-44.52,10.44-56.23s-4.69-15.55-11.93-15.55c-5.33,0-10.01,2.56-13.21,9.8-6.39,15.12-10.22,45.79-10.22,57.08,0,10.01,4.05,14.7,11.5,14.7,6.39,0,10.22-2.34,13.42-9.8Z"/>
            <path d="M631.17,1129.32c0,34.08-30.67,48.78-70.71,48.78-36.64,0-62.41-14.48-62.41-42.81,0-19.6,11.08-34.51,33.23-38.98-10.65-4.9-17.25-14.48-17.25-28.54,0-28.33,27.69-42.81,65.18-42.81s58.15,14.7,58.15,38.13c0,16.83-11.29,29.39-27.69,34.72,14.27,4.69,21.51,15.12,21.51,31.52Zm-50.27-1.92c0-8.73-5.33-13.21-14.48-13.21-11.93,0-18.96,7.03-18.96,19.17,0,8.73,5.33,12.99,14.48,12.99,12.78,0,18.96-7.46,18.96-18.96Zm8.31-60.7c0-6.82-4.05-10.86-12.14-10.86-10.86,0-16.4,5.32-16.4,16.4,0,6.6,4.26,11.29,11.93,11.29,10.86,0,16.61-7.03,16.61-16.83Z"/>
            <path d="M658.22,1105.68c0-12.78,8.95-21.94,22.15-21.94s21.94,9.16,21.94,21.94-9.16,22.36-21.94,22.36-22.15-9.37-22.15-22.36Z"/>
            <path d="M730.64,1119.52c0-54.1,27.05-94.57,78.17-94.57,38.98,0,58.15,23.86,58.15,59.85,0,51.97-28.12,93.29-77.96,93.29-37.06,0-58.36-20.45-58.36-58.57Zm75.4,12.99c5.75-12.99,10.44-44.52,10.44-56.23s-4.69-15.55-11.93-15.55c-5.33,0-10.01,2.56-13.21,9.8-6.39,15.12-10.22,45.79-10.22,57.08,0,10.01,4.05,14.7,11.5,14.7,6.39,0,10.22-2.34,13.42-9.8Z"/>
            <path d="M1006.9,1086.08c0,53.46-23,92.01-73.91,92.01-33.87,0-55.17-14.7-57.94-41.53l48.78-7.46c.43,9.37,3.83,15.12,12.14,15.12,11.29,0,18.96-11.08,21.94-34.08-7.46,9.8-17.47,14.06-30.88,14.06-27.69,0-44.73-18.53-44.73-44.52,0-33.65,24.49-54.74,64.33-54.74,41.96,0,60.28,26.2,60.28,61.13Zm-46.22-14.27c0-7.88-4.26-13.42-13.42-13.42-12.78,0-17.68,8.73-17.68,20.87,0,8.09,4.26,13.42,12.99,13.42,11.93,0,18.1-8.52,18.1-20.87Z"/>
            <path d="M1039.48,1118.67l2.13-11.93h53.04l-2.13,10.65c-3.19,15.34-1.28,22.15,6.6,22.15s10.22-5.54,12.14-15.55l17.47-98.62h52.61l-17.47,99.68c-5.96,33.87-21.73,53.04-69.44,53.04-41.96,0-62.2-19.17-54.95-59.43Z"/>
            <path d="M1179.64,1118.46l16.4-93.08h53.68l-16.19,91.8c-2.34,13.21,5.32,18.74,16.61,18.74s19.81-5.11,22.37-18.74l16.19-91.8h53.46l-17.04,96.49c-7.03,38.98-29.82,56.23-80.09,56.23-47.29,0-72.63-19.17-65.39-59.64Z"/>
            <path d="M1332.36,1174.48l26.2-149.1h52.61l-18.74,106.07h66.88l-7.67,43.03h-119.28Z"/>
            <path d="M1474.21,1174.48l10.01-55.8-38.34-93.29h56.44l7.03,22.79c1.49,4.9,4.26,15.34,7.24,25.99,6.39-9.58,11.93-18.74,17.04-26.2l15.34-22.58h59.21l-71.78,95.42-9.37,53.67h-52.82Z"/>
            <path d="M1627.78,1085.45c10.65-2.13,17.68-8.73,19.17-18.32h-17.47l7.46-41.96h43.88l-7.24,41.96c-4.47,24.71-21.3,37.49-49.63,40.26l3.83-21.94Z"/>
            <path d="M1739.82,1138.06h58.57l-6.6,36.42h-127.16c7.03-41.11,30.46-60.49,64.75-76.89,20.66-10.01,30.25-14.27,30.25-25.13,0-7.03-3.62-11.29-10.65-11.29-11.71,0-15.34,8.95-15.12,23.64l-49.84-8.52c3.62-32.16,24.71-51.33,66.46-51.33,36.42,0,59,17.68,59,45.79,0,30.88-21.09,42.81-53.25,58.15-6.39,3.19-11.93,6.18-16.4,9.16Z"/>
            <path d="M1935.35,1131.88c0,31.95-28.33,46.22-64.33,46.22-40.9,0-63.69-18.74-63.9-48.14l50.05-6.6c-1.28,12.35,2.98,20.66,14.48,20.66,8.52,0,14.06-5.11,14.06-14.7,0-7.67-5.11-12.14-13.21-12.14h-14.7l5.96-34.93h14.91c8.95,0,15.34-3.83,15.34-12.57,0-7.67-4.69-11.5-11.71-11.5-11.08,0-14.91,7.45-15.12,18.96l-47.29-8.52c4.26-30.25,30.25-43.66,65.18-43.66s57.51,14.27,57.51,40.68c0,18.11-10.44,28.54-25.35,34.72,12.35,6.6,18.1,17.89,18.1,31.52Z"/>
        </g>
    </g>
</svg>
