<?xml version="1.0" encoding="UTF-8"?>
<svg id="Layer_2" xmlns="http://www.w3.org/2000/svg" viewBox="0 0 1999.83 1183.77">
    <g id="Layer_1-2">
        <g>
            <path d="M1459.62,822.77c4.7-25.7,2.51-46.46-6.58-62.29-9.09-15.82-23.5-27.27-43.25-34.32-19.75-7.05-44.04-10.58-72.87-10.58-19.43,0-36.98,1.1-52.65,3.29-15.67,2.2-29.46,6.58-41.37,13.16-12.54,6.9-22.41,15.12-29.62,24.68-7.21,9.57-11.91,22.65-14.11,39.25l105.31,14.57c.94-11.59,3.6-20.05,7.99-25.39,4.38-5.32,11.59-7.99,21.62-7.99,4.7,0,8.7,.47,11.99,1.41,3.29,.94,6.03,2.52,8.23,4.7,2.19,2.51,3.44,5.33,3.76,8.46,.31,3.14,.15,6.75-.47,10.81l-.47,2.35-.94,6.11-71.93,11.28c-24.44,3.76-44.27,8.23-59.47,13.4-15.21,5.17-27.27,13.01-36.2,23.51-8.93,10.5-13.4,24.68-13.4,42.55,0,14.42,3.45,26.88,10.34,37.37,6.89,10.5,16.37,18.49,28.44,23.98,12.06,5.48,26.09,8.23,42.08,8.23s29.3-2.28,41.84-6.82c12.53-4.54,23.34-11.05,32.44-19.51,3.3-3.07,6.26-6.42,9.06-9.91-.04,1.04-.1,2.01-.13,3.09-.31,10.5-.16,18.88,.47,25.15h105.77l.47-1.88c-2.2-7.52-3.45-15.59-3.76-24.21-.31-8.61,.31-17.16,1.88-25.62l15.51-88.85Zm-130.69,79.21c-7.84,6.43-16.46,9.64-25.86,9.64-7.21,0-12.62-1.64-16.22-4.94-3.61-3.29-5.41-7.75-5.41-13.4,0-7.52,2.51-12.69,7.52-15.51,5.01-2.82,13-5.33,23.98-7.52l33.39-6.64-1.89,9.93c-2.51,12.54-7.68,22.02-15.51,28.44Z"/>
            <path d="M876.29,822.77c4.7-25.7,2.51-46.46-6.58-62.29-9.09-15.82-23.5-27.27-43.25-34.32-19.75-7.05-44.04-10.58-72.87-10.58-19.43,0-36.98,1.1-52.65,3.29-15.68,2.2-29.46,6.58-41.37,13.16-12.54,6.9-22.41,15.12-29.62,24.68-7.21,9.57-11.91,22.65-14.11,39.25l105.31,14.57c.94-11.59,3.6-20.05,7.99-25.39,4.38-5.32,11.59-7.99,21.62-7.99,4.7,0,8.7,.47,11.99,1.41,3.29,.94,6.03,2.52,8.23,4.7,2.19,2.51,3.44,5.33,3.76,8.46,.31,3.14,.15,6.75-.47,10.81l-.47,2.35-.94,6.11-71.93,11.28c-24.44,3.76-44.27,8.23-59.47,13.4-15.21,5.17-27.27,13.01-36.2,23.51-8.93,10.5-13.4,24.68-13.4,42.55,0,14.42,3.45,26.88,10.34,37.37,6.89,10.5,16.37,18.49,28.44,23.98,12.06,5.48,26.09,8.23,42.08,8.23s29.3-2.28,41.84-6.82c12.53-4.54,23.34-11.05,32.44-19.51,3.3-3.07,6.26-6.42,9.06-9.91-.04,1.04-.1,2.01-.13,3.09-.31,10.5-.16,18.88,.47,25.15h105.77l.47-1.88c-2.2-7.52-3.45-15.59-3.76-24.21-.31-8.61,.31-17.16,1.88-25.62l15.51-88.85Zm-130.69,79.21c-7.84,6.43-16.46,9.64-25.86,9.64-7.21,0-12.62-1.64-16.22-4.94-3.61-3.29-5.41-7.75-5.41-13.4,0-7.52,2.51-12.69,7.52-15.51,5.01-2.82,13-5.33,23.98-7.52l33.39-6.64-1.89,9.93c-2.51,12.54-7.68,22.02-15.51,28.44Z"/>
            <path d="M1618.52,876.83c4.07-2.82,7.83-5.48,11.28-7.99,3.45-2.51,6.42-4.85,8.93-7.05l86.03-66.76,12.7-71.46h-224.71l-12.7,72.87h66.76c6.26,0,13.87-.15,22.8-.47,5.49-.19,10.78-.46,15.97-.77-1.1,.75-2.16,1.41-3.27,2.18-3.61,2.52-7.29,5.02-11.05,7.52-5.02,3.14-9.95,6.35-14.81,9.64-4.86,3.29-9.33,6.51-13.4,9.64l-83.21,63.46-13.63,75.69h237.88l12.69-72.87h-117.63c.58-.39,1.18-.78,1.75-1.18,6.11-4.23,11.98-8.38,17.63-12.46Z"/>
            <path d="M1878.49,876.83c4.07-2.82,7.83-5.48,11.28-7.99,3.45-2.51,6.42-4.85,8.93-7.05l86.03-66.76,12.7-71.46h-224.71l-12.7,72.87h66.76c6.26,0,13.87-.15,22.8-.47,5.49-.19,10.78-.46,15.97-.77-1.1,.75-2.16,1.41-3.27,2.18-3.61,2.52-7.29,5.02-11.05,7.52-5.02,3.14-9.95,6.35-14.81,9.64-4.86,3.29-9.33,6.51-13.4,9.64l-83.21,63.46-13.63,75.69h237.88l12.69-72.87h-117.63c.58-.39,1.18-.78,1.75-1.18,6.11-4.23,11.98-8.38,17.63-12.46Z"/>
            <g>
                <path d="M134.92,774.24c4.38-2.97,10.34-4.46,17.86-4.46,10.34,0,17.87,2.75,22.57,8.23,4.7,5.49,7.06,13.87,7.06,25.15l98.72-11.75c-3.76-26.95-17.16-46.31-40.19-58.06-23.03-11.75-52.42-17.63-88.15-17.63-26.32,0-49.21,3.06-68.63,9.17-19.44,6.11-34.55,15.36-45.37,27.74-10.81,12.39-16.22,27.66-16.22,45.83,0,16.3,4.31,29.55,12.93,39.73,8.61,10.19,19.51,17.86,32.67,23.03,13.16,5.17,29.93,10.27,50.3,15.28,.62,.31,1.41,.47,2.35,.47s1.72,.16,2.35,.47c8.77,1.88,16.53,3.76,23.27,5.64,6.73,1.88,11.59,4,14.57,6.34,2.97,2.35,4.46,5.41,4.46,9.17,0,5.96-2.51,10.42-7.52,13.4-5.02,2.98-11.28,4.47-18.8,4.47-11.28,0-19.67-2.9-25.15-8.7-5.49-5.79-8.54-14.34-9.17-25.62L0,891.07c2.51,27.9,16.29,48.27,41.37,61.11,25.07,12.85,56.57,19.28,94.49,19.28,41.37,0,74.75-6.51,100.13-19.51,25.39-13,38.08-34.08,38.08-63.23,0-16.93-4.31-30.4-12.93-40.43-8.62-10.03-19.83-17.79-33.61-23.27-13.79-5.48-32.28-10.89-55.47-16.22-.94-.31-1.96-.54-3.06-.71-1.1-.15-2.11-.39-3.05-.7-.63-.31-1.26-.47-1.88-.47s-1.26-.15-1.88-.47c-9.4-2.19-16.38-4.07-20.92-5.64-4.55-1.56-7.84-3.36-9.88-5.41-2.04-2.03-3.05-4.77-3.05-8.23,0-5.64,2.19-9.95,6.58-12.93Z"/>
                <path d="M576.84,865.21c3.76-24.13,4.07-45.52,.94-64.17-3.13-18.64-10.18-34.39-21.15-47.24-10.34-12.53-24.06-22.02-41.14-28.45-17.08-6.42-37.06-9.64-59.94-9.64s-44.35,3.29-63.47,9.88c-19.12,6.58-35.57,16.3-49.36,29.14-14.42,13.16-25.54,28.91-33.38,47.25-7.84,18.34-11.75,38.94-11.75,61.82,0,15.98,2.66,30.4,7.99,43.25,5.32,12.85,13,23.97,23.03,33.38,10.65,10.03,24.05,17.71,40.19,23.03,16.14,5.33,34.71,7.99,55.71,7.99,37.61,0,69.18-7.06,94.73-21.16,25.54-14.11,43.01-34.63,52.42-61.58l-105.77-9.88c-3.14,10.03-7.52,17.56-13.16,22.57-5.64,5.02-12.85,7.52-21.62,7.52-11.6,0-19.59-3.68-23.98-11.05-4.39-7.36-5.49-18.26-3.29-32.68h173Zm-140.8-84.15c4.23-1.56,9.17-2.35,14.81-2.35s10.34,.79,14.11,2.35c3.76,1.57,6.58,3.92,8.46,7.05,2.19,3.76,3.36,8.54,3.53,14.34,.08,2.85,.02,6.07-.17,9.64h-63.77c2.61-10.86,6.43-18.88,11.52-23.98,3.44-3.13,7.28-5.48,11.52-7.05Z"/>
            </g>
            <g>
                <path d="M521.18,115.82v65.13l-41.48-57.65c-3.01-4.27-8.86-7.49-13.78-7.49h-25.98l-1.58,8.58,5.28,1.19c2.67,.61,4,3.41,3.97,9.97v80.7h22.69v-65.74l42.79,59.5c2.31,3.24,7.71,6.24,12.45,6.24h18.34V115.82h-22.69Z"/>
                <path d="M643.05,115.82v65.13l-41.48-57.65c-3.01-4.27-8.86-7.49-13.78-7.49h-25.98l-1.58,8.58,5.28,1.19c2.67,.61,4,3.41,3.97,9.97v80.7h22.69v-65.74l42.79,59.5c2.3,3.24,7.72,6.24,12.46,6.24h18.33V115.82h-22.68Z"/>
                <path d="M44.1,194.16c0-63.05,43.35-83.63,88.95-83.63h144.07l-22.06,109.96-55.65-84c-1.54-2.44-5.2-4.42-8.1-4.42h-45.43c-2.9,0-5.76,2.33-6.34,5.15l-24.17,118.93c-.56,2.83,1.34,5.17,4.23,5.17h33.36c2.89,0,5.75-2.33,6.33-5.15l16.89-83.31,55.59,83.91c1.55,2.45,5.22,4.42,8.11,4.42h45.49c2.87,0,5.72-2.31,6.33-5.16l26.14-127.78c.57-2.84-.25-7.15-1.82-9.6l-27.78-43.3c-1.55-2.43-5.22-4.44-8.12-4.44H77.46c-7.53,0-6.65-3.12-.54-10.41C107.94,23.5,154.5,0,206.56,0c93.43,0,169.15,75.73,169.15,169.15s-75.73,169.16-169.15,169.16S44.1,258.25,44.1,194.16"/>
            </g>
            <path d="M1073.96,686.37l-31.01,176.86c-2.94,16.57-13.5,24.06-30.57,24.06-14.08,0-33.47-3.75-47.55-9.83l-14.79,80.53c26.41,10.41,53.67,13.32,78.7,13.32,57.73,0,108.81-20.95,119.86-87.09l35-197.86h-109.64Z"/>
            <g>
                <path d="M328.27,433.06c-5.95-7.52-14.34-13.4-25.15-17.63-10.81-4.23-22.65-6.35-35.49-6.35-23.2,0-41.77,5.02-55.71,15.05-10.31,7.42-18.59,17.24-24.88,29.44l6.31-36.5H87.1l-42.31,239.76h109.54l23.03-129.75c2.19-13.16,5.88-22.8,11.05-28.91,5.17-6.11,11.83-9.17,19.98-9.17,3.45,0,6.42,.47,8.93,1.41,2.51,.94,4.54,2.35,6.11,4.24,1.88,2.82,2.97,6.27,3.29,10.34,.31,4.08-.16,9.25-1.41,15.52v.94l-23.5,135.39h109.54l25.39-145.73c3.13-17.55,4.07-32.75,2.82-45.6-1.26-12.85-5.02-23.66-11.29-32.44Z"/>
                <path d="M586.13,421.78c-18.97-8.46-41.14-12.7-66.52-12.7-31.97,0-60.1,6.04-84.38,18.1-24.29,12.07-43.1,29.38-56.41,51.95-13.33,22.57-19.98,49.05-19.98,79.45,0,22.26,5.17,41.37,15.51,57.35,10.34,15.98,24.99,28.14,43.96,36.44,18.96,8.3,41.14,12.46,66.52,12.46,30.71,0,58.37-6.19,82.97-18.57,24.6-12.38,43.8-29.77,57.59-52.18,13.79-22.4,20.69-48.19,20.69-77.33,0-22.25-5.25-41.52-15.75-57.82-10.5-16.29-25.23-28.68-44.19-37.14Zm-52.89,82.27c0,12.22-1.8,27.26-5.41,45.13-3.61,17.87-7.92,29.78-12.92,35.73-5.02,6.9-12.23,10.34-21.63,10.34-7.84,0-13.32-2.03-16.45-6.11-1.88-1.88-3.29-4.46-4.23-7.75-.94-3.29-1.41-7.13-1.41-11.52,0-11.29,1.88-26.09,5.64-44.42,3.76-18.34,7.68-30.32,11.75-35.96,3.13-3.76,6.5-6.5,10.1-8.23,3.6-1.72,7.91-2.59,12.93-2.59,3.44,0,6.42,.39,8.93,1.17,2.5,.79,4.7,1.96,6.58,3.53,2.19,1.88,3.76,4.46,4.7,7.76,.94,3.29,1.41,7.45,1.41,12.46v.47Z"/>
                <path d="M886.3,411.9h-6.11c-15.67,0-29.31,2.28-40.9,6.82-11.6,4.54-21.78,12.07-30.56,22.57-6.19,7.41-11.75,16.7-16.69,27.78l9.18-51.99h-105.77l-42.31,239.76h109.54l13.63-77.1c3.13-17.23,8.15-31.1,15.04-41.6,6.89-10.5,15.44-18.02,25.62-22.57,10.18-4.54,22.17-6.82,35.96-6.82,5.64,0,11.28,.32,16.92,.94l19.28-97.78h-2.82Z"/>
                <path d="M1034.53,487.59h46.07l12.69-70.51h-46.07l11.9-68.22h-106.25l-12.36,68.22h-33.06l-12.69,70.51h33.53l-14.11,82.27c-3.76,21.94-2.43,39.57,4,52.89,6.42,13.33,17.16,22.89,32.2,28.68,15.05,5.79,33.85,8.69,56.42,8.69,7.21,0,14.88-.39,23.03-1.17,8.15-.79,15.51-1.96,22.09-3.53l11.75-78.98c-8.77,1.88-16.14,2.82-22.09,2.82-7.52,0-13.01-1.33-16.46-4-3.45-2.66-4.54-7.76-3.29-15.28l12.69-72.4Z"/>
            </g>
            <path d="M1374.26,464.79c-1.26-13-5.02-23.58-11.29-31.74-5.95-7.52-14.34-13.4-25.15-17.63-10.81-4.23-22.65-6.35-35.49-6.35-22.89,0-41.22,5.02-55,15.05-10.18,7.4-18.35,17.13-24.6,29.13l21.89-123.49h-107.66l-57.46,327.06h109.53l23.03-129.75c2.51-13.78,6.43-23.58,11.76-29.38,5.32-5.79,11.75-8.7,19.27-8.7,3.45,0,6.42,.47,8.93,1.41,2.51,.94,4.54,2.35,6.11,4.23,1.88,2.51,2.89,5.8,3.06,9.87,.16,4.08-.24,9.56-1.18,16.45v.94l-23.5,134.92h109.53l25.85-146.67c2.82-17.23,3.6-32.36,2.35-45.37Z"/>
            <g>
                <path d="M1967.51,408.95c-13.67,2.19-14.55,22.49-35.11,42.05-27.86,26.59-53.58,41.1-124.62,47.8l-305.1,28.99c-43.68,4.13-62.56,.83-62.78,.74l-1.1-.21-.95,.99c-9.39,9.97-9.93,19.72-1.51,30.27l.97,1.28,1.53-.79c5.81-2.82,52.34-7.88,94.08-11.63h-.02c-14.59,9.01-26.64,23.09-27.48,45.22-1.28,34.06,23.65,53.35,62.67,56.1,2.4,.17,4.83,.28,7.33,.33,2.04,.09,4.08,.18,6.19,.16l28.82-.29c.13,3.93,5.67,6.87,12.82,6.87s13.23-3.06,13.52-7.11l10.38-.12c-.06,3.97,6.02,7.24,13.57,7.24s14.01-3.31,14.1-7.52l11.02-.13c-.39,4.34,6.12,7.65,14.08,7.65s14.76-3.48,14.89-7.98c0,0,19.29-.17,30.64-.27,.91,0,1.76-.02,2.55-.02h14.03c62.27,0,93.2-35.74,93.24-71.32,.01-8.97-1.64-16.87-4.6-23.79-.4-.94-.78-1.89-1.23-2.79-1.69-3.37-3.78-6.43-6.15-9.27,45.14-2.82,59.32-1.38,71.28,4.92,14.66,7.69,26,31.26,29.54,38.37,6.03,12.16,9.47,20.3,18.92,19.93,16.85-.5,35.29-39.7,36.72-102.13,1.38-60.16-13.96-96.47-32.23-93.53Zm-318.15,142.56l-1.31,59.21c-3.55,.18-7.05,.35-10.43,.52l1.24-59.19,10.5-.55Zm-81.95,74.8c-3.24-.28-6.18-.81-8.99-1.45-13.15-2.98-21.56-9.62-25.42-18.34-1.77-3.99-2.64-8.38-2.54-13.07,.1-4.42,1.06-8.45,2.54-12.23,3.51-9.01,11.08-16.08,23.24-20.67,6.58-2.48,14.54-4.21,23.93-5.13,2.13-.21,4.07-.52,6.35-.64l25.95-1.35-1.2,59.14c-15.76,.79-26.16,1.32-27.23,1.38l-1.15,.04c-7.17,.28-12.92,5.69-14.06,12.36-.45-.03-.99,0-1.43-.03Zm119.24-17.52c-3.68,.18-7.36,.36-11.02,.55l1.29-59.27,10.98-.57-1.25,59.29Zm106.86,9.02c-1.27-4.48-4.12-8.26-8-10.66-3.06-1.89-6.68-2.96-10.59-2.77-7.48,.37-16.68,.83-26.91,1.34-9.99,.5-20.96,1.04-32.39,1.61l1.31-59.35h.14l-.14-.24-.32-.55,17.72-.97,33.08-1.82h0c4.94-.15,9.48-.05,13.68,.24,6.57,.46,12.08,1.56,16.95,3.06,16.13,4.98,23.57,15.43,24.18,30.81,.71,18.09-11.08,32.71-28.7,39.29Zm154.07-47.25c-4.64-10.05-11.62-24.36-20.1-32.92-3.88-3.93-11.63-7.27-17.82-8.47-8.1-1.61-29.4-2.19-71.61,.99,0,0-2.81,.21-7.16,.5-1.4-.87-2.86-1.68-4.37-2.45-5.8-2.96-12.41-5.16-19.67-6.64l2.21-.2,19.23-1.75s.03,0,.04,0c32.77-3.19,64.64-7.2,64.64-7.2,24.21-3.02,34.55-8.44,48.53-31.63,.32-.58,.8-.5,.72,.16-3.17,23.28-.6,64.05,6.47,89.43,.85,3.14,.5,3.68-1.11,.17Z"/>
                <path d="M1446.87,519.72c161.07-1.86,270.41-131.94,375.22-32.83,20.38-17.74,32.26-38.49,37.36-59.95,192.94-113.37,117.36-250.85-179.88-291.13,181.6,44.61,227.89,167.17,182.31,275.83,4.32-51.73-29.37-104.49-84.31-127.93,52.55-73.02-57.76-146.2-177.01-139.92-23.28,1.24-49.28,4.09-71.9,7.03,32.95-14.59,71.69-43.78,105.47-10.25,4.18-62.27-56.27-88.36-155.96-55.2,43.54,15.67,56.61,37.67,38.74,66.94-26.59,3.6-46.06,6.9-46.06,6.9,54.91,44.87,66.69,73.47,23.65,136.9l-34.63,1.78c65.27,77.24,62.23,153.73-13,221.83Zm322.58-237.5l-224.72,11.37c85.96-24.97,176.34-80.46,224.72-11.37Z"/>
            </g>
        </g>
        <g>
            <path d="M.49,1125.2c0-54.1,27.05-94.57,78.17-94.57,38.98,0,58.15,23.86,58.15,59.85,0,51.97-28.12,93.29-77.96,93.29-37.06,0-58.36-20.45-58.36-58.57Zm75.4,12.99c5.75-12.99,10.44-44.52,10.44-56.23s-4.69-15.55-11.93-15.55c-5.33,0-10.01,2.56-13.21,9.8-6.39,15.12-10.22,45.79-10.22,57.08,0,10.01,4.05,14.7,11.5,14.7,6.39,0,10.22-2.34,13.42-9.8Z"/>
            <path d="M157.89,1034.25h118l-7.03,40.26c-38.55,26.41-56.23,61.98-63.69,105.65h-52.82c6.6-41.96,27.26-79.45,60.92-104.79h-62.62l7.24-41.11Z"/>
            <path d="M290.59,1111.35c0-12.78,8.95-21.94,22.15-21.94s21.94,9.16,21.94,21.94-9.16,22.36-21.94,22.36-22.15-9.37-22.15-22.36Z"/>
            <path d="M362.37,1125.2c0-54.1,27.05-94.57,78.17-94.57,38.98,0,58.15,23.86,58.15,59.85,0,51.97-28.12,93.29-77.96,93.29-37.06,0-58.36-20.45-58.36-58.57Zm75.4,12.99c5.75-12.99,10.44-44.52,10.44-56.23s-4.69-15.55-11.93-15.55c-5.32,0-10.01,2.56-13.21,9.8-6.39,15.12-10.22,45.79-10.22,57.08,0,10.01,4.05,14.7,11.5,14.7,6.39,0,10.22-2.34,13.42-9.8Z"/>
            <path d="M637.35,1135c0,34.08-30.67,48.78-70.71,48.78-36.64,0-62.41-14.48-62.41-42.81,0-19.6,11.08-34.51,33.23-38.98-10.65-4.9-17.25-14.48-17.25-28.54,0-28.33,27.69-42.81,65.18-42.81s58.15,14.7,58.15,38.13c0,16.83-11.29,29.39-27.69,34.72,14.27,4.69,21.51,15.12,21.51,31.52Zm-50.27-1.92c0-8.73-5.33-13.21-14.48-13.21-11.93,0-18.96,7.03-18.96,19.17,0,8.73,5.33,12.99,14.48,12.99,12.78,0,18.96-7.46,18.96-18.96Zm8.31-60.7c0-6.82-4.05-10.86-12.14-10.86-10.86,0-16.4,5.33-16.4,16.4,0,6.6,4.26,11.29,11.93,11.29,10.86,0,16.61-7.03,16.61-16.83Z"/>
            <path d="M668.66,1111.35c0-12.78,8.95-21.94,22.15-21.94s21.94,9.16,21.94,21.94-9.16,22.36-21.94,22.36-22.15-9.37-22.15-22.36Z"/>
            <path d="M744.91,1125.2c0-54.1,27.05-94.57,78.17-94.57,38.98,0,58.15,23.86,58.15,59.85,0,51.97-28.12,93.29-77.96,93.29-37.06,0-58.36-20.45-58.36-58.57Zm75.4,12.99c5.75-12.99,10.44-44.52,10.44-56.23s-4.69-15.55-11.93-15.55c-5.33,0-10.01,2.56-13.21,9.8-6.39,15.12-10.22,45.79-10.22,57.08,0,10.01,4.05,14.7,11.5,14.7,6.39,0,10.22-2.34,13.42-9.8Z"/>
            <path d="M1021.17,1091.76c0,53.46-23,92.02-73.91,92.02-33.87,0-55.17-14.7-57.94-41.53l48.78-7.46c.43,9.37,3.83,15.12,12.14,15.12,11.29,0,18.96-11.08,21.94-34.08-7.46,9.8-17.47,14.06-30.88,14.06-27.69,0-44.73-18.53-44.73-44.52,0-33.65,24.49-54.74,64.33-54.74,41.96,0,60.28,26.2,60.28,61.13Zm-46.22-14.27c0-7.88-4.26-13.42-13.42-13.42-12.78,0-17.68,8.73-17.68,20.87,0,8.09,4.26,13.42,12.99,13.42,11.93,0,18.1-8.52,18.1-20.87Z"/>
            <path d="M1066.54,1124.35l2.13-11.93h53.04l-2.13,10.65c-3.19,15.34-1.28,22.15,6.6,22.15s10.22-5.54,12.14-15.55l17.47-98.62h52.61l-17.47,99.68c-5.96,33.87-21.73,53.04-69.44,53.04-41.96,0-62.2-19.17-54.95-59.43Z"/>
            <path d="M1210.95,1124.13l16.4-93.08h53.68l-16.19,91.8c-2.34,13.21,5.32,18.74,16.61,18.74s19.81-5.11,22.37-18.74l16.19-91.8h53.46l-17.04,96.49c-7.03,38.98-29.82,56.23-80.09,56.23-47.29,0-72.63-19.17-65.39-59.64Z"/>
            <path d="M1367.5,1180.15l26.2-149.1h52.61l-18.74,106.07h66.88l-7.67,43.03h-119.28Z"/>
            <path d="M1499.99,1180.15l26.2-149.1h52.61l-26.2,149.1h-52.61Z"/>
            <path d="M1628.64,1091.12c10.65-2.13,17.68-8.73,19.17-18.32h-17.47l7.46-41.96h43.88l-7.24,41.96c-4.47,24.71-21.3,37.49-49.63,40.26l3.83-21.94Z"/>
            <path d="M1741.53,1143.73h58.57l-6.6,36.42h-127.16c7.03-41.11,30.46-60.49,64.75-76.89,20.66-10.01,30.25-14.27,30.25-25.13,0-7.03-3.62-11.29-10.65-11.29-11.71,0-15.34,8.95-15.12,23.64l-49.84-8.52c3.62-32.16,24.71-51.33,66.46-51.33,36.42,0,59,17.68,59,45.79,0,30.88-21.09,42.81-53.25,58.15-6.39,3.19-11.93,6.18-16.4,9.16Z"/>
            <path d="M1939.83,1137.55c0,31.95-28.33,46.22-64.33,46.22-40.9,0-63.69-18.74-63.9-48.14l50.05-6.6c-1.28,12.35,2.98,20.66,14.48,20.66,8.52,0,14.06-5.11,14.06-14.7,0-7.67-5.11-12.14-13.21-12.14h-14.7l5.96-34.93h14.91c8.95,0,15.34-3.83,15.34-12.57,0-7.67-4.69-11.5-11.71-11.5-11.08,0-14.91,7.45-15.12,18.96l-47.29-8.52c4.26-30.25,30.25-43.66,65.18-43.66s57.51,14.27,57.51,40.68c0,18.1-10.44,28.54-25.35,34.72,12.35,6.6,18.1,17.89,18.1,31.52Z"/>
        </g>
    </g>
</svg>
