<svg width="104" height="50" viewBox="0 0 124 60" fill="none" xmlns="http://www.w3.org/2000/svg">
<path d="M90.3583 50.8162C90.6497 49.229 90.5133 47.9467 89.951 46.9687C89.388 45.9914 88.4958 45.2844 87.2738 44.8489C86.0512 44.4134 84.5476 44.1957 82.7627 44.1957C81.5599 44.1957 80.4736 44.2638 79.5033 44.3992C78.533 44.5347 77.6793 44.8056 76.9421 45.212C76.1659 45.6382 75.5545 46.146 75.1088 46.7362C74.6624 47.3269 74.3716 48.1347 74.2358 49.1603L80.7551 50.0603C80.8134 49.3446 80.9783 48.8219 81.2499 48.4923C81.5214 48.1638 81.9672 47.9986 82.5884 47.9986C82.8798 47.9986 83.1272 48.0277 83.3306 48.0859C83.5346 48.144 83.7038 48.2411 83.8402 48.3766C83.9754 48.5318 84.0535 48.7057 84.0727 48.8993C84.0919 49.0929 84.082 49.3162 84.0436 49.5673L84.0144 49.7127L83.9562 50.09L79.5033 50.7865C77.9899 51.0191 76.7629 51.2943 75.8218 51.6141C74.8806 51.9333 74.1335 52.4177 73.5805 53.0659C73.0274 53.7148 72.7509 54.5901 72.7509 55.6936C72.7509 56.5843 72.9642 57.3532 73.3913 58.0021C73.8179 58.6509 74.4051 59.1445 75.1522 59.4829C75.8986 59.8213 76.7673 59.9907 77.7568 59.9907C78.7463 59.9907 79.5709 59.8503 80.3465 59.5695C81.1221 59.2893 81.7917 58.8872 82.3547 58.3645C82.5587 58.1746 82.7422 57.968 82.9158 57.7528C82.9133 57.8171 82.9096 57.8765 82.9077 57.9433C82.8885 58.5922 82.8978 59.1093 82.9369 59.4965H89.4847L89.5139 59.3802C89.3781 58.9157 89.3 58.4177 89.2807 57.8852C89.2615 57.3532 89.3 56.8255 89.3973 56.3029L90.3577 50.8156L90.3583 50.8162ZM82.2679 55.7084C81.7824 56.1055 81.2492 56.3035 80.6671 56.3035C80.2207 56.3035 79.8859 56.202 79.6633 55.9985C79.4401 55.7956 79.3285 55.5198 79.3285 55.1709C79.3285 54.7063 79.4835 54.3872 79.7941 54.2127C80.1041 54.0383 80.5989 53.8837 81.2784 53.7482L83.3455 53.3381L83.2283 53.9517C83.0727 54.7261 82.7527 55.3113 82.2679 55.7084Z" fill="black"/>
<path d="M54.247 50.8162C54.5384 49.229 54.402 47.9467 53.8396 46.9687C53.2767 45.9914 52.3845 45.2844 51.1625 44.8489C49.9398 44.4134 48.4363 44.1957 46.6513 44.1957C45.4485 44.1957 44.3623 44.2638 43.392 44.3992C42.4217 44.5347 41.5679 44.8056 40.8308 45.212C40.0545 45.6382 39.4432 46.146 38.9974 46.7362C38.551 47.3269 38.2602 48.1347 38.1245 49.1603L44.6438 50.0603C44.7021 49.3446 44.867 48.8219 45.1385 48.4923C45.4101 48.1638 45.8559 47.9986 46.4771 47.9986C46.7685 47.9986 47.0159 48.0277 47.2193 48.0859C47.4232 48.144 47.5925 48.2411 47.7289 48.3766C47.8641 48.5318 47.9422 48.7057 47.9614 48.8993C47.9806 49.0929 47.9707 49.3162 47.9323 49.5673L47.9031 49.7127L47.8448 50.09L43.392 50.7865C41.8786 51.0191 40.6516 51.2943 39.7104 51.6141C38.7693 51.9333 38.0222 52.4177 37.4691 53.0659C36.9161 53.7148 36.6396 54.5901 36.6396 55.6936C36.6396 56.5843 36.8528 57.3532 37.28 58.0021C37.7066 58.6509 38.2937 59.1445 39.0408 59.4829C39.7873 59.8213 40.6559 59.9907 41.6454 59.9907C42.635 59.9907 43.4596 59.8503 44.2352 59.5695C45.0108 59.2893 45.6804 58.8872 46.2434 58.3645C46.4474 58.1746 46.6309 57.968 46.8045 57.7528C46.802 57.8171 46.7983 57.8765 46.7964 57.9433C46.7772 58.5922 46.7865 59.1093 46.8256 59.4965H53.3734L53.4025 59.3802C53.2667 58.9157 53.1886 58.4177 53.1694 57.8852C53.1502 57.3532 53.1886 56.8255 53.286 56.3029L54.2463 50.8156L54.247 50.8162ZM46.1566 55.7084C45.6711 56.1055 45.1379 56.3035 44.5557 56.3035C44.1093 56.3035 43.7745 56.202 43.552 55.9985C43.3288 55.7956 43.2172 55.5198 43.2172 55.1709C43.2172 54.7063 43.3722 54.3872 43.6828 54.2127C43.9928 54.0383 44.4875 53.8837 45.1671 53.7482L47.2341 53.3381L47.117 53.9517C46.9613 54.7261 46.6414 55.3113 46.1566 55.7084Z" fill="black"/>
<path d="M100.195 54.1547C100.447 53.9803 100.68 53.8163 100.893 53.6611C101.107 53.5064 101.291 53.3611 101.446 53.2256L106.772 49.1029L107.558 44.6894H93.6474L92.8612 49.1901H96.9936C97.3811 49.1901 97.8523 49.1808 98.4053 49.161C98.7451 49.1493 99.0724 49.1326 99.3936 49.1134C99.3254 49.1592 99.2603 49.2006 99.1908 49.2482C98.9676 49.4035 98.7395 49.5581 98.507 49.7128C98.1964 49.9064 97.8907 50.105 97.59 50.3078C97.2887 50.5113 97.0128 50.7099 96.7604 50.9035L91.6095 54.8234L90.7656 59.4979H105.491L106.277 54.9972H98.9949C99.0303 54.9731 99.0675 54.9489 99.1028 54.9248C99.481 54.6638 99.8443 54.4071 100.194 54.1553L100.195 54.1547Z" fill="black"/>
<path d="M116.289 54.1547C116.54 53.9803 116.773 53.8163 116.987 53.6611C117.2 53.5064 117.384 53.3611 117.54 53.2256L122.866 49.1029L123.652 44.6894H109.741L108.955 49.1901H113.087C113.474 49.1901 113.946 49.1808 114.499 49.161C114.838 49.1493 115.166 49.1326 115.487 49.1134C115.419 49.1592 115.353 49.2006 115.284 49.2482C115.061 49.4035 114.833 49.5581 114.6 49.7128C114.29 49.9064 113.985 50.105 113.683 50.3078C113.382 50.5113 113.106 50.7099 112.854 50.9035L107.703 54.8234L106.859 59.4979H121.585L122.37 54.9972H115.088C115.124 54.9731 115.161 54.9489 115.196 54.9248C115.574 54.6638 115.938 54.4071 116.287 54.1553L116.289 54.1547Z" fill="black"/>
<path d="M8.35265 47.8186C8.62421 47.6349 8.99311 47.5428 9.45873 47.5428C10.0992 47.5428 10.5648 47.7122 10.8556 48.0506C11.147 48.3896 11.2921 48.9073 11.2921 49.6038L17.4034 48.8776C17.1709 47.2131 16.3414 46.0174 14.9154 45.2918C13.4894 44.5662 11.6703 44.2031 9.45873 44.2031C7.82937 44.2031 6.41267 44.3918 5.20987 44.7691C4.00645 45.1464 3.07086 45.718 2.40126 46.4825C1.73166 47.2477 1.39748 48.191 1.39748 49.3131C1.39748 50.3201 1.66408 51.1379 2.1979 51.7669C2.7311 52.396 3.40567 52.8705 4.22035 53.1896C5.03503 53.5088 6.07291 53.8237 7.33461 54.1336C7.37305 54.1527 7.42203 54.1626 7.47969 54.1626C7.53735 54.1626 7.58633 54.1725 7.62539 54.1917C8.16851 54.308 8.64839 54.4243 9.06627 54.5406C9.48291 54.6569 9.78361 54.7874 9.96838 54.9321C10.1525 55.0775 10.2449 55.2662 10.2449 55.4981C10.2449 55.8662 10.0893 56.142 9.77927 56.3258C9.46865 56.5101 9.08115 56.6016 8.61491 56.6016C7.91679 56.6016 7.39723 56.4229 7.05809 56.0641C6.71833 55.706 6.52923 55.1783 6.49079 54.4818L0 55.0342C0.155 56.7569 1.00874 58.015 2.56122 58.8087C4.11309 59.6023 6.06299 59.9994 8.41093 59.9994C10.9722 59.9994 13.038 59.5973 14.6097 58.7944C16.1814 57.9915 16.9669 56.6895 16.9669 54.8894C16.9669 53.8441 16.7003 53.0121 16.1665 52.3923C15.6327 51.7731 14.9389 51.2937 14.0858 50.9548C13.2321 50.6164 12.0875 50.2824 10.6516 49.9533C10.5933 49.9341 10.5301 49.9199 10.4625 49.9094C10.3943 49.9001 10.3317 49.8853 10.2734 49.8661C10.2344 49.8469 10.1959 49.837 10.1569 49.837C10.1178 49.837 10.0794 49.8277 10.0403 49.8079C9.45811 49.6731 9.02659 49.5568 8.74573 49.4597C8.46425 49.3632 8.26027 49.2519 8.13441 49.1257C8.00793 49.0001 7.94531 48.8306 7.94531 48.6178C7.94531 48.2696 8.08047 48.0036 8.35265 47.8193V47.8186Z" fill="black"/>
<path d="M35.709 53.437C35.9421 51.9469 35.9607 50.6257 35.7672 49.4739C35.5732 48.3228 35.1367 47.3497 34.4578 46.5561C33.8173 45.7823 32.9686 45.1965 31.9114 44.7994C30.8537 44.4029 29.6168 44.2043 28.2007 44.2043C26.7847 44.2043 25.4548 44.4079 24.2718 44.8143C23.0882 45.2206 22.0696 45.8207 21.2158 46.6143C20.323 47.4271 19.6342 48.4001 19.1493 49.5327C18.6645 50.6652 18.4221 51.9376 18.4221 53.3504C18.4221 54.3377 18.5864 55.2284 18.9168 56.022C19.2461 56.8156 19.7216 57.5022 20.3428 58.0837C21.0025 58.7029 21.8315 59.1773 22.8309 59.5064C23.8297 59.8355 24.9798 60 26.2794 60C28.6075 60 30.5617 59.5645 32.1433 58.6936C33.7243 57.8227 34.8062 56.5546 35.3884 54.89L28.8406 54.2801C28.6465 54.8999 28.375 55.3645 28.0259 55.6738C27.6768 55.9837 27.2304 56.1383 26.6873 56.1383C25.9694 56.1383 25.4746 55.9107 25.203 55.456C24.9309 55.0014 24.8633 54.3284 24.9991 53.4377H35.709V53.437ZM26.9924 48.2399C27.2546 48.1434 27.5597 48.0945 27.9093 48.0945C28.259 48.0945 28.5498 48.1434 28.7823 48.2399C29.0154 48.337 29.1896 48.4823 29.3062 48.6753C29.442 48.9079 29.5145 49.203 29.5244 49.5611C29.5294 49.7374 29.5257 49.936 29.5139 50.1562H25.5664C25.7276 49.4856 25.9644 48.9902 26.28 48.6753C26.4933 48.4823 26.7307 48.337 26.993 48.2399H26.9924Z" fill="black"/>
<path d="M32.2642 7.1531V11.1756L29.6962 7.61517C29.5102 7.35166 29.1475 7.15248 28.843 7.15248H27.2348L27.1368 7.68259L27.4635 7.75558C27.6291 7.79332 27.7109 7.9659 27.7091 8.37167V13.3561H29.114V9.29581L31.7632 12.9707C31.9058 13.1711 32.2406 13.3561 32.5339 13.3561H33.6691V7.1531H32.2642Z" fill="black"/>
<path d="M39.8084 7.1531V11.1756L37.2403 7.61517C37.0543 7.35166 36.6916 7.15248 36.3872 7.15248H34.7789L34.681 7.68259L35.0077 7.75558C35.1733 7.79332 35.2551 7.9659 35.2532 8.37167V13.3561H36.6582V9.29581L39.3068 12.9707C39.4494 13.1711 39.7848 13.3561 40.0781 13.3561H41.2127V7.1531H39.8084Z" fill="black"/>
<path d="M2.72985 11.9915C2.72985 8.09762 5.41321 6.82585 8.2367 6.82585H17.1554L15.7895 13.6171L12.3448 8.42917C12.2493 8.27824 12.023 8.15638 11.8432 8.15638H9.03092C8.85112 8.15638 8.67442 8.29989 8.63846 8.47494L7.1424 15.8204C7.10768 15.9954 7.22486 16.1396 7.40404 16.1396H9.46926C9.64844 16.1396 9.82514 15.9954 9.8611 15.821L10.9064 10.6758L14.348 15.8581C14.4441 16.0091 14.6711 16.1315 14.8502 16.1315H17.6663C17.8442 16.1315 18.0203 15.9886 18.0581 15.813L19.6763 7.92133C19.7117 7.74566 19.6608 7.47967 19.5635 7.32813L17.8436 4.65346C17.7475 4.50315 17.5206 4.37943 17.3414 4.37943H4.79507C4.32883 4.37943 4.38339 4.18706 4.76159 3.73674C6.68236 1.45177 9.56474 0 12.7875 0C18.5709 0 23.2587 4.67758 23.2587 10.4469C23.2587 16.2163 18.5709 20.8945 12.7875 20.8945C7.00414 20.8945 2.72985 15.9503 2.72985 11.9915Z" fill="black"/>
<path d="M66.4839 42.392L64.5644 53.3153C64.3821 54.3384 63.7286 54.801 62.6722 54.801C61.8011 54.801 60.6001 54.5691 59.7284 54.1942L58.8133 59.1681C60.4482 59.8108 62.1359 59.9908 63.6852 59.9908C67.2589 59.9908 70.4215 58.6968 71.1054 54.6124L73.2717 42.392H66.4839Z" fill="black"/>
<path d="M20.3218 26.7461C19.9529 26.2816 19.4339 25.9185 18.765 25.6575C18.096 25.3964 17.3631 25.2653 16.5677 25.2653C15.1318 25.2653 13.9823 25.5752 13.1192 26.1944C12.4806 26.6521 11.9685 27.2589 11.5792 28.013L11.9698 25.7589H5.39216L2.77266 40.5667H9.55361L10.9796 32.5532C11.1148 31.7404 11.3436 31.1447 11.6635 30.7674C11.9834 30.3901 12.3957 30.2014 12.9004 30.2014C13.1137 30.2014 13.2978 30.2305 13.4534 30.2887C13.6084 30.3468 13.7343 30.434 13.8316 30.5503C13.9482 30.7247 14.0158 30.9375 14.035 31.1887C14.0542 31.4404 14.0251 31.7596 13.9476 32.1468V32.205L12.4924 40.5667H19.2734L20.8451 31.566C21.0385 30.4823 21.0968 29.5433 21.0199 28.7497C20.9424 27.9561 20.7093 27.288 20.3212 26.7461H20.3218Z" fill="black"/>
<path d="M36.2843 26.0496C35.1101 25.527 33.738 25.2653 32.1663 25.2653C30.1872 25.2653 28.4457 25.6383 26.9422 26.383C25.4387 27.1284 24.2743 28.1979 23.4497 29.5915C22.6245 30.9852 22.2128 32.6213 22.2128 34.4986C22.2128 35.8731 22.5327 37.0539 23.1732 38.0411C23.8136 39.0283 24.7201 39.7787 25.8944 40.2915C27.068 40.8036 28.4407 41.0609 30.0124 41.0609C31.914 41.0609 33.6258 40.6787 35.1491 39.9141C36.6718 39.1496 37.8604 38.0751 38.7141 36.6914C39.5679 35.3077 39.995 33.7155 39.995 31.9149C39.995 30.541 39.6702 29.3503 39.0198 28.3439C38.3694 27.3375 37.458 26.5723 36.2843 26.0503V26.0496ZM33.0101 31.1311C33.0101 31.8858 32.8985 32.8149 32.6753 33.9184C32.4521 35.0219 32.1849 35.758 31.8749 36.1254C31.5643 36.551 31.1179 36.7644 30.5357 36.7644C30.0502 36.7644 29.7111 36.6388 29.517 36.3871C29.4005 36.2708 29.3137 36.1112 29.2554 35.9083C29.1971 35.7048 29.168 35.4679 29.168 35.197C29.168 34.4998 29.2845 33.5856 29.517 32.453C29.7501 31.3204 29.9926 30.58 30.2449 30.2317C30.4383 29.9992 30.6473 29.8303 30.8705 29.7239C31.0937 29.6175 31.3603 29.5643 31.6709 29.5643C31.8842 29.5643 32.0683 29.5884 32.2239 29.6367C32.379 29.6856 32.5147 29.7579 32.6313 29.8544C32.7665 29.9707 32.8644 30.1303 32.9221 30.3338C32.9804 30.5367 33.0095 30.794 33.0095 31.1033V31.1324L33.0101 31.1311Z" fill="black"/>
<path d="M54.8664 25.4403H54.4882C53.5179 25.4403 52.6741 25.5807 51.9561 25.8615C51.2381 26.1423 50.6076 26.6069 50.0645 27.2551C49.6813 27.7129 49.3372 28.2863 49.0309 28.971L49.5989 25.7601H43.051L40.4315 40.5679H47.2125L48.0563 35.8062C48.2497 34.7422 48.5604 33.8855 48.9875 33.2366C49.4141 32.5884 49.943 32.1238 50.5741 31.843C51.204 31.5628 51.9462 31.4218 52.8005 31.4218C53.1496 31.4218 53.4987 31.4416 53.8483 31.4799L55.0418 25.4409H54.867L54.8664 25.4403Z" fill="black"/>
<path d="M66.895 30.1142L67.6805 25.7589H64.8285L65.5657 21.5452H58.9881L58.2224 25.7589H56.1758L55.3903 30.1142H57.4654L56.5918 35.1957C56.3593 36.5509 56.4418 37.6396 56.8392 38.4617C57.2366 39.285 57.9013 39.8751 58.8325 40.2333C59.7644 40.5908 60.9281 40.7702 62.325 40.7702C62.7708 40.7702 63.2457 40.746 63.751 40.6978C64.255 40.6489 64.7114 40.5766 65.1187 40.4801L65.846 35.6021C65.3028 35.7184 64.8465 35.7765 64.4782 35.7765C64.0126 35.7765 63.6729 35.6942 63.4596 35.5297C63.2457 35.3658 63.1787 35.0509 63.2562 34.5858L64.0418 30.1142H66.895Z" fill="black"/>
<path d="M85.0747 28.7064C84.9972 27.9035 84.7641 27.2503 84.3759 26.7461C84.007 26.2816 83.4881 25.9191 82.8191 25.6575C82.1501 25.3964 81.4173 25.2653 80.6224 25.2653C79.2057 25.2653 78.0711 25.5752 77.2174 26.195C76.5875 26.6521 76.0816 27.2533 75.6947 27.9944L77.0494 20.3669H70.385L66.8274 40.5667H73.6084L75.0344 32.5532C75.1894 31.7021 75.4324 31.0971 75.7623 30.7383C76.0915 30.3808 76.4895 30.2014 76.9551 30.2014C77.1684 30.2014 77.3526 30.2305 77.5082 30.2886C77.6632 30.3468 77.789 30.434 77.8864 30.5503C78.0029 30.7056 78.0656 30.9084 78.0755 31.1602C78.0854 31.412 78.0606 31.7509 78.0023 32.1765V32.2346L76.5478 40.5679H83.3288L84.929 31.5091C85.1038 30.4451 85.1516 29.5105 85.0747 28.707V28.7064Z" fill="black"/>
<path d="M121.999 25.2578C121.153 25.3933 121.099 26.6471 119.826 27.8545C118.102 29.4968 116.509 30.3931 112.112 30.8069L93.224 32.5971C90.5195 32.8525 89.3515 32.6478 89.3372 32.6428L89.269 32.6305L89.2101 32.6917C88.6285 33.3072 88.5957 33.9097 89.1165 34.561L89.1766 34.6402L89.2715 34.5913C89.6311 34.4175 92.5116 34.1045 95.0951 33.8732C95.0951 33.8732 95.0945 33.8732 95.0939 33.8732C94.1906 34.4293 93.4447 35.299 93.3926 36.6654C93.3133 38.7691 94.8564 39.9598 97.272 40.1306C97.4201 40.1411 97.5708 40.1479 97.7258 40.151C97.8523 40.1565 97.9781 40.1621 98.109 40.1609L99.8927 40.1429C99.9008 40.386 100.244 40.5673 100.686 40.5673C101.129 40.5673 101.505 40.378 101.523 40.1281L102.166 40.1207C102.162 40.3656 102.538 40.5679 103.006 40.5679C103.473 40.5679 103.873 40.3638 103.879 40.1033L104.561 40.0959C104.537 40.3638 104.94 40.5685 105.432 40.5685C105.925 40.5685 106.346 40.3539 106.354 40.0755C106.354 40.0755 107.548 40.065 108.252 40.0588C108.308 40.0588 108.361 40.0576 108.41 40.0576H109.278C113.133 40.0576 115.048 37.8505 115.05 35.6528C115.051 35.0985 114.949 34.6111 114.766 34.1837C114.741 34.1255 114.718 34.0668 114.69 34.0111C114.585 33.8033 114.456 33.614 114.309 33.4389C117.103 33.2645 117.981 33.3536 118.722 33.7426C119.629 34.2177 120.331 35.6732 120.551 36.1124C120.924 36.8633 121.137 37.3662 121.722 37.3433C122.765 37.3124 123.906 34.8913 123.995 31.0358C124.08 27.3201 123.13 25.0778 121.999 25.259V25.2578ZM102.304 34.0631L102.223 37.72C102.003 37.7311 101.786 37.7417 101.577 37.7522L101.654 34.0965L102.304 34.0624V34.0631ZM97.2304 38.6831C97.0302 38.6658 96.8479 38.633 96.6737 38.594C95.8596 38.4097 95.3388 37.9996 95.1001 37.4608C94.9904 37.214 94.9364 36.9431 94.9432 36.6536C94.9494 36.3808 95.009 36.1322 95.1001 35.8983C95.3171 35.3416 95.7858 34.9049 96.5391 34.6216C96.9465 34.4682 97.4387 34.3612 98.0209 34.3049C98.1524 34.2919 98.2733 34.2728 98.414 34.2653L100.02 34.1818L99.946 37.8344C98.9702 37.8833 98.3266 37.9155 98.2602 37.9198L98.1896 37.9223C97.7456 37.9396 97.3898 38.2736 97.3191 38.6856C97.2912 38.6837 97.2583 38.6856 97.2304 38.6837V38.6831ZM104.612 37.6012C104.384 37.6124 104.156 37.6235 103.93 37.6353L104.01 33.9746L104.69 33.9394L104.612 37.6012ZM111.228 38.1586C111.149 37.8821 110.972 37.6483 110.733 37.5004C110.543 37.3835 110.319 37.3173 110.077 37.3297C109.614 37.3526 109.045 37.381 108.412 37.4126C107.793 37.4435 107.114 37.4769 106.406 37.5122L106.487 33.8466H106.496L106.487 33.8317L106.467 33.7977L109.612 33.6257C109.918 33.6165 110.198 33.6226 110.459 33.6406C110.865 33.6684 111.206 33.7371 111.508 33.8299C112.507 34.1373 112.967 34.7831 113.005 35.7326C113.049 36.8497 112.319 37.7528 111.228 38.1592L111.228 38.1586ZM120.766 35.2408C120.479 34.6198 120.046 33.7365 119.521 33.2082C119.281 32.9657 118.801 32.7591 118.418 32.6849C117.917 32.5853 116.598 32.5494 113.985 32.7461C113.985 32.7461 113.81 32.7591 113.541 32.7771C113.455 32.7233 113.364 32.6732 113.271 32.6261C112.912 32.4437 112.503 32.3076 112.053 32.216L113.38 32.096C113.38 32.096 113.382 32.096 113.383 32.096C115.411 31.8987 117.384 31.6513 117.384 31.6513C118.883 31.4651 119.523 31.1305 120.389 29.6979C120.409 29.662 120.438 29.6669 120.433 29.7078C120.237 31.1453 120.396 33.6635 120.834 35.2315C120.887 35.4258 120.864 35.4592 120.765 35.242L120.766 35.2408Z" fill="black"/>
<path d="M89.7687 32.0991C99.7396 31.9841 106.509 23.9502 112.997 30.0715C114.259 28.976 114.994 27.6937 115.31 26.3688C127.254 19.3666 122.575 10.8756 104.174 8.38835C115.416 11.1441 118.281 18.7128 115.46 25.4242C115.727 22.2293 113.642 18.9707 110.241 17.5227C113.494 13.0127 106.665 8.49289 99.2832 8.88073C97.8424 8.95743 96.2322 9.13372 94.8323 9.31496C96.8721 8.41372 99.2708 6.61122 101.361 8.68155C101.62 4.83594 97.8777 3.22396 91.7068 5.27203C94.402 6.24008 95.2111 7.59845 94.1056 9.40651C92.4595 9.62858 91.2542 9.8327 91.2542 9.8327C94.6531 12.6039 95.3828 14.3705 92.7181 18.2878L90.5741 18.398C94.6146 23.1683 94.4268 27.8923 89.7693 32.0985L89.7687 32.0991ZM109.738 17.4305L95.8267 18.1326C101.148 16.5905 106.744 13.163 109.738 17.4305Z" fill="black"/>
</svg>
