<?xml version="1.0" encoding="UTF-8"?>
<svg id="Layer_2" xmlns="http://www.w3.org/2000/svg" viewBox="0 0 2000.03 1181.14">
    <defs>
        <style>.cls-1{fill:#fff;}</style>
    </defs>
    <g id="logo">
        <g>
            <path class="cls-1"
                  d="M134.55,968.81c-37.56,0-69.15-6.44-93.91-19.15C16.44,937.27,2.77,917.44,.03,890.7l102.4-8.72c.8,10.93,3.96,19.39,9.42,25.14,5.68,6.03,14.43,9.07,26,9.07,7.72,0,14.24-1.55,19.4-4.63,5.38-3.2,8.1-8.05,8.1-14.42,0-4.12-1.64-7.51-4.89-10.09-3.11-2.44-8.16-4.65-15.01-6.56-6.75-1.89-14.53-3.77-23.33-5.66-.54-.3-1.5-.49-2.6-.49-.73,0-1.35-.13-1.8-.35-20.48-5.07-37.36-10.19-50.39-15.33-12.94-5.08-23.77-12.7-32.2-22.69-8.39-9.9-12.65-23-12.65-38.95,0-17.78,5.36-32.94,15.92-45.04,10.61-12.16,25.7-21.37,44.82-27.37,19.21-6.05,42.17-9.12,68.25-9.12,35.36,0,64.83,5.89,87.57,17.49,22.23,11.34,35.47,30.16,39.4,55.95l-96.18,11.45c-.19-10.85-2.65-19.11-7.32-24.59-4.93-5.73-12.82-8.63-23.46-8.63-7.72,0-13.94,1.56-18.51,4.66-4.72,3.2-7.1,7.88-7.1,13.91,0,3.76,1.15,6.8,3.4,9.06,2.16,2.18,5.63,4.08,10.33,5.69,4.62,1.61,11.7,3.51,21.02,5.67,.51,.3,1.33,.51,2.15,.51,.44,0,.88,.12,1.35,.35,1.15,.39,2.22,.65,3.41,.8,1.01,.15,1.96,.38,2.85,.67,23.04,5.3,41.64,10.74,55.39,16.19,13.54,5.39,24.69,13.11,33.14,22.94,8.39,9.74,12.65,23.08,12.65,39.64,0,28.53-12.6,49.44-37.43,62.15-25.08,12.85-58.58,19.38-99.56,19.38Z"/>
            <path class="cls-1"
                  d="M423.12,968.81c-20.77,0-39.38-2.67-55.32-7.93-15.9-5.24-29.26-12.9-39.74-22.77-9.88-9.27-17.53-20.36-22.75-32.95-5.24-12.65-7.9-27.05-7.9-42.8,0-22.61,3.92-43.25,11.65-61.34,7.73-18.07,18.86-33.83,33.08-46.81,13.61-12.68,30.07-22.4,48.93-28.89,18.93-6.5,40.15-9.81,63.07-9.81s42.64,3.22,59.51,9.57c16.81,6.32,30.48,15.77,40.63,28.07,10.77,12.65,17.79,28.35,20.88,46.69,3.05,18.17,2.79,39.28-.79,62.77h-172.95l-.15,1.01c-2.23,14.62-1.08,25.88,3.44,33.44,4.59,7.72,13,11.63,24.99,11.63,9.02,0,16.57-2.63,22.4-7.81,5.6-4.98,10.04-12.44,13.22-22.18l103.26,9.64c-9.37,25.85-26.63,45.85-51.34,59.48-25.27,13.94-56.94,21.01-94.13,21.01Zm26.32-192.69c-5.74,0-10.86,.81-15.21,2.42-4.36,1.62-8.37,4.07-11.91,7.28-5.23,5.24-9.21,13.5-11.87,24.57l-.35,1.46h66.38l.06-1.12c.19-3.6,.24-6.84,.16-9.73-.16-5.97-1.4-10.99-3.67-14.89-2.02-3.36-5.07-5.89-9.05-7.56-3.88-1.61-8.78-2.43-14.54-2.43Z"/>
            <path class="cls-1"
                  d="M524.12,213.84c-4.57,0-9.52-2.99-11.49-5.74l-44.93-62.48v68.22h-20.32v-79.5c.02-4.65-.52-10.12-4.88-11.13l-4.17-.94,1.19-6.48h24.98c4.5,0,10.02,3,12.82,6.98l43.62,60.64V115.79h20.32v98.05h-17.15Z"/>
            <path class="cls-1"
                  d="M645.95,213.84c-4.59,0-9.53-2.99-11.48-5.74l-44.94-62.48v68.22h-20.32v-79.5c.02-4.65-.52-10.12-4.88-11.13l-4.17-.94,1.19-6.48h24.98c4.5,0,10.01,3,12.81,6.98l43.63,60.64V115.79h20.32v98.05h-17.15Z"/>
            <path class="cls-1"
                  d="M205.24,335.86c-99.88,0-161.23-83.26-161.23-142.94,0-74.38,61.36-82.43,87.74-82.43h142.58l-21.21,105.69-54.04-81.58c-1.74-2.77-5.74-4.94-9.08-4.94h-45.42c-3.44,0-6.8,2.73-7.5,6.09l-24.16,118.91c-.35,1.75,.03,3.4,1.08,4.65,1.03,1.25,2.56,1.93,4.3,1.93h33.36c3.44,0,6.8-2.73,7.49-6.09l16.31-80.48,54.01,81.5c1.76,2.77,5.75,4.94,9.09,4.94h45.47c3.4,0,6.77-2.73,7.49-6.09l26.14-127.76c.64-3.17-.24-7.76-1.99-10.47l-27.77-43.3c-1.78-2.79-5.77-4.98-9.11-4.98H76.17c-3.45,0-4.05-.71-4.14-.91-.3-.64,.24-2.45,4.5-7.54C108.54,21.9,155.46,0,205.24,0c92.58,0,167.92,75.33,167.92,167.92s-75.33,167.94-167.92,167.94Z"/>
            <path class="cls-1"
                  d="M1027.17,968.69c-29.63,0-54.95-4.22-77.33-12.89l14.35-78.09c13.66,5.6,32.19,9.33,46.64,9.33,18.11,0,28.77-8.41,31.73-25.01l30.83-175.84h107.2l-34.75,196.41c-11.88,71.16-71.09,86.09-118.66,86.09Z"/>
            <path class="cls-1"
                  d="M483.42,662.27c-25.07,0-47.29-4.17-66.03-12.36-18.65-8.17-33.26-20.27-43.42-35.98-10.17-15.71-15.33-34.79-15.33-56.69,0-30.05,6.68-56.57,19.82-78.83,13.13-22.25,31.95-39.57,55.91-51.48,24.01-11.93,52.22-17.98,83.83-17.98,25.08,0,47.3,4.25,66.02,12.61,18.65,8.31,33.35,20.64,43.67,36.67,10.32,16.04,15.56,35.27,15.56,57.17,0,28.8-6.91,54.6-20.51,76.69-13.59,22.11-32.8,39.52-57.09,51.75-24.33,12.23-52.07,18.43-82.41,18.43Zm26.78-186.12c-5.14,0-9.66,.9-13.43,2.71-3.75,1.78-7.28,4.65-10.52,8.53-4.25,5.89-8.16,17.79-11.99,36.47-3.76,18.3-5.66,33.33-5.66,44.66,0,4.49,.49,8.47,1.45,11.84,.98,3.48,2.51,6.26,4.54,8.27,3.24,4.23,9.08,6.44,17.27,6.44,9.77,0,17.37-3.64,22.58-10.83,5.13-6.09,9.44-17.93,13.12-36.17,3.61-17.88,5.43-33.14,5.43-45.35,0-5.57-.49-9.86-1.46-13.25-.98-3.47-2.68-6.28-5.06-8.33-2.04-1.68-4.39-2.94-7-3.76-2.6-.81-5.73-1.23-9.28-1.23Z"/>
            <path class="cls-1"
                  d="M1005.24,657.58c-22.28,0-41.12-2.9-55.98-8.63-14.68-5.63-25.29-15.09-31.55-28.07-6.28-13.02-7.59-30.57-3.9-52.16l14.35-83.63h-33.51l12.26-68.12h33.06l12.36-68.22h103.82l-11.91,68.22h46.06l-12.28,68.12h-46.05l-12.87,73.35c-1.33,7.97-.08,13.49,3.74,16.42,3.63,2.81,9.42,4.23,17.17,4.23,5.62,0,12.58-.83,20.66-2.49l-11.38,76.48c-6.27,1.45-13.38,2.56-21.14,3.31-8.09,.78-15.8,1.18-22.92,1.18Z"/>
            <g>
                <path class="cls-1"
                      d="M824.56,725.89c-19.51-6.97-43.87-10.51-72.45-10.51-19.25,0-36.9,1.11-52.47,3.27-15.46,2.18-29.24,6.56-40.96,13.04-12.35,6.79-22.18,14.98-29.23,24.34-6.9,9.12-11.5,21.73-13.72,37.52l102.87,14.23c1.06-11.18,3.79-19.51,8.15-24.78,4.62-5.59,12.21-8.42,22.54-8.42,4.78,0,8.92,.49,12.31,1.46,3.45,.97,6.39,2.66,8.79,5.06,2.35,2.7,3.71,5.76,4.05,9.12,.31,3.22,.15,6.95-.5,11.15l-.45,2.31-1.08,6.97-72.75,11.4c-24.27,3.75-44.21,8.24-59.26,13.35-14.93,5.08-26.92,12.87-35.67,23.15-8.7,10.23-13.11,24.29-13.11,41.77,0,14.1,3.41,26.46,10.15,36.71,6.72,10.25,16.12,18.18,27.92,23.53,11.86,5.38,25.85,8.12,41.58,8.12s29.06-2.28,41.43-6.75c12.31-4.47,22.77-10.74,32.01-19.26,2.75-2.53,8.66-8.45,11.15-11.58l-.23,5.68c-.29,9.86-.16,17.9,.37,23.92h103.86l.14-.36c-2.23-7.61-3.51-15.85-3.81-24.49-.32-8.65,.31-17.37,1.89-25.87l15.5-88.81c4.64-25.28,2.48-45.97-6.43-61.48-8.91-15.5-23.24-26.87-42.6-33.78Zm-63.77,146.45c-2.55,12.75-7.9,22.55-15.92,29.12-8.01,6.57-16.96,9.89-26.6,9.89-7.47,0-13.2-1.76-17.01-5.23-3.84-3.51-5.79-8.31-5.79-14.28,0-7.94,2.73-13.5,8.12-16.53,5.13-2.9,13.09-5.4,24.32-7.65l35.09-6.99-2.22,11.66Z"/>
                <path class="cls-1"
                      d="M1407.76,725.89c-19.51-6.97-43.87-10.51-72.45-10.51-19.25,0-36.9,1.11-52.47,3.27-15.46,2.18-29.24,6.56-40.96,13.04-12.35,6.79-22.18,14.98-29.23,24.34-6.9,9.12-11.5,21.73-13.72,37.52l102.87,14.23c1.06-11.18,3.79-19.51,8.15-24.78,4.62-5.59,12.21-8.42,22.54-8.42,4.78,0,8.92,.49,12.31,1.46,3.45,.97,6.39,2.66,8.79,5.06,2.35,2.7,3.71,5.76,4.05,9.12,.31,3.22,.15,6.95-.5,11.15l-.45,2.31-1.08,6.97-72.75,11.4c-24.27,3.75-44.21,8.24-59.26,13.35-14.93,5.08-26.92,12.87-35.67,23.15-8.7,10.23-13.11,24.29-13.11,41.77,0,14.1,3.41,26.46,10.15,36.71,6.72,10.25,16.12,18.18,27.92,23.53,11.86,5.38,25.85,8.12,41.58,8.12s29.06-2.28,41.43-6.75c12.31-4.47,22.77-10.74,32.01-19.26,2.75-2.53,8.66-8.45,11.14-11.58l-.22,5.68c-.29,9.86-.16,17.9,.37,23.92h103.86l.14-.36c-2.23-7.61-3.51-15.85-3.81-24.49-.32-8.65,.31-17.37,1.89-25.87l15.5-88.81c4.64-25.28,2.48-45.97-6.43-61.48-8.91-15.5-23.24-26.87-42.6-33.78Zm-63.77,146.45c-2.55,12.75-7.9,22.55-15.92,29.12-8.01,6.57-16.96,9.89-26.6,9.89-7.47,0-13.2-1.76-17.01-5.23-3.84-3.51-5.79-8.31-5.79-14.28,0-7.94,2.73-13.5,8.12-16.53,5.13-2.9,13.09-5.4,24.32-7.65l35.09-6.99-2.22,11.66Z"/>
                <path class="cls-1"
                      d="M1616.11,874.42c4.06-2.81,7.8-5.46,11.26-7.97,3.41-2.48,6.36-4.81,8.9-7.02l85.56-66.01,12.45-70.06h-222.24l-12.28,70.49h65.32c6.25,0,13.84-.15,22.76-.46,5.47-.19,10.75-.46,15.93-.78l4.32-.27-6.85,4.6c-3.61,2.51-7.3,5.02-11.1,7.56-5.01,3.12-9.93,6.33-14.78,9.6-4.84,3.29-9.28,6.48-13.33,9.59l-82.74,62.72-13.38,74.27h235.39l12.28-70.49h-120.08l4.97-3.32c6.1-4.22,11.96-8.38,17.62-12.46Z"/>
                <path class="cls-1"
                      d="M1759.65,793.85h65.32c6.26,0,13.84-.15,22.76-.46,5.48-.19,10.76-.46,15.93-.78l4.27-.25-6.79,4.59c-3.61,2.51-7.3,5.02-11.11,7.56-5,3.12-9.92,6.33-14.76,9.6-4.84,3.29-9.28,6.48-13.33,9.59l-82.74,62.72-13.39,74.27h235.41l12.26-70.49h-119.89c7.27-5.07,17.92-12.54,22.41-15.78,4.05-2.81,7.8-5.46,11.26-7.97,3.41-2.48,6.35-4.81,8.9-7.02l85.56-66.01,12.45-70.06h-222.24l-12.29,70.49Z"/>
                <path class="cls-1"
                      d="M838.2,418.53c-11.35,4.44-21.47,11.92-30.07,22.23-6.06,7.23-14.31,20.64-20.02,33.94l1.26-7.14,8.92-50.6h-103.33l-41.88,237.34h107.1l13.46-76.11c3.14-17.3,8.26-31.45,15.21-42.03,6.99-10.64,15.77-18.37,26.13-23,10.3-4.58,22.55-6.91,36.43-6.91,5.24,0,10.6,.28,15.97,.83l18.77-95.29h-7.47c-15.45,0-29.05,2.28-40.46,6.75Z"/>
                <path class="cls-1"
                      d="M1209.28,525.54c2.55-13.95,6.61-24.03,12.06-29.96,5.53-6.03,12.3-9.08,20.13-9.08,3.56,0,6.7,.5,9.35,1.48,2.67,1,4.89,2.55,6.64,4.64,2.01,2.67,3.11,6.21,3.29,10.52,.16,4.12-.23,9.73-1.19,17.66l-23.24,133.5h107.09l25.67-145.66c2.79-17,3.58-32.15,2.35-45.04-1.23-12.72-4.95-23.19-11.04-31.1-5.8-7.32-14.08-13.13-24.64-17.26-10.66-4.15-22.45-6.27-35.05-6.27-22.5,0-40.77,5-54.3,14.83-9.93,7.22-20.48,19.1-27.78,35.16l1.33-7.2,21.64-122.06h-105.22l-57.03,324.61h107.09l22.85-128.75Z"/>
                <path class="cls-1"
                      d="M1439.21,558.02l.66-.34c7.59-3.69,80.93-10.57,99.51-12.25-22.63,13.04-30.55,28.52-31.25,46.94-1.2,32,21.23,52.01,61.54,54.87,2.38,.16,4.8,.28,8.23,.36,1.48,.06,2.96,.13,5.04,.13,.06,0,30.13-.31,30.13-.31l.03,1.16c.1,3.2,5.22,5.73,11.63,5.73s12.09-2.71,12.33-6.02l.08-1.09,12.68-.16-.02,1.21c-.01,.87,.39,1.71,1.19,2.52,2.11,2.14,6.5,3.53,11.2,3.53,6.92,0,12.83-2.92,12.91-6.36l.02-1.15,13.47-.17-.12,1.31c-.08,.91,.27,1.8,1.03,2.64,2.07,2.27,6.72,3.74,11.86,3.74,7.32,0,13.59-3.14,13.7-6.84l.02-1.15,31.78-.27,16.59-.02c63.17,0,91.99-36.35,92.04-70.13,0-8.47-1.53-16.33-4.74-23.87-.31-.73-.61-1.46-.97-2.16-1.57-3.15-3.53-6.11-5.99-9.04l-1.52-1.8,2.35-.14c15.08-.95,26.23-1.39,35.13-1.39,17.89,0,27.85,1.75,36.76,6.43,14.53,7.62,25.55,29.82,30.05,38.89l1,2.02c5.3,10.75,8.5,17.24,16.79,17.24h.02c16-.47,34.15-39.2,35.57-100.94,.94-41.19-6.2-74.69-18.63-87.4-3.27-3.36-6.77-5.06-10.37-5.06-.61,0-1.24,.05-1.86,.15-6.76,1.09-10.26,7.19-15.11,15.62-4.32,7.53-9.7,16.9-19.36,26.1-28.59,27.28-54.63,41.44-125.28,48.11l-305.01,28.98c-14.58,1.38-27.94,2.07-39.71,2.07-15.61,0-23.13-1.24-23.42-1.9l-.95,.98c-9,9.56-9.45,18.66-1.41,28.73l.37,.49Zm390.43-40.88c32.37-3.16,64.28-7.15,64.6-7.2,23.46-2.92,33.63-7.81,47.63-31.02,0,0,.65-1.43,2.1-.91,1.01,.36,.82,1.81,.82,1.81-3.25,23.98-.3,64.71,6.44,88.93,.65,2.42,.75,3.07-.33,3.74-.93,.47-1.87-.29-3-2.75-5.01-10.9-11.8-24.45-19.87-32.57-3.86-3.91-11.57-7.06-17.19-8.15-2.94-.58-9.02-1.27-21.3-1.27-12.99,0-29.8,.76-49.97,2.28l-7.88,.34c-1.38-.86-2.8-1.64-4.27-2.41-5.17-2.62-14.32-5.81-26.1-8.23l28.32-2.59Zm-112.59,29.34l-.98-1.68,52.75-2.88c1.63-.06,3.22-.08,4.77-.08,3.17,0,6.17,.1,9.02,.31,6.2,.43,11.84,1.43,17.22,3.1,16.18,4.99,24.36,15.42,25,31.89,.72,17.88-10.58,33.38-29.46,40.45l-1.2,.45-.36-1.24c-1.18-4.19-3.84-7.73-7.47-9.99-2.75-1.71-5.89-2.61-9.05-2.61l-61.41,3.04,1.38-60.91-.2,.14Zm-39.81,1.15l13.34-.71-1.31,61.66-13.39,.67,1.35-61.62Zm-38.05,1.98l12.87-.67-1.37,61.56-12.8,.66,1.3-61.55Zm-81.86,8.49c6.77-2.55,14.93-4.29,24.23-5.18l2.22-.24c1.34-.16,2.7-.32,4.19-.4l27.21-1.41-1.25,61.51s-27.24,1.35-29.48,1.46c-6.31,.25-12.23,4.82-13,12.5l-2.64-.18c-3.3-.28-6.28-.82-9.15-1.47-12.96-2.95-22.03-9.52-26.23-19.01-1.85-4.19-2.74-8.76-2.63-13.57,.09-4.26,.95-8.4,2.61-12.65,3.73-9.58,11.77-16.75,23.92-21.35Z"/>
                <path class="cls-1"
                      d="M1451.51,517.16c61.84-1.37,116.77-21.76,165.31-39.8,41.74-15.52,81.18-30.16,118.13-30.16,33.59,0,61.76,11.7,88.59,36.78,18.67-16.5,30.86-36.23,36.72-59.35,76.77-45.11,113.75-96.3,104.13-144.13-13.18-65.63-111.2-118.06-263.65-141.83,79.07,23.12,134.88,63.49,162.06,117.48,23.3,46.29,24.4,106.95-1.09,158.96,6.64-56.58-30.64-109.29-83.18-131.58l-1.37-.58,.87-1.2c15.04-20.9,17.27-43.12,6.44-64.26-22.01-42.95-92.69-74.12-168.08-74.12-4.76,0-9.51,.12-14.3,.37-19.35,1.04-49.81,3.92-77.32,7.67,7.57-3.66,16.53-8.41,21.34-10.81,17.6-8.8,35.8-17.92,54.02-17.92,12.91,0,24.19,4.59,34.43,14.03,.71-18.21-4.23-33.11-14.72-44.33-13.16-14.07-34.75-21.51-62.41-21.51-21.76,0-46.7,4.49-74.15,13.35,23.82,9.05,37.7,19.92,42.36,33.18,3.58,10.15,1.49,21.68-7.06,34.84-20.86,2.83-37.33,5.47-43.45,6.48,51.81,42.76,65.98,71.76,20.93,137.3l-32.25,1.67c63.98,76.96,59.71,152.75-12.32,219.46Zm148.39-244.19c37.92-13.68,73.74-26.6,105.4-26.6,28.81,0,50.58,11.1,66.56,33.91l1.23,1.76-237.42,11.92c19.17-4.97,47.04-14.79,64.22-20.99Z"/>
                <path class="cls-1"
                      d="M325.98,432.49c-5.81-7.34-14.1-13.13-24.64-17.26-10.66-4.15-22.45-6.27-35.06-6.27-22.82,0-41.44,4.83-54.99,14.82-12.07,8.89-21.27,20.83-28.33,36.24l1.59-7.97,6.06-35.1H86.8l-41.88,237.34h107.1l22.85-128.74c2.21-13.29,6.02-23.21,11.3-29.47,5.38-6.36,12.4-9.58,20.88-9.58,3.56,0,6.7,.5,9.35,1.48,2.68,1.01,4.91,2.55,6.68,4.69,1.99,2.99,3.16,6.65,3.48,10.9,.32,4.21-.15,9.39-1.42,16.75l-23.26,133.97h107.1l25.2-144.72c3.1-17.34,4.05-32.58,2.81-45.27-1.23-12.57-4.94-23.28-11.03-31.81Z"/>
            </g>
        </g>
        <g>
            <path class="cls-1"
                  d="M0,1122.57c0-54.1,27.05-94.57,78.17-94.57,38.98,0,58.15,23.86,58.15,59.85,0,51.97-28.12,93.29-77.96,93.29-37.06,0-58.36-20.45-58.36-58.57Zm75.4,12.99c5.75-12.99,10.44-44.52,10.44-56.23s-4.69-15.55-11.93-15.55c-5.33,0-10.01,2.56-13.21,9.8-6.39,15.12-10.22,45.79-10.22,57.08,0,10.01,4.05,14.7,11.5,14.7,6.39,0,10.22-2.34,13.42-9.8Z"/>
            <path class="cls-1"
                  d="M157.4,1031.62h118l-7.03,40.26c-38.55,26.41-56.23,61.98-63.69,105.65h-52.82c6.6-41.96,27.26-79.45,60.92-104.79h-62.62l7.24-41.11Z"/>
            <path class="cls-1"
                  d="M290.1,1108.72c0-12.78,8.95-21.94,22.15-21.94s21.94,9.16,21.94,21.94-9.16,22.36-21.94,22.36-22.15-9.37-22.15-22.36Z"/>
            <path class="cls-1"
                  d="M361.88,1122.57c0-54.1,27.05-94.57,78.17-94.57,38.98,0,58.15,23.86,58.15,59.85,0,51.97-28.12,93.29-77.96,93.29-37.06,0-58.36-20.45-58.36-58.57Zm75.4,12.99c5.75-12.99,10.44-44.52,10.44-56.23s-4.69-15.55-11.93-15.55c-5.33,0-10.01,2.56-13.21,9.8-6.39,15.12-10.22,45.79-10.22,57.08,0,10.01,4.05,14.7,11.5,14.7,6.39,0,10.22-2.34,13.42-9.8Z"/>
            <path class="cls-1"
                  d="M636.86,1132.36c0,34.08-30.67,48.78-70.71,48.78-36.64,0-62.41-14.48-62.41-42.81,0-19.6,11.08-34.51,33.23-38.98-10.65-4.9-17.25-14.48-17.25-28.54,0-28.33,27.69-42.81,65.18-42.81s58.15,14.7,58.15,38.13c0,16.83-11.29,29.39-27.69,34.72,14.27,4.69,21.51,15.12,21.51,31.52Zm-50.27-1.92c0-8.73-5.32-13.21-14.48-13.21-11.93,0-18.96,7.03-18.96,19.17,0,8.73,5.33,12.99,14.48,12.99,12.78,0,18.96-7.46,18.96-18.96Zm8.31-60.7c0-6.82-4.05-10.86-12.14-10.86-10.86,0-16.4,5.33-16.4,16.4,0,6.6,4.26,11.29,11.93,11.29,10.86,0,16.61-7.03,16.61-16.83Z"/>
            <path class="cls-1"
                  d="M668.17,1108.72c0-12.78,8.95-21.94,22.15-21.94s21.94,9.16,21.94,21.94-9.16,22.36-21.94,22.36-22.15-9.37-22.15-22.36Z"/>
            <path class="cls-1"
                  d="M744.42,1122.57c0-54.1,27.05-94.57,78.17-94.57,38.98,0,58.15,23.86,58.15,59.85,0,51.97-28.12,93.29-77.96,93.29-37.06,0-58.36-20.45-58.36-58.57Zm75.4,12.99c5.75-12.99,10.44-44.52,10.44-56.23s-4.69-15.55-11.93-15.55c-5.32,0-10.01,2.56-13.21,9.8-6.39,15.12-10.22,45.79-10.22,57.08,0,10.01,4.05,14.7,11.5,14.7,6.39,0,10.22-2.34,13.42-9.8Z"/>
            <path class="cls-1"
                  d="M1020.68,1089.12c0,53.46-23,92.02-73.91,92.02-33.87,0-55.17-14.7-57.94-41.53l48.78-7.46c.43,9.37,3.83,15.12,12.14,15.12,11.29,0,18.96-11.08,21.94-34.08-7.46,9.8-17.46,14.06-30.88,14.06-27.69,0-44.73-18.53-44.73-44.52,0-33.65,24.49-54.74,64.32-54.74,41.96,0,60.28,26.2,60.28,61.13Zm-46.22-14.27c0-7.88-4.26-13.42-13.42-13.42-12.78,0-17.68,8.73-17.68,20.87,0,8.09,4.26,13.42,12.99,13.42,11.93,0,18.11-8.52,18.11-20.87Z"/>
            <path class="cls-1"
                  d="M1066.05,1121.71l2.13-11.93h53.04l-2.13,10.65c-3.2,15.34-1.28,22.15,6.6,22.15s10.22-5.54,12.14-15.55l17.46-98.62h52.61l-17.47,99.68c-5.96,33.87-21.72,53.04-69.44,53.04-41.96,0-62.2-19.17-54.95-59.43Z"/>
            <path class="cls-1"
                  d="M1210.46,1121.5l16.4-93.08h53.68l-16.19,91.8c-2.34,13.21,5.32,18.74,16.61,18.74s19.81-5.11,22.37-18.74l16.19-91.8h53.46l-17.04,96.49c-7.03,38.98-29.82,56.23-80.09,56.23-47.29,0-72.63-19.17-65.39-59.64Z"/>
            <path class="cls-1" d="M1367.02,1177.52l26.2-149.1h52.61l-18.74,106.07h66.88l-7.67,43.03h-119.28Z"/>
            <path class="cls-1" d="M1499.5,1177.52l26.2-149.1h52.61l-26.2,149.1h-52.61Z"/>
            <path class="cls-1"
                  d="M1628.15,1088.49c10.65-2.13,17.68-8.73,19.17-18.32h-17.47l7.46-41.96h43.88l-7.24,41.96c-4.47,24.71-21.3,37.49-49.63,40.26l3.83-21.94Z"/>
            <path class="cls-1"
                  d="M1741.04,1141.1h58.57l-6.6,36.42h-127.16c7.03-41.11,30.46-60.49,64.75-76.89,20.66-10.01,30.24-14.27,30.24-25.13,0-7.03-3.62-11.29-10.65-11.29-11.71,0-15.34,8.95-15.12,23.64l-49.84-8.52c3.62-32.16,24.71-51.33,66.46-51.33,36.42,0,59,17.68,59,45.79,0,30.88-21.09,42.81-53.25,58.15-6.39,3.19-11.93,6.18-16.4,9.16Z"/>
            <path class="cls-1"
                  d="M1939.34,1134.92c0,31.95-28.33,46.22-64.33,46.22-40.89,0-63.69-18.74-63.9-48.14l50.05-6.6c-1.28,12.35,2.98,20.66,14.48,20.66,8.52,0,14.06-5.11,14.06-14.7,0-7.67-5.11-12.14-13.21-12.14h-14.7l5.96-34.93h14.91c8.95,0,15.34-3.83,15.34-12.57,0-7.67-4.69-11.5-11.71-11.5-11.08,0-14.91,7.45-15.12,18.96l-47.29-8.52c4.26-30.25,30.25-43.66,65.18-43.66s57.51,14.27,57.51,40.68c0,18.1-10.44,28.54-25.35,34.72,12.35,6.6,18.11,17.89,18.11,31.52Z"/>
        </g>
    </g>
</svg>
