<?xml version="1.0" encoding="utf-8"?>
<!-- Generator: Adobe Illustrator 22.0.1, SVG Export Plug-In . SVG Version: 6.00 Build 0)  -->
<svg version="1.1" id="Layer_1" xmlns="http://www.w3.org/2000/svg" xmlns:xlink="http://www.w3.org/1999/xlink" x="0px" y="0px"
	 viewBox="0 0 29.9 31" style="enable-background:new 0 0 29.9 31;" xml:space="preserve">
<style type="text/css">
	.st0{fill:#FFFFFF;}
</style>
<g>
	<title></title>
	<g id="icomoon-ignore">
	</g>
	<path class="st0" d="M13.1,3.4c9.5,2.3,12,8.8,9.6,14.5c0.2-2.7-1.5-5.5-4.4-6.7c2.8-3.8-3-7.7-9.3-7.3C7.7,3.9,6.3,4,5.2,4.2
		c1.7-0.8,3.8-2.3,5.5-0.5C10.9,0.4,7.7-1,2.5,0.8c2.3,0.8,3,2,2,3.5C3.1,4.5,2.1,4.6,2.1,4.6C5,7,5.6,8.5,3.4,11.8l-1.8,0.1
		C5,16,4.8,20,0.9,23.5c8.4-0.1,14.2-6.9,19.7-1.7c1.1-0.9,1.7-2,2-3.1C32.6,12.7,28.7,5.5,13.1,3.4 M6,11.7
		c4.5-1.3,9.2-4.2,11.8-0.6L6,11.7z"/>
	<path class="st0" d="M29.9,22.6c-0.1,3.3-1,5.3-1.9,5.4c-0.4,0-0.5-0.1-1-1c0.1,0.2-0.7-1.6-1.5-2c-0.8-0.5-2.3-0.3-4-0.3
		c0.5,0.5,0.9,0.8,0.9,1.9c-0.1,2.2-2.6,4.3-4.7,4.3l-0.1,0l0-0.1c-0.1-0.2-0.3-0.5-0.6-0.6c-0.1,0-2,0-2,0c0,0.2-0.3,0.4-0.8,0.4
		c-0.5,0-0.7-0.2-0.7-0.4l-0.6,0v0c0,0.2-0.3,0.4-0.7,0.4c-0.4,0-0.7-0.2-0.7-0.4l-0.5,0c0,0.2-0.3,0.4-0.7,0.4
		c-0.4,0-0.7-0.2-0.7-0.4l0,0l-1.5,0c-2.4,0-4-1.3-4-2.9c0-0.9,0.5-1.7,1.5-2.4c-2.2,0.2-4.7,0.5-5,0.6l-0.1,0l-0.1-0.1
		c-0.4-0.6-0.4-1.1,0.1-1.6l0-0.1l0.1,0c0,0,1,0.2,3.3,0l16-1.5c3.4-0.3,5-1,6.5-2.5c1.1-1.1,1.2-2.1,1.8-2.2
		C29.1,17.6,29.9,19.5,29.9,22.6 M12.9,28.3l0.6,0l0.1-3.2l-0.6,0L12.9,28.3z M10.9,25.2l-0.1,3.2l0.5,0l0.1-3.2L10.9,25.2z M8,28.5
		l1.5-0.1l0.1-3.2l-0.9,0l-0.7,0c-1.6,0.1-2.8,1.1-2.8,2.1c0,0.9,0.8,1.6,2,1.8C7.3,28.8,7.6,28.5,8,28.5 M16.9,24.3l0,0.2
		c0.6,0.1,1.1,0.3,1.5,0.6L15,25.2L15,28.3l3.9-0.1c0.2,0,0.4,0,0.5,0.1c0.7-0.5,1.1-1,1.1-1.6C20.5,24.7,16.9,24.3,16.9,24.3
		 M27.2,26.2c-0.4-1.3-0.5-3.5-0.3-4.7c0,0,0,0,0,0c-0.7,1.2-1.3,1.5-2.5,1.7c0,0-2.6,0.3-4.7,0.5c0.4,0.1,0.8,0.3,1.1,0.5
		c0.4,0,0.6,0,0.6,0c2.2-0.2,3.3-0.1,3.8-0.1c0.3,0.1,0.7,0.2,0.9,0.4C26.5,24.9,26.9,25.7,27.2,26.2C27.2,26.4,27.2,26.4,27.2,26.2
		"/>
</g>
</svg>
