<svg width="104" height="50" viewBox="0 0 104 50" fill="white" xmlns="http://www.w3.org/2000/svg">
    <path d="M75.7844 42.3468C76.0288 41.0241 75.9144 39.9556 75.4427 39.1406C74.9706 38.3262 74.2223 37.737 73.1974 37.3741C72.1719 37.0112 70.9109 36.8298 69.4138 36.8298C68.4051 36.8298 67.494 36.8865 66.6802 36.9994C65.8664 37.1122 65.1504 37.338 64.5321 37.6767C63.881 38.0318 63.3683 38.455 62.9944 38.9468C62.62 39.4391 62.3762 40.1123 62.2623 40.9669L67.7301 41.7169C67.779 41.1205 67.9173 40.685 68.1451 40.4102C68.3728 40.1365 68.7467 39.9989 69.2677 39.9989C69.5121 39.9989 69.7196 40.0231 69.8902 40.0716C70.0613 40.12 70.2032 40.2009 70.3176 40.3138C70.431 40.4432 70.4965 40.5881 70.5126 40.7494C70.5287 40.9107 70.5204 41.0968 70.4882 41.3061L70.4637 41.4272L70.4149 41.7417L66.6802 42.3221C65.4109 42.5159 64.3818 42.7453 63.5924 43.0118C62.8031 43.2778 62.1765 43.6814 61.7126 44.2216C61.2488 44.7623 61.0169 45.4917 61.0169 46.4113C61.0169 47.1536 61.1958 47.7943 61.554 48.335C61.9118 48.8758 62.4042 49.2871 63.0308 49.5691C63.6569 49.851 64.3854 49.9923 65.2154 49.9923C66.0453 49.9923 66.7369 49.8753 67.3874 49.6413C68.0379 49.4077 68.5995 49.0727 69.0717 48.6371C69.2428 48.4789 69.3967 48.3067 69.5423 48.1273C69.5402 48.1809 69.5371 48.2304 69.5355 48.2861C69.5194 48.8268 69.5272 49.2577 69.56 49.5804H75.0517L75.0761 49.4835C74.9623 49.0964 74.8967 48.6814 74.8806 48.2376C74.8645 47.7943 74.8967 47.3546 74.9784 46.9191L75.7839 42.3463L75.7844 42.3468ZM68.9989 46.4237C68.5917 46.7546 68.1445 46.9196 67.6562 46.9196C67.2818 46.9196 67.0011 46.835 66.8144 46.6654C66.6272 46.4964 66.5336 46.2665 66.5336 45.9757C66.5336 45.5886 66.6636 45.3226 66.9241 45.1773C67.1841 45.0319 67.599 44.903 68.169 44.7902L69.9027 44.4484L69.8044 44.9598C69.6739 45.6051 69.4055 46.0928 68.9989 46.4237Z"/>
    <path d="M45.4975 42.3468C45.7419 41.0241 45.6275 39.9556 45.1558 39.1406C44.6837 38.3262 43.9354 37.737 42.9105 37.3741C41.885 37.0112 40.624 36.8298 39.1269 36.8298C38.1181 36.8298 37.2071 36.8865 36.3933 36.9994C35.5795 37.1122 34.8634 37.338 34.2452 37.6767C33.5941 38.0318 33.0814 38.455 32.7075 38.9468C32.3331 39.4391 32.0892 40.1123 31.9754 40.9669L37.4432 41.7169C37.492 41.1205 37.6304 40.685 37.8581 40.4102C38.0859 40.1365 38.4598 39.9989 38.9808 39.9989C39.2252 39.9989 39.4327 40.0231 39.6032 40.0716C39.7743 40.12 39.9163 40.2009 40.0307 40.3138C40.1441 40.4432 40.2096 40.5881 40.2257 40.7494C40.2418 40.9107 40.2335 41.0968 40.2012 41.3061L40.1768 41.4272L40.1279 41.7417L36.3933 42.3221C35.124 42.5159 34.0949 42.7453 33.3055 43.0118C32.5162 43.2778 31.8896 43.6814 31.4257 44.2216C30.9619 44.7623 30.73 45.4917 30.73 46.4113C30.73 47.1536 30.9088 47.7943 31.2671 48.335C31.6249 48.8758 32.1173 49.2871 32.7439 49.5691C33.37 49.851 34.0985 49.9923 34.9284 49.9923C35.7584 49.9923 36.45 49.8753 37.1005 49.6413C37.751 49.4077 38.3126 49.0727 38.7848 48.6371C38.9558 48.4789 39.1098 48.3067 39.2554 48.1273C39.2533 48.1809 39.2502 48.2304 39.2486 48.2861C39.2325 48.8268 39.2403 49.2577 39.273 49.5804H44.7648L44.7892 49.4835C44.6753 49.0964 44.6098 48.6814 44.5937 48.2376C44.5776 47.7943 44.6098 47.3546 44.6915 46.9191L45.4969 42.3463L45.4975 42.3468ZM38.712 46.4237C38.3048 46.7546 37.8576 46.9196 37.3693 46.9196C36.9949 46.9196 36.7141 46.835 36.5274 46.6654C36.3402 46.4964 36.2466 46.2665 36.2466 45.9757C36.2466 45.5886 36.3766 45.3226 36.6372 45.1773C36.8972 45.0319 37.3121 44.903 37.882 44.7902L39.6157 44.4484L39.5175 44.9598C39.3869 45.6051 39.1186 46.0928 38.712 46.4237Z"/>
    <path d="M84.0347 45.1289C84.2458 44.9836 84.4414 44.847 84.6202 44.7176C84.7991 44.5887 84.9536 44.4676 85.0841 44.3547L89.5509 40.9191L90.2103 37.2412H78.543L77.8836 40.9917H81.3494C81.6744 40.9917 82.0696 40.984 82.5335 40.9675C82.8184 40.9577 83.093 40.9438 83.3624 40.9278C83.3052 40.966 83.2506 41.0005 83.1923 41.0402C83.0051 41.1696 82.8138 41.2985 82.6188 41.4273C82.3582 41.5887 82.1019 41.7541 81.8497 41.9232C81.597 42.0928 81.3656 42.2583 81.1539 42.4196L76.8337 45.6861L76.126 49.5815H88.4766L89.1354 45.831H83.028C83.0576 45.8109 83.0888 45.7908 83.1185 45.7707C83.4357 45.5531 83.7404 45.3392 84.0337 45.1294L84.0347 45.1289Z"/>
    <path d="M97.5324 45.1289C97.7435 44.9836 97.939 44.847 98.1179 44.7176C98.2968 44.5887 98.4512 44.4676 98.5818 44.3547L103.049 40.9191L103.708 37.2412H92.0407L91.3813 40.9917H94.8471C95.1721 40.9917 95.5673 40.984 96.0312 40.9675C96.3161 40.9577 96.5907 40.9438 96.86 40.9278C96.8028 40.966 96.7477 41.0005 96.69 41.0402C96.5028 41.1696 96.3114 41.2985 96.1164 41.4273C95.8559 41.5887 95.6001 41.7541 95.3474 41.9232C95.0946 42.0928 94.8632 42.2583 94.6516 42.4196L90.3314 45.6861L89.6237 49.5815H101.974L102.633 45.831H96.5257C96.5553 45.8109 96.5865 45.7908 96.6162 45.7707C96.9334 45.5531 97.2386 45.3392 97.5314 45.1294L97.5324 45.1289Z"/>
    <path d="M7.00545 39.8489C7.23321 39.6958 7.54261 39.619 7.93313 39.619C8.47029 39.619 8.86081 39.7602 9.10469 40.0422C9.34909 40.3246 9.47077 40.7561 9.47077 41.3365L14.5964 40.7314C14.4014 39.3442 13.7057 38.3478 12.5097 37.7432C11.3137 37.1385 9.78797 36.8359 7.93313 36.8359C6.56657 36.8359 5.37837 36.9932 4.36957 37.3076C3.36024 37.622 2.57556 38.0983 2.01396 38.7355C1.45236 39.3731 1.17208 40.1592 1.17208 41.0942C1.17208 41.9334 1.39568 42.6149 1.8434 43.1391C2.2906 43.6633 2.85636 44.0587 3.53965 44.3247C4.22293 44.5907 5.09341 44.8531 6.15161 45.1113C6.18385 45.1273 6.22493 45.1355 6.27329 45.1355C6.32165 45.1355 6.36273 45.1438 6.39549 45.1598C6.85101 45.2567 7.25349 45.3536 7.60397 45.4505C7.95341 45.5474 8.20561 45.6562 8.36057 45.7768C8.51501 45.8979 8.59249 46.0551 8.59249 46.2484C8.59249 46.5551 8.46197 46.785 8.20197 46.9381C7.94145 47.0917 7.61645 47.168 7.22541 47.168C6.63989 47.168 6.20413 47.0191 5.91969 46.7201C5.63473 46.4216 5.47613 45.9819 5.44389 45.4015L0 45.8618C0.13 47.2974 0.846041 48.3459 2.14812 49.0072C3.44969 49.6686 5.08509 49.9995 7.05433 49.9995C9.20245 49.9995 10.9351 49.6644 12.2533 48.9954C13.5715 48.3263 14.2303 47.2412 14.2303 45.7412C14.2303 44.8701 14.0067 44.1768 13.559 43.6603C13.1113 43.1443 12.5294 42.7448 11.8139 42.4623C11.0979 42.1803 10.1379 41.902 8.93361 41.6278C8.88473 41.6118 8.83169 41.5999 8.77501 41.5912C8.71781 41.5834 8.66529 41.5711 8.61641 41.5551C8.58365 41.5391 8.55141 41.5308 8.51865 41.5308C8.48589 41.5308 8.45365 41.5231 8.42089 41.5066C7.93261 41.3942 7.57069 41.2973 7.33513 41.2164C7.09905 41.136 6.92797 41.0432 6.82241 40.9381C6.71633 40.8334 6.66381 40.6922 6.66381 40.5149C6.66381 40.2246 6.77717 40.003 7.00545 39.8494V39.8489Z"/>
    <path d="M29.9494 44.5309C30.145 43.2891 30.1606 42.1881 29.9983 41.2282C29.8356 40.269 29.4695 39.4581 28.9001 38.7968C28.3629 38.1519 27.651 37.6638 26.7644 37.3328C25.8773 37.0024 24.8399 36.837 23.6522 36.837C22.4646 36.837 21.3492 37.0065 20.357 37.3452C19.3643 37.6839 18.5099 38.1839 17.7939 38.8452C17.0451 39.5226 16.4674 40.3334 16.0607 41.2772C15.6541 42.221 15.4508 43.2814 15.4508 44.4587C15.4508 45.2814 15.5886 46.0237 15.8657 46.685C16.1419 47.3464 16.5407 47.9185 17.0617 48.4031C17.615 48.9191 18.3103 49.3144 19.1485 49.5887C19.9862 49.8629 20.9508 50 22.0408 50C23.9934 50 25.6324 49.6371 26.9589 48.9113C28.2849 48.1855 29.1923 47.1288 29.6806 45.7417L24.1889 45.2335C24.0261 45.75 23.7984 46.1371 23.5056 46.3948C23.2128 46.6531 22.8384 46.7819 22.3829 46.7819C21.7808 46.7819 21.3658 46.5922 21.138 46.2134C20.9098 45.8345 20.8531 45.2737 20.967 44.5314H29.9494V44.5309ZM22.6388 40.1999C22.8587 40.1195 23.1146 40.0788 23.4078 40.0788C23.7011 40.0788 23.945 40.1195 24.14 40.1999C24.3355 40.2808 24.4816 40.402 24.5794 40.5628C24.6933 40.7566 24.7541 41.0025 24.7624 41.3009C24.7666 41.4478 24.7635 41.6133 24.7536 41.7968H21.4428C21.578 41.238 21.7766 40.8251 22.0413 40.5628C22.2202 40.402 22.4193 40.2808 22.6393 40.1999H22.6388Z"/>
    <path d="M27.0603 5.96092V9.31302L24.9065 6.34598C24.7505 6.12639 24.4463 5.9604 24.1909 5.9604H22.8421L22.7599 6.40216L23.0339 6.46299C23.1728 6.49443 23.2414 6.63825 23.2399 6.9764V11.1301H24.4182V7.74651L26.6401 10.8089C26.7597 10.9759 27.0405 11.1301 27.2865 11.1301H28.2386V5.96092H27.0603Z"/>
    <path d="M33.3877 5.96092V9.31302L31.2338 6.34598C31.0778 6.12639 30.7736 5.9604 30.5183 5.9604H29.1694L29.0873 6.40216L29.3613 6.46299C29.5002 6.49443 29.5688 6.63825 29.5672 6.9764V11.1301H30.7456V7.74651L32.967 10.8089C33.0866 10.9759 33.3679 11.1301 33.6139 11.1301H34.5655V5.96092H33.3877Z"/>
    <path d="M2.28955 9.9929C2.28955 6.74802 4.54012 5.68821 6.9082 5.68821H14.3884L13.2428 11.3476L10.3537 7.02431C10.2736 6.89853 10.0838 6.79699 9.93304 6.79699H7.57432C7.42352 6.79699 7.27532 6.91657 7.24516 7.06245L5.9904 13.1837C5.96128 13.3295 6.05956 13.4496 6.20984 13.4496H7.94196C8.09224 13.4496 8.24044 13.3295 8.2706 13.1842L9.14732 8.8965L12.0338 13.2151C12.1144 13.3409 12.3048 13.4429 12.455 13.4429H14.8169C14.9661 13.4429 15.1138 13.3239 15.1455 13.1775L16.5027 6.60111C16.5324 6.45471 16.4897 6.23306 16.4081 6.10677L14.9656 3.87788C14.885 3.75262 14.6947 3.64953 14.5444 3.64953H4.02167C3.63063 3.64953 3.67639 3.48922 3.99359 3.11395C5.60456 1.20981 8.02204 0 10.725 0C15.5756 0 19.5073 3.89798 19.5073 8.70577C19.5073 13.5136 15.5756 17.4121 10.725 17.4121C5.87444 17.4121 2.28955 13.2919 2.28955 9.9929Z"/>
    <path d="M55.7607 35.3267L54.1508 44.4294C53.9979 45.282 53.4498 45.6675 52.5637 45.6675C51.8331 45.6675 50.8259 45.4742 50.0948 45.1619L49.3273 49.3068C50.6985 49.8423 52.1139 49.9923 53.4134 49.9923C56.4107 49.9923 59.0632 48.914 59.6368 45.5103L61.4537 35.3267H55.7607Z"/>
    <path d="M17.0441 22.2885C16.7347 21.9013 16.2994 21.5988 15.7384 21.3812C15.1773 21.1637 14.5626 21.0544 13.8955 21.0544C12.6912 21.0544 11.7271 21.3127 11.0032 21.8287C10.4676 22.2101 10.0381 22.7158 9.71155 23.3441L10.0391 21.4658H4.52246L2.32546 33.8056H8.0127L9.20871 27.1277C9.32207 26.4504 9.51395 25.954 9.78227 25.6395C10.0506 25.3251 10.3964 25.1679 10.8197 25.1679C10.9985 25.1679 11.153 25.1921 11.2835 25.2405C11.4135 25.289 11.5191 25.3617 11.6007 25.4586C11.6985 25.604 11.7551 25.7813 11.7713 25.9906C11.7874 26.2004 11.7629 26.4663 11.698 26.789V26.8375L10.4775 33.8056H16.1648L17.483 26.305C17.6452 25.4019 17.6941 24.6194 17.6296 23.9581C17.5646 23.2967 17.3691 22.74 17.0436 22.2885H17.0441Z"/>
    <path d="M30.432 21.708C29.4471 21.2725 28.2964 21.0544 26.9782 21.0544C25.3183 21.0544 23.8577 21.3652 22.5967 21.9859C21.3357 22.607 20.3591 23.4983 19.6675 24.6596C18.9754 25.821 18.6301 27.1844 18.6301 28.7488C18.6301 29.8942 18.8984 30.8782 19.4356 31.7009C19.9727 32.5236 20.733 33.1489 21.7179 33.5762C22.7022 34.003 23.8535 34.2175 25.1717 34.2175C26.7665 34.2175 28.2023 33.8989 29.4799 33.2618C30.757 32.6247 31.7539 31.7293 32.4699 30.5762C33.186 29.4231 33.5442 28.0963 33.5442 26.5957C33.5442 25.4509 33.2717 24.4586 32.7263 23.6199C32.1808 22.7812 31.4164 22.1436 30.432 21.7085V21.708ZM27.6859 25.9426C27.6859 26.5715 27.5923 27.3457 27.4051 28.2653C27.2179 29.1849 26.9938 29.7983 26.7338 30.1045C26.4733 30.4592 26.0989 30.637 25.6106 30.637C25.2034 30.637 24.919 30.5324 24.7562 30.3226C24.6585 30.2257 24.5857 30.0927 24.5368 29.9236C24.4879 29.754 24.4635 29.5566 24.4635 29.3308C24.4635 28.7499 24.5612 27.988 24.7562 27.0442C24.9517 26.1004 25.1551 25.4833 25.3667 25.1931C25.5289 24.9993 25.7042 24.8586 25.8914 24.7699C26.0786 24.6813 26.3022 24.6369 26.5627 24.6369C26.7416 24.6369 26.896 24.657 27.0265 24.6972C27.1565 24.738 27.2704 24.7983 27.3682 24.8787C27.4815 24.9756 27.5637 25.1086 27.6121 25.2782C27.6609 25.4473 27.6854 25.6617 27.6854 25.9194V25.9436L27.6859 25.9426Z"/>
    <path d="M46.017 21.2002H45.6998C44.886 21.2002 44.1782 21.3172 43.5761 21.5513C42.9739 21.7853 42.4451 22.1724 41.9896 22.7126C41.6682 23.0941 41.3796 23.5719 41.1227 24.1425L41.599 21.4667H36.1073L33.9103 33.8066H39.5976L40.3053 29.8385C40.4675 28.9519 40.728 28.2379 41.0863 27.6972C41.4441 27.157 41.8876 26.7699 42.417 26.5359C42.9453 26.3023 43.5678 26.1848 44.2843 26.1848C44.5771 26.1848 44.8698 26.2013 45.1631 26.2333L46.1641 21.2007H46.0175L46.017 21.2002Z"/>
    <path d="M56.1055 25.0951L56.7643 21.4657H54.3723L54.9906 17.9543H49.4739L48.8317 21.4657H47.1152L46.4564 25.0951H48.1968L47.4641 29.3297C47.2691 30.4591 47.3383 31.3664 47.6716 32.0514C48.0049 32.7375 48.5624 33.2293 49.3434 33.5277C50.125 33.8257 51.101 33.9751 52.2726 33.9751C52.6464 33.9751 53.0448 33.955 53.4686 33.9148C53.8913 33.8741 54.274 33.8138 54.6157 33.7334L55.2257 29.6684C54.7701 29.7653 54.3874 29.8138 54.0785 29.8138C53.688 29.8138 53.403 29.7452 53.2242 29.6081C53.0448 29.4715 52.9886 29.2091 53.0536 28.8215L53.7125 25.0951H56.1055Z"/>
    <path d="M71.353 23.922C71.288 23.2529 71.0924 22.7085 70.7669 22.2884C70.4575 21.9013 70.0223 21.5993 69.4612 21.3812C68.9001 21.1637 68.2855 21.0544 67.6188 21.0544C66.4306 21.0544 65.479 21.3127 64.763 21.8292C64.2347 22.2101 63.8103 22.7111 63.4859 23.3287L64.6221 16.9724H59.0326L56.0488 33.8056H61.7361L62.9321 27.1277C63.0621 26.4184 63.2659 25.9143 63.5425 25.6153C63.8187 25.3173 64.1525 25.1679 64.543 25.1679C64.7219 25.1679 64.8763 25.1921 65.0069 25.2405C65.1369 25.289 65.2424 25.3617 65.3241 25.4586C65.4218 25.588 65.4743 25.757 65.4827 25.9668C65.491 26.1766 65.4702 26.4591 65.4213 26.8137V26.8622L64.2014 33.8066H69.8886L71.2308 26.2576C71.3774 25.3709 71.4174 24.5921 71.353 23.9225V23.922Z"/>
    <path d="M102.322 21.0482C101.612 21.1611 101.567 22.2059 100.5 23.2121C99.0529 24.5807 97.7175 25.3276 94.0292 25.6725L78.1879 27.1642C75.9196 27.3771 74.9399 27.2065 74.928 27.2024L74.8708 27.1921L74.8214 27.2431C74.3336 27.756 74.3061 28.2581 74.7429 28.8008L74.7933 28.8668L74.8728 28.8261C75.1745 28.6812 77.5904 28.4204 79.7572 28.2276C79.7572 28.2276 79.7567 28.2276 79.7562 28.2276C78.9985 28.691 78.373 29.4158 78.3293 30.5545C78.2627 32.3076 79.557 33.2999 81.5829 33.4421C81.7072 33.4509 81.8336 33.4566 81.9636 33.4591C82.0697 33.4638 82.1752 33.4684 82.2849 33.4674L83.781 33.4524C83.7877 33.655 84.0753 33.8061 84.4466 33.8061C84.8179 33.8061 85.1335 33.6483 85.1486 33.4401L85.6873 33.4339C85.6842 33.638 85.9998 33.8066 86.3919 33.8066C86.784 33.8066 87.1194 33.6365 87.1241 33.4195L87.6961 33.4133C87.6758 33.6365 88.0138 33.8071 88.4272 33.8071C88.8406 33.8071 89.1937 33.6282 89.2004 33.3963C89.2004 33.3963 90.202 33.3875 90.7916 33.3823C90.839 33.3823 90.8832 33.3813 90.9242 33.3813H91.6528C94.8861 33.3813 96.4919 31.5421 96.494 29.7106C96.4945 29.2488 96.4092 28.8426 96.2553 28.4864C96.2345 28.438 96.2147 28.389 96.1913 28.3426C96.1034 28.1694 95.9953 28.0117 95.872 27.8658C98.2157 27.7204 98.952 27.7946 99.5729 28.1189C100.334 28.5148 100.923 29.7277 101.107 30.0936C101.42 30.7194 101.599 31.1385 102.089 31.1194C102.964 31.0937 103.921 29.0761 103.996 25.8632C104.067 22.7668 103.271 20.8982 102.322 21.0492V21.0482ZM85.8033 28.3859L85.7351 31.4333C85.5511 31.4426 85.3691 31.4514 85.1938 31.4602L85.2583 28.4137L85.8033 28.3854V28.3859ZM81.5481 32.2359C81.3801 32.2215 81.2273 32.1942 81.0811 32.1617C80.3984 32.0081 79.9616 31.6663 79.7614 31.2174C79.6693 31.0117 79.6241 30.7859 79.6298 30.5447C79.635 30.3174 79.6849 30.1101 79.7614 29.9153C79.9434 29.4514 80.3365 29.0874 80.9683 28.8514C81.3099 28.7235 81.7228 28.6343 82.2111 28.5874C82.3213 28.5766 82.4227 28.5606 82.5408 28.5544L83.8881 28.4849L83.8257 31.5287C83.0072 31.5694 82.4675 31.5962 82.4118 31.5998L82.3525 31.6019C81.9802 31.6163 81.6817 31.8947 81.6225 32.238C81.5991 32.2364 81.5715 32.238 81.5481 32.2364V32.2359ZM87.7392 31.3344C87.5479 31.3437 87.357 31.3529 87.1672 31.3627L87.2343 28.3122L87.8042 28.2828L87.7392 31.3344ZM93.2876 31.7988C93.2216 31.5684 93.0734 31.3736 92.8727 31.2504C92.7136 31.1529 92.5258 31.0978 92.323 31.1081C91.9346 31.1272 91.4567 31.1509 90.9258 31.1772C90.4068 31.2029 89.8374 31.2308 89.2441 31.2601L89.3117 28.2055H89.319L89.3117 28.1931L89.2951 28.1648L91.9325 28.0215C92.1894 28.0137 92.4244 28.0189 92.6428 28.0338C92.984 28.057 93.27 28.1142 93.5232 28.1916C94.3609 28.4477 94.7468 28.9859 94.7785 29.7771C94.8154 30.7081 94.2028 31.4607 93.2882 31.7993L93.2876 31.7988ZM101.287 29.3673C101.047 28.8498 100.684 28.1137 100.244 27.6735C100.042 27.4714 99.6395 27.2993 99.3181 27.2374C98.8979 27.1544 97.7919 27.1245 95.6001 27.2885C95.6001 27.2885 95.454 27.2993 95.2283 27.3142C95.1555 27.2694 95.0796 27.2276 95.0016 27.1885C94.7005 27.0364 94.3573 26.923 93.9803 26.8467L95.0931 26.7467C95.0931 26.7467 95.0946 26.7467 95.0952 26.7467C96.7966 26.5823 98.4512 26.3761 98.4512 26.3761C99.7081 26.2209 100.245 25.942 100.971 24.7482C100.988 24.7183 101.013 24.7224 101.009 24.7565C100.844 25.9544 100.977 28.0529 101.345 29.3596C101.389 29.5215 101.37 29.5493 101.287 29.3684L101.287 29.3673Z"/>
    <path d="M75.2899 26.7493C83.6525 26.6534 89.3299 19.9585 94.7717 25.0596C95.8299 24.1467 96.4466 23.0781 96.7113 21.974C106.729 16.1389 102.805 9.063 87.3716 6.9903C96.8002 9.28671 99.2037 15.594 96.8372 21.1869C97.0613 18.5245 95.3125 15.809 92.4598 14.6022C95.1882 10.8439 89.461 7.07741 83.2698 7.40061C82.0613 7.46453 80.7109 7.61144 79.5367 7.76247C81.2475 7.01143 83.2594 5.50935 85.0129 7.23463C85.2297 4.02995 82.091 2.68664 76.9154 4.39336C79.1759 5.20007 79.8545 6.33204 78.9273 7.83876C77.5467 8.02381 76.5358 8.19392 76.5358 8.19392C79.3865 10.5032 79.9985 11.9754 77.7635 15.2399L75.9654 15.3316C79.3542 19.3069 79.1967 23.2436 75.2904 26.7488L75.2899 26.7493ZM92.0386 14.5254L80.3708 15.1105C84.834 13.8254 89.527 10.9692 92.0386 14.5254Z"/>
</svg>
